<svg width="230" height="230" viewBox="0 0 230 230" fill="none" xmlns="http://www.w3.org/2000/svg">
<rect width="230" height="230" rx="32" fill="#009A66"/>
<path d="M182.358 121.509C144.748 99.7967 83.9655 99.7967 46.596 121.509C9.2264 143.222 9.42696 178.434 47.032 200.151C84.637 221.868 145.428 221.868 182.798 200.151C220.168 178.434 219.971 143.227 182.358 121.509Z" fill="#F5F5F5"/>
<path d="M180.803 140.651C180.582 140.051 180.158 139.548 179.606 139.226L128.971 109.991C127.901 109.37 126.685 109.043 125.448 109.043C124.211 109.043 122.996 109.37 121.925 109.991L66.2262 142.315C65.7986 142.562 65.4435 142.917 65.1967 143.344C64.9498 143.772 64.8198 144.257 64.8198 144.751C64.8198 145.245 64.9498 145.73 65.1967 146.158C65.4435 146.585 65.7986 146.94 66.2262 147.187L90.571 161.242C79.928 159.674 68.1896 161.296 59.8931 166.115C47.3764 173.388 47.4423 185.186 60.0427 192.453C72.6431 199.72 93.0013 199.726 105.536 192.453C113.832 187.634 116.592 180.828 113.85 174.669L116.873 176.411C117.943 177.033 119.159 177.36 120.396 177.36C121.633 177.36 122.849 177.033 123.919 176.411L179.588 144.087C180.166 143.752 180.606 143.222 180.829 142.593C181.052 141.963 181.043 141.274 180.803 140.651Z" fill="#E6E6E6"/>
<path opacity="0.1" d="M118.364 97.8511C123.53 100.844 123.554 105.633 118.43 108.626C113.306 111.619 104.961 111.619 99.8013 108.626C94.6414 105.633 94.6115 100.814 99.7355 97.8511C104.859 94.888 113.204 94.8701 118.364 97.8511Z" fill="black"/>
<path d="M165.683 103.466L162.397 105.423L166.473 115.21L167.467 117.605C167.948 118.75 167.992 120.033 167.589 121.208C167.186 122.384 166.365 123.37 165.282 123.98L125.398 146.547L122.8 148.019L73.5354 119.544L71.9431 136.233L74.529 136.616L74.7146 135.485C74.7912 135.037 74.9748 134.613 75.25 134.251C75.5251 133.889 75.8835 133.599 76.2948 133.405C76.7062 133.211 77.1582 133.119 77.6126 133.137C78.067 133.156 78.5103 133.283 78.9048 133.509L115.222 154.412C116.703 155.266 117.907 156.527 118.691 158.046C119.476 159.564 119.807 161.277 119.645 162.978L119.519 164.271H122.135L122.668 161.105C122.885 159.809 123.387 158.577 124.138 157.499C124.888 156.42 125.868 155.522 127.008 154.867L168.957 130.702C169.357 130.472 169.8 130.328 170.258 130.277C170.716 130.227 171.18 130.272 171.62 130.409C172.06 130.546 172.467 130.772 172.815 131.074C173.164 131.376 173.446 131.747 173.644 132.163L177.613 140.501C177.613 140.501 178.912 141.195 179.409 139.944L165.683 103.466Z" fill="#455A64"/>
<path d="M129.3 148.085L165.994 126.62C167.158 125.939 168.035 124.86 168.463 123.582C168.891 122.304 168.841 120.914 168.322 119.67L166.473 115.222L167.466 117.617C167.944 118.761 167.986 120.041 167.583 121.213C167.181 122.386 166.362 123.371 165.282 123.98L125.397 146.547C125.515 146.932 125.719 147.286 125.992 147.582C126.266 147.878 126.603 148.109 126.978 148.256C127.353 148.404 127.757 148.466 128.159 148.436C128.561 148.406 128.951 148.286 129.3 148.085Z" fill="#37474F"/>
<path d="M119.022 62.3245L79.5867 92.8528C78.3803 93.788 77.3794 94.9615 76.6461 96.3003C75.9129 97.639 75.4631 99.1144 75.3247 100.635L70.925 146.966C71.1693 147.192 71.4818 147.33 71.8133 147.359C72.1448 147.389 72.4766 147.307 72.7567 147.127L80.6163 100.599C80.7494 99.805 81.0533 99.0498 81.5071 98.3852C81.9608 97.7206 82.5535 97.1626 83.2441 96.7497L118.088 75.8707C122.62 73.153 123.422 63.5516 119.022 62.3245Z" fill="#455A64"/>
<path opacity="0.3" d="M119.022 62.3245L79.5867 92.8528C78.3803 93.788 77.3794 94.9615 76.6461 96.3003C75.9129 97.639 75.4631 99.1144 75.3247 100.635L70.925 146.966C71.1693 147.192 71.4818 147.33 71.8133 147.359C72.1448 147.389 72.4766 147.307 72.7567 147.127L80.6163 100.599C80.7494 99.805 81.0533 99.0498 81.5071 98.3852C81.9608 97.7206 82.5535 97.1626 83.2441 96.7497L118.088 75.8707C122.62 73.153 123.422 63.5516 119.022 62.3245Z" fill="white"/>
<path d="M164.186 115.061C164.006 114.59 163.671 114.195 163.235 113.941L123.727 91.117C122.89 90.6331 121.941 90.3783 120.974 90.3783C120.007 90.3783 119.057 90.6331 118.22 91.117L78.9703 113.929C78.5323 114.183 78.1959 114.581 78.0186 115.055C76.8932 117.132 76.5101 121.855 78.0844 124.866C78.2895 125.26 78.6004 125.59 78.9823 125.818L118.49 148.648C119.325 149.133 120.274 149.389 121.24 149.389C122.206 149.389 123.155 149.133 123.991 148.648L163.241 125.842C163.63 125.618 163.939 125.279 164.126 124.872C165.689 121.861 165.312 117.138 164.186 115.061Z" fill="#299BFE"/>
<path opacity="0.3" d="M164.186 115.061C164.006 114.59 163.671 114.195 163.235 113.941L123.727 91.117C122.89 90.6331 121.941 90.3783 120.974 90.3783C120.007 90.3783 119.057 90.6331 118.22 91.117L78.9703 113.929C78.5323 114.183 78.1959 114.581 78.0186 115.055C76.8932 117.132 76.5101 121.855 78.0844 124.866C78.2895 125.26 78.6004 125.59 78.9823 125.818L118.49 148.648C119.325 149.133 120.274 149.389 121.24 149.389C122.206 149.389 123.155 149.133 123.991 148.648L163.241 125.842C163.63 125.618 163.939 125.279 164.126 124.872C165.689 121.861 165.312 117.138 164.186 115.061Z" fill="black"/>
<path opacity="0.3" d="M164.186 115.061C164.373 115.548 164.38 116.086 164.205 116.577C164.031 117.069 163.686 117.482 163.235 117.742L123.985 140.555C123.149 141.04 122.2 141.296 121.234 141.296C120.268 141.296 119.319 141.04 118.484 140.555L78.9763 117.731C78.5247 117.471 78.1802 117.059 78.0047 116.569C77.8292 116.079 77.8341 115.542 78.0186 115.055C76.8932 117.132 76.5101 121.855 78.0844 124.866C78.2895 125.26 78.6004 125.59 78.9823 125.818L118.49 148.648C119.325 149.133 120.274 149.389 121.24 149.389C122.206 149.389 123.155 149.133 123.991 148.648L163.241 125.841C163.63 125.618 163.939 125.279 164.126 124.872C165.689 121.861 165.312 117.138 164.186 115.061Z" fill="black"/>
<path d="M167.455 71.6804L130.072 50.131C129.742 49.9369 129.366 49.8317 128.983 49.8257H128.797C125.379 49.8616 122.704 51.8968 120.716 54.2852L120.639 54.381C120.44 54.6275 120.295 54.913 120.214 55.219L109.487 95.1632C109.183 96.2947 109.262 97.4945 109.71 98.5768C110.158 99.6591 110.951 100.563 111.965 101.149L149.341 122.711C149.739 122.944 150.199 123.048 150.658 123.01C154.932 122.573 157.452 119.927 158.715 118.532C158.955 118.265 159.129 117.945 159.224 117.599L169.945 77.6543C170.245 76.5233 170.164 75.3248 169.714 74.2447C169.263 73.1646 168.469 72.2632 167.455 71.6804Z" fill="#299BFE"/>
<path opacity="0.2" d="M167.455 71.6804L130.072 50.131C129.742 49.9369 129.366 49.8317 128.983 49.8257H128.797C125.379 49.8616 122.704 51.8968 120.716 54.2852L120.639 54.381C120.44 54.6275 120.295 54.913 120.214 55.219L109.487 95.1632C109.183 96.2947 109.262 97.4945 109.71 98.5768C110.158 99.6591 110.951 100.563 111.965 101.149L149.341 122.711C149.739 122.944 150.199 123.048 150.658 123.01C154.932 122.573 157.452 119.927 158.715 118.532C158.955 118.265 159.129 117.945 159.224 117.599L169.945 77.6543C170.245 76.5233 170.164 75.3248 169.714 74.2447C169.263 73.1646 168.469 72.2632 167.455 71.6804Z" fill="black"/>
<path opacity="0.1" d="M167.454 71.6804L130.072 50.131C129.74 49.9361 129.362 49.8309 128.977 49.8257H128.797C125.379 49.8616 122.703 51.8968 120.716 54.2852C121.067 53.9051 121.537 53.6558 122.048 53.5785C122.56 53.5013 123.082 53.6006 123.529 53.8602L160.912 75.4396C161.977 76.0548 162.794 77.0222 163.222 78.1751L169.753 74.404C169.324 73.2581 168.512 72.2959 167.454 71.6804Z" fill="black"/>
<path opacity="0.2" d="M163.223 78.1454C163.615 79.1833 163.672 80.3181 163.384 81.3898L152.664 121.334C152.541 121.788 152.281 122.194 151.918 122.494C151.556 122.794 151.11 122.974 150.64 123.01C154.914 122.573 157.434 119.927 158.697 118.533C158.937 118.265 159.111 117.945 159.206 117.599L169.927 77.6546C170.217 76.5682 170.156 75.4181 169.754 74.3683L163.223 78.1454Z" fill="black"/>
<path d="M95.6174 184.438C97.7245 183.025 99.2928 180.715 101.19 179.051C102.315 178.058 103.59 177.25 104.967 176.656L105.099 175.501L105.518 165.546H96.0185L95.8688 172.801C95.8441 173.818 95.5215 174.804 94.941 175.639C94.0431 176.938 93.247 178.159 92.7083 179.009C94.2414 179.271 95.683 179.918 96.8984 180.888C96.6189 182.12 96.1886 183.312 95.6174 184.438Z" fill="#FFA8A7"/>
<path d="M105.476 175.728L105.099 175.465L104.967 176.62C103.589 177.214 102.315 178.022 101.19 179.015C99.2924 180.703 97.7241 183.013 95.617 184.402C96.1894 183.262 96.6177 182.056 96.892 180.81C95.6766 179.84 94.235 179.193 92.7019 178.931C92.2669 178.852 91.8267 178.806 91.3849 178.793C88.867 182.147 85.717 184.976 82.1127 187.12C81.8603 187.265 81.6508 187.474 81.5057 187.726C81.3606 187.979 81.285 188.265 81.2866 188.556V189.484C82.819 192.058 85.4289 192.477 90.93 192.477C96.4311 192.477 99.8072 185.827 101.106 184.39C102.405 182.953 104.62 182.935 105.805 180.954C105.799 180.996 106.051 177.47 105.476 175.728Z" fill="#455A64"/>
<path d="M70.5602 171.867C72.6672 170.455 74.2355 168.144 76.1331 166.48C77.2567 165.486 78.5318 164.678 79.9102 164.085L80.0419 162.93L80.4609 152.976L71.0391 149.24L70.8056 160.231C70.7858 161.247 70.465 162.234 69.8838 163.068C68.9859 164.367 68.1897 165.588 67.645 166.438C69.1779 166.701 70.6193 167.348 71.8352 168.318C71.5576 169.549 71.1293 170.741 70.5602 171.867Z" fill="#FFA8A7"/>
<path d="M80.4131 163.14L80.042 162.876L79.9103 164.032C78.5318 164.624 77.2568 165.432 76.1331 166.426C74.2356 168.114 72.6673 170.425 70.5602 171.813C71.1326 170.674 71.5609 169.467 71.8352 168.222C70.6193 167.252 69.1779 166.606 67.6451 166.342C67.2102 166.263 66.77 166.217 66.3282 166.205C63.8134 169.561 60.6628 172.391 57.0559 174.531C56.8054 174.678 56.5978 174.888 56.4539 175.14C56.31 175.392 56.2348 175.677 56.2359 175.968V176.896C57.7683 179.47 60.3781 179.889 65.8792 179.889C71.3803 179.889 74.7504 173.238 76.0553 171.802C77.3603 170.365 79.5751 170.347 80.7543 168.366C80.7363 168.407 80.9937 164.882 80.4131 163.14Z" fill="#455A64"/>
<path d="M98.7657 101.503C85.1237 106.513 73.2895 111.248 71.6194 126.147C69.9494 141.046 70.0212 148.839 70.0212 148.839C78.4015 168.862 105.56 171.4 110.672 163.804C110.672 163.804 112.132 144.26 111.366 139.669C123.338 133.192 133.61 127.386 136.549 124.926C141.003 102.55 109.193 98.9884 98.7657 101.503Z" fill="#299BFE"/>
<path opacity="0.2" d="M98.7657 101.503C85.1237 106.513 73.2895 111.248 71.6194 126.147C69.9494 141.046 70.0212 148.839 70.0212 148.839C78.4015 168.862 105.56 171.4 110.672 163.804C110.672 163.804 112.132 144.26 111.366 139.669C123.338 133.192 133.61 127.386 136.549 124.926C141.003 102.55 109.193 98.9884 98.7657 101.503Z" fill="white"/>
<path d="M108.385 58.4158L107.511 58.5415C105.291 58.866 103.208 59.8106 101.501 61.2667C99.7938 62.7227 98.5324 64.6311 97.8618 66.7721L92.5822 83.6346L90.4812 84.5145C89.2019 85.0502 88.0756 85.895 87.2033 86.9732C86.3309 88.0513 85.7398 89.3291 85.4829 90.692L90.8703 97.486L101.645 92.2005L108.385 58.4158Z" fill="#455A64"/>
<path d="M136.549 124.907C134.753 120.191 130.324 116.91 125.685 114.905C121.046 112.9 116.023 111.912 111.259 110.224C106.494 108.536 100.628 105.573 97.9338 101.293L98.1553 101.107C99.3834 100.065 100.227 98.6423 100.553 97.065C100.878 95.4877 100.666 93.8468 99.9511 92.4038C99.3238 91.1049 98.9848 89.6857 98.9574 88.2435C98.8796 85.5738 99.6578 82.958 100.43 80.402C102.31 74.1766 104.179 67.9512 106.039 61.7258C116.748 56.6437 122.68 57.4698 129.384 58.2959C136.088 59.1219 143.75 63.0846 146.48 76.2537C149.209 89.4228 151.736 120.31 136.549 124.907Z" fill="#455A64"/>
<path opacity="0.2" d="M136.549 124.907C134.753 120.191 130.324 116.91 125.685 114.905C121.046 112.9 116.023 111.912 111.259 110.224C106.494 108.536 100.628 105.573 97.9338 101.293L98.1553 101.107C99.3834 100.065 100.227 98.6423 100.553 97.065C100.878 95.4877 100.666 93.8468 99.9511 92.4038C99.3238 91.1049 98.9848 89.6857 98.9574 88.2435C98.8796 85.5738 99.6578 82.958 100.43 80.402C102.31 74.1766 104.179 67.9512 106.039 61.7258C116.748 56.6437 122.68 57.4698 129.384 58.2959C136.088 59.1219 143.75 63.0846 146.48 76.2537C149.209 89.4228 151.736 120.31 136.549 124.907Z" fill="white"/>
<path d="M112.043 61.5882C112.243 63.0967 112.442 64.6051 112.642 66.1136C113.677 66.7147 114.831 67.0839 116.023 67.1955C117.215 67.3072 118.418 67.1587 119.547 66.7602C120.676 66.3618 121.705 65.723 122.564 64.8879C123.422 64.0528 124.089 63.0414 124.518 61.9234C123.801 60.6047 123.265 59.1953 122.925 57.7333C119.621 59.2597 115.599 60.8939 112.043 61.5882Z" fill="#FFA8A7"/>
<path opacity="0.2" d="M112.043 61.5883C112.243 63.0968 112.442 64.6052 112.642 66.1137C120.345 64.9165 123.847 62.3904 123.231 58.8887C123.117 58.5235 123.015 58.1464 122.925 57.7693C119.621 59.2598 115.599 60.894 112.043 61.5883Z" fill="black"/>
<path d="M127.39 33.1909C128.185 32.5713 129.131 32.1762 130.13 32.0467C131.129 31.9172 132.145 32.0581 133.071 32.4546C133.99 32.8678 134.809 33.475 135.471 34.2344C136.134 34.9938 136.624 35.8876 136.908 36.8543C137.373 38.3076 137.341 39.8744 136.818 41.3078C136.555 42.02 136.145 42.6695 135.617 43.2147C135.088 43.7599 134.451 44.1889 133.748 44.4744C132.85 44.7816 131.89 44.8588 130.955 44.6988C130.02 44.5388 129.14 44.1467 128.396 43.5585C125.553 41.3737 124.332 35.7409 127.39 33.1909Z" fill="#F5F5F5"/>
<path d="M129.588 40.6554C129.715 39.4569 129.444 38.2497 128.816 37.2207C128.189 36.1917 127.24 35.3981 126.116 34.9628C124.919 37.7762 126.116 41.7808 128.426 43.5586C129.128 44.1068 129.948 44.4837 130.821 44.6593C131.694 44.8349 132.596 44.8044 133.455 44.5702C132.602 42.8967 131.251 41.529 129.588 40.6554Z" fill="#E0E0E0"/>
<path d="M103.124 49.7002C102.476 49.4745 101.913 49.058 101.507 48.5055C101.101 47.9531 100.871 47.2907 100.849 46.6055C100.831 45.2247 101.311 43.8837 102.202 42.8283C101.67 42.2535 101.3 41.5478 101.13 40.7834C100.959 40.0189 100.995 39.2229 101.232 38.4766C101.799 37.0175 102.858 35.8022 104.225 35.0406C105.577 34.2876 107.037 33.7466 108.553 33.4364C112.516 32.4906 116.742 32.1374 120.615 33.4364C124.488 34.7353 127.906 37.854 128.636 41.8586C129.63 42.3946 130.489 43.1494 131.149 44.0661C131.808 44.9828 132.251 46.0374 132.443 47.1502C132.756 49.3935 132.551 51.6786 131.844 53.8305C131.246 55.8598 130.426 57.9129 128.851 59.3017C127.277 60.6904 124.751 61.2112 123.003 60.026C122.069 59.3298 121.402 58.3348 121.112 57.2066C120.826 56.0889 120.672 54.9419 120.651 53.7886C115.7 50.4006 108.864 51.2985 103.124 49.7002Z" fill="#F5F5F5"/>
<path d="M123.883 58.1345C123.899 58.846 123.744 59.5511 123.432 60.1906C123.119 60.83 122.658 61.3853 122.087 61.8099C120.93 62.64 119.646 63.2787 118.286 63.7014C116.5 64.4305 114.642 64.9683 112.743 65.3057C110.827 65.6395 108.855 65.3499 107.116 64.4796C104.997 63.2824 103.644 61.0556 103.022 58.7151C102.399 56.3746 102.423 53.9264 102.423 51.4961C102.383 49.8561 102.504 48.2162 102.782 46.5996C103.069 44.9759 103.817 43.4692 104.937 42.2598C105.063 43.3672 106.512 44.0077 107.619 44.1334C108.738 44.1846 109.851 43.9541 110.857 43.4629C111.857 42.967 112.934 42.6432 114.042 42.5052C116.101 42.3974 118.017 43.7563 119.124 45.4982C120.231 47.2401 120.68 49.3052 121.051 51.3285C121.102 51.837 121.27 52.3268 121.542 52.7591C121.683 52.9713 121.892 53.129 122.135 53.2063C122.378 53.2835 122.639 53.2757 122.877 53.1841C123.242 52.9986 123.404 52.5855 123.619 52.2324C124.535 50.7598 126.834 50.5144 128.157 51.6338C128.792 52.2248 129.203 53.0183 129.319 53.8786C129.435 54.7389 129.248 55.6127 128.791 56.3507C127.875 57.7933 125.595 58.368 123.883 58.1345Z" fill="#FFA8A7"/>
<path d="M110.367 51.7234L106.398 56.1111L109.798 57.4879L110.367 51.7234Z" fill="#F28F8F"/>
<path d="M112.857 59.8942L109.906 60.6604C110.076 61.0112 110.355 61.2973 110.702 61.4755C111.048 61.6537 111.443 61.7142 111.827 61.648C112.546 61.4864 112.911 60.6304 112.857 59.8942Z" fill="#F28F8F"/>
<path opacity="0.3" d="M112.857 59.8942L109.906 60.6604C110.076 61.0112 110.355 61.2973 110.702 61.4755C111.048 61.6537 111.443 61.7142 111.827 61.648C112.546 61.4864 112.911 60.6304 112.857 59.8942Z" fill="black"/>
<path d="M110.875 61.5464C111.175 61.6768 111.507 61.7123 111.827 61.6482C112.101 61.5595 112.343 61.3916 112.522 61.1658C112.701 60.94 112.809 60.6663 112.833 60.3792C112.447 60.2976 112.045 60.3526 111.695 60.5348C111.3 60.7518 111.006 61.115 110.875 61.5464Z" fill="#F28F8F"/>
<path d="M115.449 52.9505C115.429 53.1542 115.349 53.3474 115.22 53.5059C115.09 53.6643 114.916 53.7807 114.721 53.8405C114.525 53.9003 114.316 53.9008 114.12 53.8418C113.924 53.7829 113.75 53.6672 113.619 53.5094C113.489 53.3515 113.409 53.1586 113.388 52.955C113.367 52.7514 113.407 52.5462 113.503 52.3653C113.599 52.1845 113.746 52.0361 113.926 51.9388C114.106 51.8416 114.311 51.8 114.515 51.8191C114.788 51.8464 115.04 51.9806 115.215 52.1925C115.39 52.4044 115.474 52.6768 115.449 52.9505Z" fill="#263238"/>
<path d="M106.841 51.7653C106.82 51.9688 106.739 52.1615 106.608 52.3191C106.478 52.4767 106.303 52.5921 106.107 52.6507C105.911 52.7093 105.702 52.7085 105.507 52.6484C105.311 52.5883 105.138 52.4717 105.008 52.3131C104.879 52.1546 104.799 51.9612 104.78 51.7575C104.76 51.5539 104.802 51.349 104.898 51.1687C104.995 50.9884 105.143 50.8408 105.324 50.7446C105.504 50.6484 105.709 50.6078 105.913 50.628C106.049 50.6414 106.18 50.6816 106.301 50.7461C106.421 50.8106 106.527 50.8982 106.613 51.0039C106.699 51.1096 106.764 51.2312 106.803 51.3619C106.842 51.4926 106.855 51.6297 106.841 51.7653Z" fill="#263238"/>
<path d="M106.242 47.5631L103.806 48.9159C103.734 48.6238 103.752 48.3165 103.859 48.0352C103.966 47.7539 104.156 47.5119 104.405 47.3416C104.701 47.2035 105.03 47.1511 105.355 47.1902C105.68 47.2294 105.987 47.3585 106.242 47.5631Z" fill="#263238"/>
<path d="M115.065 48.3114L117.196 50.1071C117.323 49.8334 117.364 49.5276 117.312 49.2303C117.261 48.933 117.12 48.6584 116.909 48.4431C116.644 48.2523 116.332 48.1389 116.006 48.1157C115.68 48.0924 115.355 48.1602 115.065 48.3114Z" fill="#263238"/>
<path d="M110.223 50.6341C109.804 50.6341 109.289 50.5443 108.87 50.5383C107.771 49.6362 106.494 48.9759 105.122 48.6005C103.75 48.2251 102.315 48.1429 100.909 48.3594L100.718 49.4908L101.316 49.8439L101.544 52.8369C101.58 53.3092 101.747 53.7622 102.026 54.1449C102.305 54.5276 102.685 54.8251 103.124 55.0038L103.944 55.339C104.612 55.6131 105.354 55.6497 106.046 55.4427C106.737 55.2358 107.337 54.7977 107.745 54.2017C108.2 53.56 108.533 52.8395 108.727 52.0767C108.748 51.9636 108.811 51.8626 108.903 51.793C108.995 51.7234 109.109 51.6901 109.224 51.6996L109.702 51.7415C109.809 51.7546 109.909 51.804 109.984 51.8812C110.059 51.9585 110.105 52.0592 110.115 52.1665C110.233 53.2465 110.533 54.2989 111.001 55.2792C111.233 55.7757 111.591 56.2028 112.04 56.5179C112.488 56.833 113.012 57.025 113.557 57.075L114.419 57.1528C115.104 57.2126 115.79 57.0459 116.37 56.6782C116.951 56.3104 117.395 55.7621 117.634 55.1176C118.044 54.0602 118.27 52.9408 118.304 51.8073H118.957L119.082 50.9753C116.981 49.8499 112.073 49.4967 110.223 50.6341ZM107.925 51.8851C107.756 52.5473 107.466 53.1725 107.069 53.7288C106.857 54.0399 106.572 54.2943 106.239 54.4697C105.906 54.645 105.535 54.7359 105.159 54.7345C104.853 54.734 104.551 54.6751 104.267 54.5609L103.453 54.2256C103.157 54.1053 102.901 53.9049 102.713 53.6469C102.524 53.3889 102.412 53.0835 102.388 52.7651C102.388 52.7651 102.1 49.2094 102.076 49.0717H102.453C104.511 49.022 106.519 49.7076 108.116 51.0052C108.078 51.3035 108.014 51.598 107.925 51.8851ZM116.862 54.8302C116.698 55.2683 116.404 55.646 116.02 55.9133C115.637 56.1806 115.18 56.3248 114.713 56.3267H114.503L113.641 56.2489C113.242 56.2096 112.86 56.0669 112.532 55.8349C112.205 55.603 111.943 55.2897 111.774 54.926C111.34 54.0346 111.064 53.0745 110.959 52.0887C110.959 51.8073 110.876 51.6038 110.864 51.2446C111.798 50.8922 112.794 50.7333 113.791 50.7777C115.031 50.7746 116.267 50.9336 117.466 51.2506V51.8492C117.432 52.8696 117.228 53.8771 116.862 54.8302Z" fill="#37474F"/>
<path d="M119.094 50.9513L123.943 51.7893C123.772 52.0024 123.616 52.2263 123.476 52.4598L118.968 51.7833L119.094 50.9513Z" fill="#37474F"/>
<path d="M166.634 89.9316L127.199 120.46C125.997 121.391 124.998 122.559 124.265 123.891C123.532 125.223 123.08 126.692 122.937 128.206L118.513 174.561C118.757 174.789 119.069 174.929 119.401 174.958C119.733 174.987 120.066 174.904 120.345 174.723L128.205 128.2C128.338 127.406 128.642 126.651 129.095 125.986C129.549 125.322 130.142 124.764 130.833 124.351L165.683 103.466C170.232 100.754 171.034 91.1528 166.634 89.9316Z" fill="#455A64"/>
<path opacity="0.3" d="M166.634 89.9316L127.199 120.46C125.997 121.391 124.998 122.559 124.265 123.891C123.532 125.223 123.08 126.692 122.937 128.206L118.513 174.561C118.757 174.789 119.069 174.929 119.401 174.958C119.733 174.987 120.066 174.904 120.345 174.723L128.205 128.2C128.338 127.406 128.642 126.651 129.095 125.986C129.549 125.322 130.142 124.764 130.833 124.351L165.683 103.466C170.232 100.754 171.034 91.1528 166.634 89.9316Z" fill="white"/>
<path d="M118.555 82.617C118.722 82.5215 118.858 82.3814 118.95 82.2125C119.041 82.0435 119.083 81.8524 119.071 81.6608C119.059 81.4692 118.994 81.2847 118.883 81.1281C118.772 80.9715 118.62 80.8491 118.443 80.7746C118.266 80.7002 118.071 80.6767 117.882 80.7068C117.692 80.737 117.515 80.8195 117.37 80.9451C117.225 81.0708 117.117 81.2345 117.06 81.4178C117.003 81.6011 116.999 81.7967 117.047 81.9825L98.688 92.6315L98.9633 93.1103L117.328 82.4613C117.488 82.6167 117.695 82.7159 117.916 82.744C118.137 82.7721 118.362 82.7275 118.555 82.617Z" fill="#E0E0E0"/>
<path d="M87.8292 73.6141C87.7793 73.4891 87.7545 73.3555 87.7562 73.2209C87.7579 73.0863 87.7861 72.9534 87.8392 72.8297C87.8923 72.7061 87.9692 72.5941 88.0656 72.5001C88.1619 72.4062 88.2759 72.3321 88.4009 72.2822C88.5258 72.2323 88.6594 72.2075 88.794 72.2092C88.9286 72.2109 89.0615 72.2391 89.1852 72.2922C89.3089 72.3453 89.4209 72.4222 89.5148 72.5186C89.6088 72.6149 89.6828 72.7289 89.7327 72.8539C89.8187 73.0616 89.833 73.2921 89.7734 73.5089C89.7138 73.7257 89.5836 73.9165 89.4035 74.051L97.3109 93.7508L96.7902 93.9543L88.8827 74.2486C88.6621 74.2712 88.44 74.2216 88.25 74.1072C88.06 73.9928 87.9124 73.8197 87.8292 73.6141Z" fill="#E0E0E0"/>
<path d="M87.6199 91.3982C88.4062 95.3302 88.302 99.3884 87.3149 103.275C86.3277 107.161 84.4827 110.777 81.9153 113.857L102.597 125.775C110.043 114.504 109.139 95.7141 109.139 95.7141L93.7555 86.5436L87.6199 91.3982Z" fill="#455A64"/>
<path opacity="0.6" d="M87.6199 91.3982C88.4062 95.3302 88.302 99.3884 87.3149 103.275C86.3277 107.161 84.4827 110.777 81.9153 113.857L102.597 125.775C110.043 114.504 109.139 95.7141 109.139 95.7141L93.7555 86.5436L87.6199 91.3982Z" fill="white"/>
<path d="M82.2986 113.349L102.914 125.249C103.064 125.009 103.213 124.764 103.357 124.518L82.8373 112.666C82.6877 112.9 82.5021 113.121 82.2986 113.349Z" fill="#299BFE"/>
<path d="M99.8671 120.149L97.9397 116.39L95.9942 117.91L94.0608 114.151L92.1153 115.671L90.1819 111.912L88.2364 113.433L86.309 109.679L84.3635 111.194L84.142 110.769C83.9984 111.002 83.8607 111.236 83.7051 111.463L84.3575 112.732L86.303 111.212L88.2364 114.971L90.1819 113.451L92.1093 117.21L94.0548 115.689L95.9882 119.443L97.9337 117.922L99.8611 121.681L101.807 120.161L103.728 123.902C103.866 123.651 103.997 123.393 104.129 123.136L101.813 118.628L99.8671 120.149Z" fill="#299BFE"/>
<path d="M85.2913 108.77L105.38 120.388C105.488 120.119 105.59 119.849 105.691 119.58L85.6325 107.997C85.5127 108.255 85.393 108.512 85.2913 108.77Z" fill="#299BFE"/>
<path d="M102.465 115.372L100.532 111.613L98.5862 113.133L96.6647 109.374L94.7193 110.894L92.7858 107.135L90.8404 108.656L88.883 104.896L86.9376 106.417L86.5544 105.675C86.4467 105.974 86.339 106.273 86.2192 106.567L86.9316 107.955L88.877 106.435L90.8045 110.194L92.7499 108.674L94.6834 112.427L96.6288 110.906L98.5623 114.666L100.508 113.145L102.435 116.904L104.381 115.384L106.027 118.586C106.134 118.275 106.236 117.988 106.338 117.653L104.387 113.851L102.465 115.372Z" fill="#299BFE"/>
<path d="M87.321 103.251L107.194 114.726C107.266 114.432 107.338 114.127 107.404 113.858L87.5186 102.377C87.4527 102.67 87.3929 102.963 87.321 103.251Z" fill="#299BFE"/>
<path d="M104.806 110.015L102.872 106.255L100.927 107.776L98.9994 104.017L97.0539 105.537L95.1205 101.784L93.1751 103.304L91.2775 99.5451L89.3321 101.066L88.099 98.6711C88.099 99.1021 88.0212 99.5331 87.9673 99.9581L89.3261 102.604L91.2715 101.083L93.205 104.843L95.1504 103.322L97.0779 107.081L99.0233 105.561L100.957 109.32L102.902 107.8L104.83 111.553L106.775 110.038L107.823 112.074C107.9 111.697 107.972 111.319 108.038 110.948L106.781 108.5L104.806 110.015Z" fill="#299BFE"/>
<path d="M88.1406 96.9352L108.385 108.62C108.433 108.314 108.475 108.021 108.517 107.704L88.1646 95.9415C88.1526 96.2708 88.1466 96.6 88.1406 96.9352Z" fill="#299BFE"/>
<path d="M105.853 103.831L103.926 100.072L101.98 101.592L100.047 97.8332L98.1016 99.3536L96.1741 95.5944L94.2227 97.1149L92.2952 93.3557L90.3498 94.8761L88.4163 91.1169L87.6741 91.7155C87.7639 92.1645 87.8417 92.6134 87.9015 93.0683L88.4163 92.6673L90.3438 96.4265L92.2892 94.906L94.2227 98.6592L96.1681 97.1388L98.0956 100.898L100.041 99.3775L101.975 103.137L103.92 101.616L105.847 105.375L107.793 103.855L108.751 105.717C108.798 105.274 108.84 104.837 108.876 104.412L107.799 102.323L105.853 103.831Z" fill="#299BFE"/>
<path d="M89.8107 89.6683L89.0864 90.2669L109.062 101.802C109.062 101.467 109.062 101.149 109.103 100.838L89.8107 89.6683Z" fill="#299BFE"/>
<path d="M93.1688 88.1657L95.1022 91.9249L97.0477 90.4045L98.9751 94.1637L100.921 92.6432L102.854 96.3964L104.799 94.876L106.727 98.6352L108.672 97.1147L109.169 98.0844C109.169 97.4439 109.169 96.9172 109.169 96.5221L108.684 95.5823L106.739 97.1028L104.805 93.3436L102.86 94.864L100.933 91.1048L98.9871 92.6253L97.0536 88.8661L95.1082 90.3865L93.3124 86.9087L90.8103 88.884L91.2233 89.6862L93.1688 88.1657Z" fill="#299BFE"/>
<g opacity="0.5">
<path opacity="0.5" d="M82.2986 113.349L102.914 125.249C103.064 125.009 103.213 124.764 103.357 124.518L82.8373 112.666C82.6877 112.9 82.5021 113.121 82.2986 113.349Z" fill="black"/>
<path opacity="0.5" d="M99.8671 120.149L97.9397 116.39L95.9942 117.91L94.0608 114.151L92.1153 115.671L90.1819 111.912L88.2364 113.433L86.309 109.679L84.3635 111.194L84.142 110.769C83.9984 111.002 83.8607 111.236 83.7051 111.463L84.3575 112.732L86.303 111.212L88.2364 114.971L90.1819 113.451L92.1093 117.21L94.0548 115.689L95.9882 119.443L97.9337 117.922L99.8611 121.681L101.807 120.161L103.728 123.902C103.866 123.651 103.997 123.393 104.129 123.136L101.813 118.628L99.8671 120.149Z" fill="black"/>
<path opacity="0.5" d="M85.2913 108.77L105.38 120.388C105.488 120.119 105.59 119.849 105.691 119.58L85.6325 107.997C85.5127 108.255 85.393 108.512 85.2913 108.77Z" fill="black"/>
<path opacity="0.5" d="M102.465 115.372L100.532 111.613L98.5862 113.133L96.6647 109.374L94.7193 110.894L92.7858 107.135L90.8404 108.656L88.883 104.896L86.9376 106.417L86.5544 105.675C86.4467 105.974 86.339 106.273 86.2192 106.567L86.9316 107.955L88.877 106.435L90.8045 110.194L92.7499 108.674L94.6834 112.427L96.6288 110.906L98.5623 114.666L100.508 113.145L102.435 116.904L104.381 115.384L106.027 118.586C106.134 118.275 106.236 117.988 106.338 117.653L104.387 113.851L102.465 115.372Z" fill="black"/>
<path opacity="0.5" d="M87.3208 103.251L107.194 114.726C107.266 114.432 107.338 114.127 107.404 113.858L87.5183 102.377C87.4525 102.67 87.3926 102.963 87.3208 103.251Z" fill="black"/>
<path opacity="0.5" d="M104.806 110.015L102.872 106.255L100.927 107.776L98.9991 104.017L97.0537 105.537L95.1202 101.784L93.1748 103.304L91.2773 99.5452L89.3318 101.066L88.0987 98.6713C88.0987 99.1023 88.0209 99.5332 87.967 99.9582L89.3259 102.604L91.2713 101.084L93.2047 104.843L95.1502 103.322L97.0777 107.082L99.0231 105.561L100.957 109.32L102.902 107.8L104.829 111.553L106.775 110.039L107.822 112.074C107.9 111.697 107.972 111.32 108.038 110.948L106.781 108.5L104.806 110.015Z" fill="black"/>
<path opacity="0.5" d="M88.1406 96.9352L108.385 108.62C108.433 108.314 108.475 108.021 108.517 107.704L88.1646 95.9415C88.1526 96.2708 88.1466 96.6 88.1406 96.9352Z" fill="black"/>
<path opacity="0.5" d="M105.853 103.831L103.926 100.072L101.98 101.592L100.047 97.8333L98.1016 99.3537L96.1741 95.5945L94.2227 97.115L92.2952 93.3558L90.3498 94.8762L88.4163 91.1171L87.6741 91.7157C87.7639 92.1646 87.8417 92.6135 87.9015 93.0685L88.4163 92.6674L90.3438 96.4266L92.2892 94.9062L94.2227 98.6594L96.1681 97.1389L98.0956 100.898L100.041 99.3777L101.975 103.137L103.92 101.616L105.847 105.376L107.793 103.855L108.751 105.717C108.798 105.274 108.84 104.837 108.876 104.412L107.799 102.323L105.853 103.831Z" fill="black"/>
<path opacity="0.5" d="M89.8107 89.6683L89.0864 90.2669L109.062 101.802C109.062 101.467 109.062 101.149 109.103 100.838L89.8107 89.6683Z" fill="black"/>
<path opacity="0.5" d="M93.1688 88.1657L95.1022 91.9249L97.0477 90.4045L98.9751 94.1637L100.921 92.6432L102.854 96.3964L104.799 94.876L106.727 98.6352L108.672 97.1147L109.169 98.0844C109.169 97.4439 109.169 96.9172 109.169 96.5221L108.684 95.5823L106.739 97.1028L104.805 93.3436L102.86 94.864L100.933 91.1048L98.9871 92.6253L97.0536 88.8661L95.1082 90.3865L93.3124 86.9087L90.8103 88.884L91.2233 89.6862L93.1688 88.1657Z" fill="black"/>
</g>
<path d="M94.9827 89.794L93.6598 85.1848C93.6086 84.9866 93.5091 84.804 93.3702 84.6536C93.2313 84.5032 93.0572 84.3896 92.8636 84.3229L92.6781 84.263C92.4934 84.1984 92.2959 84.1787 92.1021 84.2055C91.9082 84.2323 91.7236 84.3048 91.5633 84.4171C91.403 84.5294 91.2718 84.6782 91.1805 84.8513C91.0891 85.0243 91.0402 85.2166 91.0379 85.4123L89.9844 85.0471C89.651 84.9329 89.2896 84.9294 88.9542 85.0373C88.6187 85.1451 88.327 85.3586 88.1228 85.6457L87.7636 86.1426L86.7041 86.0708C86.3865 86.0501 86.0698 86.1231 85.7932 86.2805C85.5166 86.438 85.2922 86.673 85.1477 86.9567L84.7826 87.669C84.3674 87.6651 83.9665 87.8206 83.6625 88.1035C83.3584 88.3863 83.1745 88.775 83.1484 89.1894V89.2613L85.3632 93.1042C85.5679 93.4617 85.8978 93.7306 86.2892 93.8588C86.6807 93.9871 87.1058 93.9656 87.4823 93.7986L91.5587 92.0028C91.9074 91.8491 92.1927 91.5803 92.367 91.2415C92.5413 90.9027 92.5941 90.5143 92.5165 90.1412L92.301 89.0757L92.8457 90.5243C92.9563 90.7852 93.1608 90.9952 93.4188 91.1125C93.6767 91.2299 93.9694 91.2462 94.2388 91.1581C94.5081 91.0701 94.7347 90.8842 94.8735 90.6371C95.0124 90.39 95.0535 90.0998 94.9886 89.8239L94.9827 89.794Z" fill="#FFA8A7"/>
<path d="M117.215 93.5533C113.623 98.1984 117.742 102.023 118.149 102.287C124.069 98.4079 119.633 94.0502 117.215 93.5533Z" fill="#37474F"/>
<path d="M118.424 93.8106L114.024 92.8528L109.834 89.0817C109.462 88.7477 109.008 88.5198 108.518 88.4219C108.029 88.3239 107.521 88.3595 107.05 88.525L102.86 89.9975C102.435 90.1471 102.053 90.3977 101.747 90.7278L99.4062 93.2419C99.2212 93.4329 99.1177 93.6883 99.1177 93.9542C99.1177 94.2201 99.2212 94.4756 99.4062 94.6666C99.5912 94.8543 99.8418 94.963 100.105 94.9697C100.369 94.9764 100.625 94.8806 100.819 94.7025L102.256 93.4095L100.825 95.3909C100.615 95.6835 100.505 96.0356 100.511 96.3955C100.516 96.7553 100.637 97.104 100.855 97.3902L102.788 99.8983C102.941 100.097 103.137 100.259 103.361 100.372C103.585 100.485 103.831 100.546 104.082 100.55C104.332 100.555 104.581 100.503 104.809 100.398C105.037 100.294 105.238 100.139 105.398 99.9462L106.045 99.168C106.521 98.5875 107.14 98.14 107.84 97.869L108.577 97.5877C109.272 98.2877 110.144 98.7864 111.1 99.0309C112.056 99.2755 113.06 99.2566 114.006 98.9765L118.795 100.772C121.77 96.7317 118.424 93.8106 118.424 93.8106Z" fill="#FFA8A7"/>
<path d="M135.173 93.7748L132.18 76.2838C130.468 66.437 133.886 59.8045 137.705 60.9119C141.524 62.0193 144.337 61.5105 146.247 77.074C147.097 83.9997 147.785 90.7519 148.294 96.1153C148.422 97.4901 148.248 98.8763 147.784 100.177C147.32 101.477 146.577 102.661 145.608 103.644C144.638 104.627 143.466 105.386 142.172 105.868C140.878 106.351 139.494 106.544 138.118 106.435L127.511 105.567C124.324 105.311 121.251 104.269 118.568 102.532L118.161 102.269C120.555 96.7259 117.227 93.5354 117.227 93.5354C119.456 92.3554 122.001 91.9072 124.5 92.2543L135.173 93.7748Z" fill="#455A64"/>
</svg>
