<svg width="230" height="230" viewBox="0 0 230 230" fill="none" xmlns="http://www.w3.org/2000/svg">
<rect width="230" height="230" rx="32" fill="#009A66"/>
<path d="M118.87 202.497C174.027 202.497 218.741 198.133 218.741 192.749C218.741 187.365 174.027 183 118.87 183C63.7134 183 19 187.365 19 192.749C19 198.133 63.7134 202.497 118.87 202.497Z" fill="#F5F5F5"/>
<path d="M83.0142 181.42C80.5423 181.42 78.5229 183.885 78.5229 186.92C78.5229 189.956 80.5423 192.415 83.0142 192.415C85.486 192.415 87.5054 189.95 87.5054 186.92C87.5054 183.891 85.4925 181.42 83.0142 181.42Z" fill="#2E353A"/>
<path d="M83.0142 190.455C81.6505 190.455 80.49 188.835 80.49 186.921C80.49 185.006 81.6505 183.387 83.0142 183.387C84.378 183.387 85.5385 185 85.5385 186.921C85.5385 188.842 84.4108 190.455 83.0142 190.455Z" fill="#407BFF"/>
<path d="M82.3982 187.183V180.967H86.8501L84.516 187.524C84.44 187.736 84.3002 187.919 84.1159 188.048C83.9315 188.177 83.7117 188.246 83.4866 188.245C83.2024 188.245 82.9295 188.134 82.7261 187.935C82.5227 187.737 82.405 187.467 82.3982 187.183Z" fill="#2E353A"/>
<path opacity="0.3" d="M82.3982 187.183V180.967H86.8501L84.516 187.524C84.44 187.736 84.3002 187.919 84.1159 188.048C83.9315 188.177 83.7117 188.246 83.4866 188.245C83.2024 188.245 82.9295 188.134 82.7261 187.935C82.5227 187.737 82.405 187.467 82.3982 187.183Z" fill="white"/>
<path d="M98.8355 119.625H96.2129V110.059C96.2129 108.883 96.6799 107.756 97.5111 106.925C98.3423 106.093 99.4696 105.626 100.645 105.626H147.295V108.249H100.658C100.179 108.251 99.7195 108.442 99.3805 108.781C99.0415 109.12 98.8503 109.579 98.8486 110.059L98.8355 119.625Z" fill="#263238"/>
<path d="M124.307 192.415C110.296 192.415 98.8943 178.443 98.8943 161.272C98.8943 144.1 110.296 130.122 124.307 130.122C138.319 130.122 149.727 144.094 149.727 161.272C149.727 178.45 138.325 192.415 124.307 192.415ZM124.307 133.407C112.099 133.407 102.173 145.91 102.173 161.278C102.173 176.647 112.099 189.143 124.307 189.143C136.516 189.143 146.449 176.647 146.449 161.278C146.449 145.91 136.516 133.4 124.307 133.4V133.407Z" fill="#2E353A"/>
<path d="M124.307 133.072C111.922 133.072 101.845 145.726 101.845 161.265C101.845 176.804 111.922 189.458 124.307 189.458C136.693 189.458 146.776 176.811 146.776 161.265C146.776 145.72 136.699 133.072 124.307 133.072ZM128.943 156.413L137.958 144.874C139.408 146.971 140.546 149.268 141.335 151.693L129.651 157.77C129.455 157.298 129.218 156.844 128.943 156.413ZM124.963 153.6V137.032C127.098 137.136 129.185 137.702 131.08 138.691L126.058 153.896C125.706 153.754 125.338 153.655 124.963 153.6ZM123.652 153.6C123.31 153.655 122.974 153.743 122.649 153.863L117.797 138.56C119.621 137.648 121.615 137.128 123.652 137.032V153.6ZM119.062 157.672L107.418 151.378C108.201 149.067 109.304 146.878 110.696 144.874L119.711 156.413C119.451 156.813 119.225 157.234 119.036 157.672H119.062ZM118.649 158.937C118.516 159.489 118.431 160.05 118.393 160.616H105.785C105.833 157.91 106.239 155.223 106.992 152.624L118.649 158.937ZM118.393 161.927C118.428 162.455 118.505 162.979 118.623 163.494L106.919 169.572C106.233 167.08 105.861 164.512 105.811 161.927H118.393ZM119.049 164.766C119.225 165.24 119.445 165.696 119.705 166.13L110.637 177.669C109.183 175.575 108.045 173.277 107.26 170.851L119.049 164.766ZM123.704 168.936V185.511C121.571 185.408 119.486 184.842 117.593 183.852L122.616 168.648C122.949 168.783 123.297 168.879 123.652 168.936H123.704ZM125.015 168.936C125.36 168.887 125.699 168.802 126.025 168.68L130.877 183.983C129.051 184.895 127.054 185.415 125.015 185.511V168.936ZM129.638 164.871L141.276 171.165C140.493 173.476 139.389 175.666 137.997 177.669L128.982 166.13C129.218 165.728 129.42 165.307 129.585 164.871H129.638ZM130.051 163.599C130.185 163.051 130.269 162.491 130.3 161.927H142.829C142.782 164.624 142.378 167.302 141.63 169.893L130.051 163.599ZM130.3 160.616C130.268 160.086 130.191 159.559 130.071 159.042L141.78 152.971C142.465 155.463 142.835 158.032 142.882 160.616H130.3ZM137.191 143.785L128.169 155.331C127.896 155.041 127.597 154.776 127.277 154.538L132.273 139.347C134.135 140.54 135.78 142.041 137.138 143.785H137.191ZM116.676 139.196L121.521 154.479C121.17 154.728 120.845 155.011 120.55 155.325L111.529 143.779C112.942 141.963 114.667 140.413 116.623 139.202L116.676 139.196ZM111.529 178.745L120.472 167.212C120.747 167.5 121.048 167.764 121.37 167.999L116.348 183.197C114.484 182.001 112.837 180.498 111.476 178.751L111.529 178.745ZM132.051 183.334L127.199 168.051C127.551 167.804 127.876 167.52 128.169 167.205L137.191 178.745C135.752 180.578 133.993 182.135 131.998 183.341L132.051 183.334Z" fill="#407BFF"/>
<g opacity="0.2">
<path d="M124.307 133.072C111.922 133.072 101.845 145.726 101.845 161.265C101.845 176.804 111.922 189.458 124.307 189.458C136.693 189.458 146.776 176.811 146.776 161.265C146.776 145.72 136.699 133.072 124.307 133.072ZM128.943 156.413L137.958 144.874C139.408 146.971 140.546 149.268 141.335 151.693L129.651 157.77C129.455 157.298 129.218 156.844 128.943 156.413ZM124.963 153.6V137.032C127.098 137.136 129.185 137.702 131.08 138.691L126.058 153.896C125.706 153.754 125.338 153.655 124.963 153.6ZM123.652 153.6C123.31 153.655 122.974 153.743 122.649 153.863L117.797 138.56C119.621 137.648 121.615 137.128 123.652 137.032V153.6ZM119.062 157.672L107.418 151.378C108.201 149.067 109.304 146.878 110.696 144.874L119.711 156.413C119.451 156.813 119.225 157.234 119.036 157.672H119.062ZM118.649 158.937C118.516 159.489 118.431 160.05 118.393 160.616H105.785C105.833 157.91 106.239 155.223 106.992 152.624L118.649 158.937ZM118.393 161.927C118.428 162.455 118.505 162.979 118.623 163.494L106.919 169.572C106.233 167.08 105.861 164.512 105.811 161.927H118.393ZM119.049 164.766C119.225 165.24 119.445 165.696 119.705 166.13L110.637 177.669C109.183 175.575 108.045 173.277 107.26 170.851L119.049 164.766ZM123.704 168.936V185.511C121.571 185.408 119.486 184.842 117.593 183.852L122.616 168.648C122.949 168.783 123.297 168.879 123.652 168.936H123.704ZM125.015 168.936C125.36 168.887 125.699 168.802 126.025 168.68L130.877 183.983C129.051 184.895 127.054 185.415 125.015 185.511V168.936ZM129.638 164.871L141.276 171.165C140.493 173.476 139.389 175.666 137.997 177.669L128.982 166.13C129.218 165.728 129.42 165.307 129.585 164.871H129.638ZM130.051 163.599C130.185 163.051 130.269 162.491 130.3 161.927H142.829C142.782 164.624 142.378 167.302 141.63 169.893L130.051 163.599ZM130.3 160.616C130.268 160.086 130.191 159.559 130.071 159.042L141.78 152.971C142.465 155.463 142.835 158.032 142.882 160.616H130.3ZM137.191 143.785L128.169 155.331C127.896 155.041 127.597 154.776 127.277 154.538L132.273 139.347C134.135 140.54 135.78 142.041 137.138 143.785H137.191ZM116.676 139.196L121.521 154.479C121.17 154.728 120.845 155.011 120.55 155.325L111.529 143.779C112.942 141.963 114.667 140.413 116.623 139.202L116.676 139.196ZM111.529 178.745L120.472 167.212C120.747 167.5 121.048 167.764 121.37 167.999L116.348 183.197C114.484 182.001 112.837 180.498 111.476 178.751L111.529 178.745ZM132.051 183.334L127.199 168.051C127.551 167.804 127.876 167.52 128.169 167.205L137.191 178.745C135.752 180.578 133.993 182.135 131.998 183.341L132.051 183.334Z" fill="black"/>
</g>
<path d="M141.394 130.535H96.2128C94.7765 130.535 93.399 131.105 92.3833 132.121C91.3677 133.137 90.7971 134.514 90.7971 135.95V178.286C90.7971 178.929 90.5415 179.546 90.0866 180.001C89.6316 180.456 89.0146 180.712 88.3712 180.712H78.4512C78.1034 180.712 77.7699 180.85 77.524 181.096C77.278 181.342 77.1399 181.675 77.1399 182.023C77.1399 182.371 77.278 182.704 77.524 182.95C77.7699 183.196 78.1034 183.334 78.4512 183.334H88.3778C89.7162 183.333 90.9993 182.8 91.9457 181.854C92.8921 180.907 93.4245 179.624 93.4263 178.286V162.583H141.394C141.741 162.583 142.075 162.445 142.321 162.199C142.567 161.953 142.705 161.619 142.705 161.272V131.846C142.705 131.498 142.567 131.165 142.321 130.919C142.075 130.673 141.741 130.535 141.394 130.535ZM140.082 159.96H93.4263V135.95C93.4263 135.21 93.7205 134.499 94.2443 133.975C94.7681 133.452 95.4786 133.157 96.2193 133.157H140.082V159.96Z" fill="#2E353A"/>
<path opacity="0.3" d="M141.394 130.535H96.2128C94.7765 130.535 93.399 131.105 92.3833 132.121C91.3677 133.137 90.7971 134.514 90.7971 135.95V178.286C90.7971 178.929 90.5415 179.546 90.0866 180.001C89.6316 180.456 89.0146 180.712 88.3712 180.712H78.4512C78.1034 180.712 77.7699 180.85 77.524 181.096C77.278 181.342 77.1399 181.675 77.1399 182.023C77.1399 182.371 77.278 182.704 77.524 182.95C77.7699 183.196 78.1034 183.334 78.4512 183.334H88.3778C89.7162 183.333 90.9993 182.8 91.9457 181.854C92.8921 180.907 93.4245 179.624 93.4263 178.286V162.583H141.394C141.741 162.583 142.075 162.445 142.321 162.199C142.567 161.953 142.705 161.619 142.705 161.272V131.846C142.705 131.498 142.567 131.165 142.321 130.919C142.075 130.673 141.741 130.535 141.394 130.535ZM140.082 159.96H93.4263V135.95C93.4263 135.21 93.7205 134.499 94.2443 133.975C94.7681 133.452 95.4786 133.157 96.2193 133.157H140.082V159.96Z" fill="white"/>
<path d="M144.423 73.6504V115.907H93.9376C92.6299 115.907 91.3758 116.427 90.4512 117.351C89.5265 118.276 89.0071 119.53 89.0071 120.838V142.723H141.761C142.544 142.724 143.32 142.571 144.044 142.271C144.767 141.972 145.425 141.533 145.979 140.98C146.533 140.426 146.973 139.769 147.273 139.046C147.573 138.322 147.727 137.547 147.727 136.763V73.6504H144.423Z" fill="#2E353A"/>
<path opacity="0.3" d="M144.423 73.6504V115.907H93.9376C92.6299 115.907 91.3758 116.427 90.4512 117.351C89.5265 118.276 89.0071 119.53 89.0071 120.838V142.723H141.761C142.544 142.724 143.32 142.571 144.044 142.271C144.767 141.972 145.425 141.533 145.979 140.98C146.533 140.426 146.973 139.769 147.273 139.046C147.573 138.322 147.727 137.547 147.727 136.763V73.6504H144.423Z" fill="white"/>
<path d="M93.3801 131.761H163.089V141.359H88.4037V136.77C88.3993 136.114 88.5249 135.463 88.773 134.855C89.0212 134.248 89.3871 133.695 89.8496 133.23C90.3121 132.764 90.8622 132.395 91.4681 132.143C92.074 131.891 92.7238 131.761 93.3801 131.761Z" fill="#263238"/>
<path d="M168.039 139.996H88.3447C88.1656 139.996 87.9883 140.031 87.8228 140.099C87.6574 140.168 87.507 140.268 87.3804 140.395C87.2538 140.522 87.1533 140.672 87.0848 140.837C87.0162 141.003 86.981 141.18 86.981 141.359C86.981 141.538 87.0162 141.716 87.0848 141.881C87.1533 142.047 87.2538 142.197 87.3804 142.324C87.507 142.45 87.6574 142.551 87.8228 142.619C87.9883 142.688 88.1656 142.723 88.3447 142.723H168.039C168.391 142.722 168.73 142.585 168.984 142.341C169.238 142.096 169.388 141.764 169.403 141.412C169.41 141.228 169.38 141.045 169.315 140.874C169.249 140.702 169.15 140.546 169.022 140.413C168.895 140.281 168.742 140.176 168.573 140.104C168.404 140.032 168.223 139.995 168.039 139.996Z" fill="#2E353A"/>
<path opacity="0.3" d="M168.039 139.996H88.3447C88.1656 139.996 87.9883 140.031 87.8228 140.099C87.6574 140.168 87.507 140.268 87.3804 140.395C87.2538 140.522 87.1533 140.672 87.0848 140.837C87.0162 141.003 86.981 141.18 86.981 141.359C86.981 141.538 87.0162 141.716 87.0848 141.881C87.1533 142.047 87.2538 142.197 87.3804 142.324C87.507 142.45 87.6574 142.551 87.8228 142.619C87.9883 142.688 88.1656 142.723 88.3447 142.723H168.039C168.391 142.722 168.73 142.585 168.984 142.341C169.238 142.096 169.388 141.764 169.403 141.412C169.41 141.228 169.38 141.045 169.315 140.874C169.249 140.702 169.15 140.546 169.022 140.413C168.895 140.281 168.742 140.176 168.573 140.104C168.404 140.032 168.223 139.995 168.039 139.996Z" fill="white"/>
<path d="M145.596 74.896H173.579V131.341C173.579 133.636 172.668 135.838 171.045 137.461C169.421 139.084 167.22 139.996 164.925 139.996H145.596V74.896Z" fill="#263238"/>
<path d="M87.971 178.502H65.2395C64.3415 178.502 63.6135 179.23 63.6135 180.128V181.046C63.6135 181.944 64.3415 182.672 65.2395 182.672H87.971C88.869 182.672 89.597 181.944 89.597 181.046V180.128C89.597 179.23 88.869 178.502 87.971 178.502Z" fill="#2E353A"/>
<path opacity="0.2" d="M87.971 178.502H65.2395C64.3415 178.502 63.6135 179.23 63.6135 180.128V181.046C63.6135 181.944 64.3415 182.672 65.2395 182.672H87.971C88.869 182.672 89.597 181.944 89.597 181.046V180.128C89.597 179.23 88.869 178.502 87.971 178.502Z" fill="white"/>
<path d="M167.915 160.347L142.534 151.312L167.915 142.284C168.045 142.248 168.167 142.186 168.272 142.101C168.377 142.016 168.464 141.91 168.526 141.79C168.589 141.671 168.626 141.539 168.635 141.404C168.645 141.269 168.626 141.134 168.581 141.007C168.536 140.879 168.465 140.763 168.373 140.664C168.28 140.565 168.169 140.486 168.045 140.433C167.921 140.379 167.787 140.352 167.652 140.352C167.516 140.352 167.383 140.381 167.259 140.435L139.604 150.27L111.955 140.435C111.831 140.381 111.697 140.352 111.562 140.352C111.427 140.352 111.293 140.379 111.169 140.433C111.045 140.486 110.933 140.565 110.841 140.664C110.749 140.763 110.678 140.879 110.633 141.007C110.588 141.134 110.569 141.269 110.579 141.404C110.588 141.539 110.625 141.671 110.688 141.79C110.75 141.91 110.837 142.016 110.942 142.101C111.047 142.186 111.169 142.248 111.299 142.284L136.666 151.312L111.293 160.347C111.162 160.383 111.041 160.445 110.936 160.53C110.83 160.615 110.744 160.72 110.681 160.84C110.619 160.96 110.581 161.092 110.572 161.226C110.563 161.361 110.581 161.497 110.626 161.624C110.671 161.751 110.742 161.868 110.835 161.967C110.927 162.066 111.039 162.144 111.163 162.198C111.287 162.252 111.42 162.279 111.556 162.279C111.691 162.278 111.825 162.25 111.948 162.196L139.597 152.361L167.252 162.196C167.376 162.25 167.51 162.278 167.645 162.279C167.78 162.279 167.914 162.252 168.038 162.198C168.162 162.144 168.274 162.066 168.366 161.967C168.458 161.868 168.529 161.751 168.575 161.624C168.62 161.497 168.638 161.361 168.629 161.226C168.619 161.092 168.582 160.96 168.52 160.84C168.457 160.72 168.37 160.615 168.265 160.53C168.16 160.445 168.038 160.383 167.908 160.347H167.915Z" fill="#2E353A"/>
<path opacity="0.3" d="M167.915 160.347L142.534 151.312L167.915 142.284C168.045 142.248 168.167 142.186 168.272 142.101C168.377 142.016 168.464 141.91 168.526 141.79C168.589 141.671 168.626 141.539 168.635 141.404C168.645 141.269 168.626 141.134 168.581 141.007C168.536 140.879 168.465 140.763 168.373 140.664C168.28 140.565 168.169 140.486 168.045 140.433C167.921 140.379 167.787 140.352 167.652 140.352C167.516 140.352 167.383 140.381 167.259 140.435L139.604 150.27L111.955 140.435C111.831 140.381 111.697 140.352 111.562 140.352C111.427 140.352 111.293 140.379 111.169 140.433C111.045 140.486 110.933 140.565 110.841 140.664C110.749 140.763 110.678 140.879 110.633 141.007C110.588 141.134 110.569 141.269 110.579 141.404C110.588 141.539 110.625 141.671 110.688 141.79C110.75 141.91 110.837 142.016 110.942 142.101C111.047 142.186 111.169 142.248 111.299 142.284L136.666 151.312L111.293 160.347C111.162 160.383 111.041 160.445 110.936 160.53C110.83 160.615 110.744 160.72 110.681 160.84C110.619 160.96 110.581 161.092 110.572 161.226C110.563 161.361 110.581 161.497 110.626 161.624C110.671 161.751 110.742 161.868 110.835 161.967C110.927 162.066 111.039 162.144 111.163 162.198C111.287 162.252 111.42 162.279 111.556 162.279C111.691 162.278 111.825 162.25 111.948 162.196L139.597 152.361L167.252 162.196C167.376 162.25 167.51 162.278 167.645 162.279C167.78 162.279 167.914 162.252 168.038 162.198C168.162 162.144 168.274 162.066 168.366 161.967C168.458 161.868 168.529 161.751 168.575 161.624C168.62 161.497 168.638 161.361 168.629 161.226C168.619 161.092 168.582 160.96 168.52 160.84C168.457 160.72 168.37 160.615 168.265 160.53C168.16 160.445 168.038 160.383 167.908 160.347H167.915Z" fill="white"/>
<path d="M146.043 79.8854C145.782 79.8854 145.532 79.7818 145.347 79.5974C145.163 79.4129 145.059 79.1628 145.059 78.9019V71.3685C145.057 69.9254 145.612 68.5372 146.607 67.4921C147.602 66.4469 148.961 65.8252 150.403 65.7561L156.756 65.448C157.017 65.4358 157.272 65.5277 157.465 65.7036C157.658 65.8794 157.773 66.1247 157.785 66.3856C157.797 66.6464 157.706 66.9014 157.53 67.0944C157.354 67.2875 157.109 67.4028 156.848 67.4149L150.501 67.7231C149.564 67.7669 148.68 68.1703 148.033 68.8493C147.386 69.5282 147.025 70.4305 147.026 71.3685V78.9019C147.026 79.1628 146.922 79.4129 146.738 79.5974C146.554 79.7818 146.303 79.8854 146.043 79.8854Z" fill="#263238"/>
<path d="M107.942 181.42C105.47 181.42 103.458 183.885 103.458 186.92C103.458 189.956 105.47 192.415 107.942 192.415C110.414 192.415 112.433 189.95 112.433 186.92C112.433 183.891 110.421 181.42 107.942 181.42Z" fill="#2E353A"/>
<path d="M107.942 190.455C106.579 190.455 105.425 188.835 105.425 186.921C105.425 185.006 106.579 183.387 107.942 183.387C109.306 183.387 110.467 185 110.467 186.921C110.467 188.842 109.326 190.455 107.942 190.455Z" fill="#407BFF"/>
<path d="M107.359 187.183V180.967H111.811L109.47 187.524C109.395 187.735 109.257 187.918 109.074 188.047C108.89 188.176 108.671 188.245 108.447 188.245C108.163 188.245 107.89 188.134 107.687 187.935C107.483 187.737 107.366 187.467 107.359 187.183Z" fill="#2E353A"/>
<path opacity="0.6" d="M107.359 187.183V180.967H111.811L109.47 187.524C109.395 187.735 109.257 187.918 109.074 188.047C108.89 188.176 108.671 188.245 108.447 188.245C108.163 188.245 107.89 188.134 107.687 187.935C107.483 187.737 107.366 187.467 107.359 187.183Z" fill="white"/>
<path d="M124.301 104.761L122.17 108.524C122.17 108.524 90.784 108.57 84.6274 114.792C78.4709 121.015 70.426 140.363 70.426 140.363L82.3982 144.861L95.7604 125.742L137.434 128.489L141.505 104.177L124.301 104.761Z" fill="#263238"/>
<path opacity="0.2" d="M141.512 104.158L137.44 128.469L113.45 126.889L95.7471 125.722L90.1413 133.754L82.3784 144.9L70.3997 140.402C70.3997 140.402 78.4445 121.06 84.6076 114.832C90.7707 108.603 122.15 108.564 122.15 108.564L124.281 104.8L141.512 104.158Z" fill="white"/>
<path opacity="0.2" d="M113.45 126.889L95.747 125.722L90.1412 133.754C89.3085 129.223 88.4037 118.949 90.7969 115.5C93.885 111.029 114.059 109.908 123.494 110.544C129.074 110.917 123.094 119.742 113.45 126.889Z" fill="black"/>
<path d="M130.411 67.9725C128.995 76.9352 127.513 85.7996 124.878 94.5526C123.219 99.9223 109.227 104.433 104.113 106.007C103.641 106.147 103.135 106.109 102.688 105.902C102.242 105.694 101.887 105.331 101.689 104.88C101.492 104.429 101.466 103.922 101.617 103.453C101.767 102.984 102.084 102.587 102.507 102.335C105.903 100.316 109.358 98.2963 112.61 96.2245C114.302 95.1295 117.2 93.2282 118.007 92.1201C117.96 92.2089 117.921 92.3009 117.888 92.3955C117.888 92.3496 117.967 92.0545 117.98 91.9955C119.764 83.7081 120.878 75.0666 122.412 66.6808C123.494 61.5077 131.008 62.701 130.411 67.9921V67.9725Z" fill="#DD8A7D"/>
<path d="M127.684 59.6062C123.094 60.2619 120.537 63.9073 118.649 79.4528L130.582 82.2721C130.582 82.2721 134.083 72.8504 133.952 68.3657C133.821 63.881 127.684 59.6062 127.684 59.6062Z" fill="#407BFF"/>
<path opacity="0.2" d="M130.569 82.2721L129.081 81.918L122.17 80.2854L118.643 79.4528C120.524 63.9073 123.049 60.2553 127.671 59.6062C127.671 59.6062 133.814 63.8876 133.945 68.3657C134.077 72.8438 130.569 82.2721 130.569 82.2721Z" fill="white"/>
<path opacity="0.2" d="M129.08 81.9179L122.17 80.2854C122.786 77.4792 124.596 70.7653 128.025 69.6769C131.454 68.5886 134.49 79.3806 129.08 81.9179Z" fill="black"/>
<path d="M105.49 175.742L111.903 174.181L111.496 167.92L111.103 162.183L103.287 163.212L104.448 169.847L105.49 175.742Z" fill="#E4897B"/>
<path opacity="0.2" d="M104.48 169.979L111.522 168.038L111.122 162.242L103.294 163.239L104.48 169.979Z" fill="black"/>
<path d="M112.145 172.483C112.112 171.998 104.448 172.654 104.448 172.654C104.448 172.654 99.8583 176.588 95.3015 177.584C90.7448 178.581 93.387 180.653 98.5142 180.476L111.195 180.017C114.84 179.885 112.473 177.538 112.145 172.483Z" fill="#2E353A"/>
<path d="M155.221 104.531C155.221 104.531 158.112 124.535 151.379 131.761C144.645 138.986 110.401 128.607 109.365 129.138C108.329 129.669 111.902 165.737 111.902 165.737L101.844 167.199C101.844 167.199 90.9213 130.331 91.1639 119.625C91.4065 108.918 127.88 110.118 127.88 110.118L129.985 104.531H155.221Z" fill="#2E353A"/>
<path opacity="0.2" d="M155.221 104.531C155.221 104.531 158.112 124.535 151.379 131.761C144.645 138.986 110.401 128.607 109.365 129.138C108.329 129.669 111.902 165.737 111.902 165.737L101.844 167.199C101.844 167.199 90.9213 130.331 91.1639 119.625C91.4065 108.918 127.88 110.118 127.88 110.118L129.985 104.531H155.221Z" fill="white"/>
<path d="M155.359 104.761C156.179 87.1304 161.365 62.1829 161.365 62.1829C146.98 58.7145 127.664 59.5603 127.664 59.5603C123.901 73.0208 123.973 94.7425 124.301 104.735L155.359 104.761Z" fill="#407BFF"/>
<path opacity="0.2" d="M155.352 104.761C155.621 99.0763 156.336 92.6313 157.188 86.5075C157.673 83.0195 158.204 79.6363 158.716 76.5547C160.099 68.2739 161.338 62.1829 161.338 62.1829C146.953 58.7145 127.645 59.5603 127.645 59.5603C123.881 73.0208 123.947 94.7425 124.274 104.735L155.352 104.761Z" fill="white"/>
<path opacity="0.2" d="M158.716 76.5679C158.205 79.6494 157.674 83.0326 157.188 86.5207C156.219 84.6951 155.663 82.6786 155.56 80.6141C155.456 78.5497 155.809 76.4878 156.592 74.5747L158.716 76.5679Z" fill="black"/>
<path d="M149.976 60.2555C147.314 62.6748 140.797 61.7831 140.797 61.7831C140.797 61.7831 136.725 60.6685 137.578 59.3966C139.977 58.9966 141.138 57.882 141.617 56.4461C141.881 55.5605 141.964 54.6305 141.859 53.7121C141.819 53.1977 141.754 52.6856 141.662 52.1779L149.72 46.2114C148.665 50.1519 147.354 57.4034 149.976 60.2555Z" fill="#E4897B"/>
<path opacity="0.2" d="M147.832 50.0074C147.511 54.8396 143.538 56.1771 141.59 56.4459C141.855 55.5603 141.938 54.6303 141.833 53.7119L147.832 50.0074Z" fill="black"/>
<path d="M135.493 33.8195C135.493 33.8195 133.277 41.3529 136.955 44.8737C140.633 48.3946 142.593 34.062 142.593 34.062L135.493 33.8195Z" fill="#263238"/>
<path d="M148.009 52.6039C146.982 53.7552 145.604 54.5368 144.089 54.8282C142.574 55.1197 141.005 54.9048 139.623 54.2168C137.822 53.3617 136.415 51.8515 135.689 49.9944C135.585 49.7374 135.495 49.4747 135.421 49.2076C134.05 44.2312 134.536 35.9176 139.932 33.5113C141.12 32.9743 142.427 32.7504 143.727 32.861C145.026 32.9716 146.276 33.4129 147.357 34.143C148.438 34.8732 149.315 35.8678 149.903 37.0322C150.491 38.1967 150.771 39.4922 150.717 40.7956C150.527 46.408 150.71 49.6863 148.009 52.6039Z" fill="#E4897B"/>
<path d="M142.253 42.6381C142.299 43.0905 142.043 43.4708 141.741 43.4773C141.44 43.4839 141.191 43.1233 141.178 42.6709C141.164 42.2185 141.394 41.8448 141.689 41.8316C141.984 41.8185 142.233 42.1791 142.253 42.6381Z" fill="#263238"/>
<path d="M137.119 42.8084C137.165 43.2608 136.902 43.641 136.607 43.6476C136.312 43.6541 136.056 43.2935 136.037 42.8411C136.017 42.3887 136.253 42.015 136.548 42.0019C136.843 41.9888 137.099 42.3822 137.119 42.8084Z" fill="#263238"/>
<path d="M138.758 42.979C138.261 44.3784 137.572 45.7023 136.712 46.9129C137.032 47.127 137.396 47.2679 137.776 47.3257C138.157 47.3835 138.546 47.3567 138.915 47.2473L138.758 42.979Z" fill="#DE5753"/>
<path d="M135.139 40.6776C135.181 40.703 135.23 40.7164 135.28 40.7164C135.329 40.7164 135.378 40.703 135.421 40.6776C135.694 40.4857 136.007 40.3598 136.337 40.3097C136.667 40.2597 137.004 40.2868 137.322 40.3891C137.354 40.4041 137.388 40.4124 137.423 40.4136C137.458 40.4147 137.493 40.4087 137.526 40.3957C137.558 40.3828 137.588 40.3634 137.613 40.3385C137.637 40.3137 137.657 40.284 137.67 40.2514C137.684 40.2196 137.691 40.1853 137.692 40.1505C137.693 40.1157 137.686 40.0812 137.673 40.0488C137.661 40.0165 137.642 39.987 137.617 39.9621C137.593 39.9373 137.564 39.9175 137.532 39.9039C137.134 39.7615 136.707 39.7175 136.288 39.7757C135.869 39.8339 135.47 39.9926 135.126 40.2383C135.096 40.2558 135.07 40.2791 135.049 40.307C135.028 40.3348 135.014 40.3666 135.006 40.4003C134.998 40.434 134.997 40.469 135.003 40.5032C135.009 40.5373 135.021 40.5699 135.04 40.5989C135.068 40.6305 135.102 40.6571 135.139 40.6776Z" fill="#263238"/>
<path d="M143.197 40.5532C143.251 40.5476 143.304 40.5272 143.347 40.4942C143.37 40.4672 143.387 40.4361 143.397 40.4026C143.407 40.369 143.41 40.3338 143.407 40.299C143.403 40.2642 143.392 40.2304 143.375 40.1997C143.359 40.1691 143.336 40.1421 143.308 40.1204C142.981 39.8488 142.594 39.6594 142.179 39.5682C141.763 39.4769 141.332 39.4864 140.922 39.5959C140.855 39.6197 140.8 39.6688 140.769 39.7327C140.739 39.7965 140.735 39.8699 140.758 39.9369C140.781 40.0021 140.83 40.0555 140.892 40.0861C140.954 40.1166 141.026 40.1219 141.092 40.1008C141.419 40.0246 141.759 40.0252 142.085 40.1025C142.412 40.1799 142.716 40.3319 142.974 40.5466C143.008 40.564 143.046 40.5736 143.084 40.5748C143.123 40.5759 143.161 40.5685 143.197 40.5532Z" fill="#263238"/>
<path d="M146.344 33.9506L146.01 36.4093C146.422 36.6137 146.742 36.9662 146.906 37.3965C147.071 37.8267 147.066 38.303 146.895 38.7303C146.069 40.789 147.203 44.0148 148.77 45.3195C148.77 45.3195 148.829 44.4213 149.583 44.6639C150.337 44.9065 150.061 49.5551 148.553 51.7646C148.553 51.7646 150.815 49.7977 152.146 44.8934C153.379 40.3825 153.576 36.606 152.671 34.8357L146.344 33.9506Z" fill="#263238"/>
<path d="M153.255 45.2869C152.969 45.9231 152.561 46.4968 152.054 46.9749C151.546 47.4531 150.95 47.8264 150.298 48.0734C148.553 48.7291 147.524 47.2014 147.872 45.4508C148.199 43.9166 149.485 41.6743 151.307 41.7857C153.13 41.8972 153.95 43.7068 153.255 45.2869Z" fill="#E4897B"/>
<path d="M146.042 36.4289C146.042 36.4289 133.237 38.9728 135.748 30.9083C135.748 30.9083 142.875 27.8923 148.494 29.7544C154.113 31.6164 152.854 37.5238 152.854 37.5238L146.042 36.4289Z" fill="#263238"/>
<path d="M139.42 49.9618C139.379 49.9707 139.336 49.9707 139.295 49.9618C139.24 49.9266 139.201 49.8717 139.185 49.8083C139.169 49.7449 139.178 49.6778 139.21 49.6208C139.256 49.5487 140.325 47.8768 143.275 47.7654C143.311 47.7595 143.347 47.7615 143.382 47.7712C143.417 47.7808 143.449 47.798 143.477 47.8213C143.504 47.8447 143.526 47.8738 143.542 47.9066C143.557 47.9394 143.565 47.9751 143.565 48.0112C143.565 48.0474 143.557 48.0831 143.542 48.1158C143.526 48.1486 143.504 48.1777 143.477 48.2011C143.449 48.2245 143.417 48.2416 143.382 48.2513C143.347 48.261 143.311 48.2629 143.275 48.2571C140.6 48.3555 139.649 49.8176 139.61 49.8831C139.586 49.9094 139.557 49.93 139.524 49.9436C139.491 49.9572 139.455 49.9634 139.42 49.9618Z" fill="#263238"/>
<path d="M136.037 50.8403C136.037 50.8403 138.004 53.5481 140.744 53.6137C143.485 53.6792 148.042 48.6832 150.678 48.8471L151.405 49.7191C151.405 49.7191 150.625 55.9347 151.405 57.4033C152.186 58.872 154.775 60.5177 154.775 60.5177V60.9373C154.775 60.9373 148.035 67.225 139.905 65.599C131.775 63.973 132.614 59.5211 132.614 59.5211L133.421 58.9703C133.421 58.9703 135.814 57.8361 136.345 56.1969C136.876 54.5578 135.394 51.3779 135.394 51.3779L136.037 50.8403Z" fill="#407BFF"/>
<path opacity="0.6" d="M136.037 50.8403C136.037 50.8403 138.004 53.5481 140.744 53.6137C143.485 53.6792 148.042 48.6832 150.678 48.8471L151.405 49.7191C151.405 49.7191 150.625 55.9347 151.405 57.4033C152.186 58.872 154.775 60.5177 154.775 60.5177V60.9373C154.775 60.9373 148.035 67.225 139.905 65.599C131.775 63.973 132.614 59.5211 132.614 59.5211L133.421 58.9703C133.421 58.9703 135.814 57.8361 136.345 56.1969C136.876 54.5578 135.394 51.3779 135.394 51.3779L136.037 50.8403Z" fill="white"/>
<path opacity="0.1" d="M149.32 49.1028L149.976 50.2502C149.976 50.2502 149.694 55.6265 149.976 57.3574C150.258 59.0883 152.9 61.3831 152.9 61.3831V62.4059L152.553 61.5077C151.667 61.0091 150.915 60.3052 150.358 59.4552C149.801 58.6052 149.456 57.634 149.353 56.6231C149.201 54.5775 149.3 52.5208 149.648 50.4993L149.32 49.1028Z" fill="black"/>
<path d="M148.075 53.2268L150.658 52.3024V53.6006L148.075 54.5512V53.2268Z" fill="white"/>
<path d="M152.048 58.9573L151.956 59.0097L149.622 60.2882L150.37 61.5078L152.874 59.8686" fill="white"/>
<path d="M102.933 101.974L97.4587 102.63L101.111 108.57C101.111 108.57 105.648 107.003 105.045 104.499L102.933 101.974Z" fill="#E4897B"/>
<path d="M94.2324 105.777L97.4845 110.544L101.11 108.544L97.4582 102.604L94.2324 105.777Z" fill="#E4897B"/>
<path d="M164.341 67.1593C166.053 73.8601 169.298 88.6319 162.538 93.3001C156.323 97.0439 145.793 94.6573 139.282 92.6838C138.794 92.5457 138.375 92.228 138.111 91.7944C137.847 91.3608 137.756 90.8434 137.858 90.3458C137.959 89.8482 138.244 89.4073 138.657 89.1113C139.069 88.8154 139.579 88.6863 140.082 88.7499C141.826 88.8351 143.656 88.9335 145.426 88.9532C149.465 88.9532 153.864 89.1236 157.588 87.7337C157.877 87.6152 158.148 87.4587 158.395 87.2682C158.139 87.4386 158.473 86.9862 158.559 86.3175C159.214 80.7247 157.66 74.6469 156.493 69.1525C155.47 64.0056 162.761 62.1502 164.361 67.1856L164.341 67.1593Z" fill="#DD8A7D"/>
<path d="M161.365 62.2028C165.41 63.5141 167.082 68.3397 168.321 81.1576L157.123 82.1411C157.123 82.1411 153.845 72.9948 154.435 68.0971C155.025 63.1994 161.365 62.2028 161.365 62.2028Z" fill="#407BFF"/>
<path opacity="0.2" d="M161.365 62.2028C165.41 63.5141 167.082 68.3397 168.321 81.1576L157.123 82.1411C157.123 82.1411 153.845 72.9948 154.435 68.0971C155.025 63.1994 161.365 62.2028 161.365 62.2028Z" fill="white"/>
<path d="M131.434 84.8946C128.845 85.0389 127.802 89.7858 128.064 93.4837C128.327 97.1815 135.585 96.657 135.585 96.657C135.585 96.657 152.186 100.375 160.827 98.2962C169.469 96.2177 168.262 84.121 168.262 84.121C168.262 84.121 166.951 83.4653 161.955 83.1309C156.959 82.7966 156.5 83.6882 156.5 83.6882C156.5 83.6882 157.156 85.8322 155.53 86.5272C153.904 87.2222 137.657 84.5537 131.434 84.8946Z" fill="#407BFF"/>
<path opacity="0.6" d="M131.434 84.8946C128.845 85.0389 127.802 89.7858 128.064 93.4837C128.327 97.1815 135.585 96.657 135.585 96.657C135.585 96.657 152.186 100.375 160.827 98.2962C169.469 96.2177 168.262 84.121 168.262 84.121C168.262 84.121 166.951 83.4653 161.955 83.1309C156.959 82.7966 156.5 83.6882 156.5 83.6882C156.5 83.6882 157.156 85.8322 155.53 86.5272C153.904 87.2222 137.657 84.5537 131.434 84.8946Z" fill="white"/>
<path d="M132.011 59.2588C132.011 59.2588 133.388 66.307 137.964 75.7615C142.915 86.0028 152.874 91.9889 152.874 91.9889L150.678 93.4838C150.678 93.4838 141.354 86.5273 135.84 76.3713C133.05 71.0815 131.125 65.3797 130.136 59.4817L132.011 59.2588Z" fill="#263238"/>
<path d="M151.176 94.1066L153.654 92.4806C153.654 92.4806 157.529 93.7919 160.211 93.4837C162.892 93.1756 164.859 93.1297 166.544 94.7557C165.439 96.3044 163.965 97.5535 162.256 98.3902C160.547 99.227 158.657 99.625 156.756 99.5485C150.009 99.4239 147.819 98.9257 147.819 98.9257C147.746 98.292 147.928 97.6552 148.324 97.1554C148.986 96.4407 151.176 94.1066 151.176 94.1066Z" fill="#407BFF"/>
<path d="M151.104 94.8477C150.989 94.8481 150.875 94.823 150.771 94.7743C150.666 94.7255 150.574 94.6543 150.501 94.5657L150.094 94.074C150.022 93.9913 149.969 93.894 149.938 93.7886C149.908 93.6833 149.901 93.5726 149.917 93.4642C149.933 93.3563 149.97 93.2528 150.028 93.1603C150.085 93.0677 150.162 92.9882 150.252 92.9266L152.382 91.4514C152.53 91.3495 152.708 91.3011 152.887 91.3142C153.066 91.3274 153.235 91.4012 153.366 91.5235L153.851 91.9759C153.941 92.0581 154.009 92.1605 154.051 92.2745C154.094 92.3885 154.108 92.5109 154.094 92.6315C154.087 92.7481 154.053 92.8614 153.995 92.9627C153.937 93.0639 153.856 93.1503 153.759 93.2151L151.543 94.7296C151.412 94.8121 151.259 94.8532 151.104 94.8477ZM150.619 93.4642C150.604 93.475 150.592 93.4888 150.583 93.5046C150.574 93.5204 150.568 93.5379 150.566 93.556C150.557 93.5881 150.557 93.6223 150.566 93.6544L150.973 94.1461C150.997 94.1682 151.028 94.1805 151.061 94.1805C151.094 94.1805 151.126 94.1682 151.15 94.1461L153.359 92.6381C153.376 92.6273 153.39 92.6128 153.4 92.5957C153.41 92.5787 153.417 92.5595 153.418 92.5397C153.42 92.5204 153.417 92.501 153.41 92.4829C153.404 92.4647 153.393 92.4484 153.379 92.4349L152.894 91.9825C152.871 91.9638 152.842 91.9537 152.812 91.9537C152.782 91.9537 152.753 91.9638 152.73 91.9825L150.619 93.4642Z" fill="white"/>
<path d="M74.1436 127.781L90.8037 135.95C90.8037 135.95 71.7242 169.893 68.6164 171.716C65.5086 173.539 44.5934 166.517 44.5016 163.92C44.4098 161.324 46.8226 156.629 46.8226 156.629L58.9325 157.672L74.1436 127.781Z" fill="#407BFF"/>
<path opacity="0.6" d="M74.1436 127.781L90.8037 135.95C90.8037 135.95 71.7242 169.893 68.6164 171.716C65.5086 173.539 44.5934 166.517 44.5016 163.92C44.4098 161.324 46.8226 156.629 46.8226 156.629L58.9325 157.672L74.1436 127.781Z" fill="white"/>
<path d="M125.061 119.625H122.439V110.059C122.44 108.883 122.909 107.755 123.741 106.924C124.573 106.093 125.701 105.626 126.877 105.626H173.58V108.249H126.904C126.423 108.249 125.962 108.44 125.622 108.779C125.281 109.118 125.089 109.578 125.088 110.059L125.061 119.625Z" fill="#263238"/>
<g opacity="0.4">
<path d="M125.061 119.625H122.439V110.059C122.44 108.883 122.909 107.755 123.741 106.924C124.573 106.093 125.701 105.626 126.877 105.626H173.58V108.249H126.904C126.423 108.249 125.962 108.44 125.622 108.779C125.281 109.118 125.089 109.578 125.088 110.059L125.061 119.625Z" fill="white"/>
</g>
<path d="M173.58 79.8854C173.319 79.8854 173.069 79.7818 172.884 79.5974C172.7 79.4129 172.596 79.1628 172.596 78.9019V71.3685C172.595 69.9254 173.149 68.5372 174.144 67.4921C175.139 66.4469 176.499 65.8252 177.94 65.7561L184.293 65.448C184.422 65.4419 184.551 65.4614 184.673 65.5053C184.795 65.5491 184.907 65.6165 185.002 65.7036C185.098 65.7906 185.175 65.8957 185.23 66.0127C185.285 66.1297 185.317 66.2564 185.323 66.3856C185.329 66.5147 185.309 66.6438 185.265 66.7654C185.221 66.887 185.154 66.9988 185.067 67.0944C184.98 67.19 184.875 67.2675 184.758 67.3225C184.641 67.3775 184.514 67.4089 184.385 67.4149L178.038 67.7231C177.101 67.7669 176.217 68.1703 175.57 68.8492C174.923 69.5282 174.562 70.4305 174.563 71.3685V78.9019C174.563 79.1628 174.46 79.4129 174.275 79.5974C174.091 79.7818 173.841 79.8854 173.58 79.8854Z" fill="#263238"/>
<path d="M171.96 75.3092V115.907H121.475C120.167 115.907 118.913 116.427 117.989 117.351C117.064 118.276 116.544 119.53 116.544 120.838V142.723H169.298C170.081 142.724 170.857 142.571 171.581 142.271C172.305 141.972 172.962 141.533 173.517 140.98C174.071 140.426 174.51 139.769 174.81 139.046C175.11 138.322 175.265 137.547 175.265 136.763V75.3092C175.263 74.8686 175.087 74.4467 174.774 74.1358C174.462 73.8249 174.04 73.6504 173.599 73.6504C173.163 73.6573 172.747 73.8348 172.441 74.145C172.134 74.4552 171.962 74.8732 171.96 75.3092Z" fill="#2E353A"/>
<path opacity="0.4" d="M171.96 75.3092V115.907H121.475C120.167 115.907 118.913 116.427 117.989 117.351C117.064 118.276 116.544 119.53 116.544 120.838V142.723H169.298C170.081 142.724 170.857 142.571 171.581 142.271C172.305 141.972 172.962 141.533 173.517 140.98C174.071 140.426 174.51 139.769 174.81 139.046C175.11 138.322 175.265 137.547 175.265 136.763V75.3092C175.263 74.8686 175.087 74.4467 174.774 74.1358C174.462 73.8249 174.04 73.6504 173.599 73.6504C173.163 73.6573 172.747 73.8348 172.441 74.145C172.134 74.4552 171.962 74.8732 171.96 75.3092Z" fill="white"/>
<path d="M167.62 130.535H122.439C121.003 130.535 119.625 131.105 118.609 132.121C117.594 133.137 117.023 134.514 117.023 135.95V178.286C117.023 178.929 116.768 179.546 116.313 180.001C115.858 180.456 115.241 180.712 114.597 180.712H102.061C101.714 180.712 101.38 180.85 101.134 181.096C100.888 181.342 100.75 181.675 100.75 182.023C100.75 182.371 100.888 182.704 101.134 182.95C101.38 183.196 101.714 183.334 102.061 183.334H114.604C115.942 183.333 117.225 182.8 118.172 181.854C119.118 180.907 119.651 179.624 119.652 178.286V162.583H167.62C167.968 162.583 168.301 162.445 168.547 162.199C168.793 161.953 168.931 161.619 168.931 161.272V131.846C168.931 131.498 168.793 131.165 168.547 130.919C168.301 130.673 167.968 130.535 167.62 130.535ZM166.309 159.96H119.652V135.95C119.652 135.21 119.947 134.499 120.47 133.975C120.994 133.452 121.705 133.157 122.445 133.157H166.309V159.96Z" fill="#2E353A"/>
<path opacity="0.6" d="M167.62 130.535H122.439C121.003 130.535 119.625 131.105 118.609 132.121C117.594 133.137 117.023 134.514 117.023 135.95V178.286C117.023 178.929 116.768 179.546 116.313 180.001C115.858 180.456 115.241 180.712 114.597 180.712H102.061C101.714 180.712 101.38 180.85 101.134 181.096C100.888 181.342 100.75 181.675 100.75 182.023C100.75 182.371 100.888 182.704 101.134 182.95C101.38 183.196 101.714 183.334 102.061 183.334H114.604C115.942 183.333 117.225 182.8 118.172 181.854C119.118 180.907 119.651 179.624 119.652 178.286V162.583H167.62C167.968 162.583 168.301 162.445 168.547 162.199C168.793 161.953 168.931 161.619 168.931 161.272V131.846C168.931 131.498 168.793 131.165 168.547 130.919C168.301 130.673 167.968 130.535 167.62 130.535ZM166.309 159.96H119.652V135.95C119.652 135.21 119.947 134.499 120.47 133.975C120.994 133.452 121.705 133.157 122.445 133.157H166.309V159.96Z" fill="white"/>
<path d="M113.548 178.502H92.7901C91.8921 178.502 91.1641 179.23 91.1641 180.128V181.046C91.1641 181.944 91.8921 182.672 92.7901 182.672H113.548C114.446 182.672 115.174 181.944 115.174 181.046V180.128C115.174 179.23 114.446 178.502 113.548 178.502Z" fill="#2E353A"/>
<path opacity="0.4" d="M113.548 178.502H92.7901C91.8921 178.502 91.1641 179.23 91.1641 180.128V181.046C91.1641 181.944 91.8921 182.672 92.7901 182.672H113.548C114.446 182.672 115.174 181.944 115.174 181.046V180.128C115.174 179.23 114.446 178.502 113.548 178.502Z" fill="white"/>
<path d="M167.581 192.415C153.569 192.415 142.167 178.443 142.167 161.272C142.167 144.1 153.569 130.122 167.581 130.122C181.592 130.122 193 144.094 193 161.272C193 178.45 181.598 192.415 167.581 192.415ZM167.581 133.407C155.372 133.407 145.446 145.91 145.446 161.278C145.446 176.647 155.372 189.143 167.581 189.143C179.789 189.143 189.722 176.647 189.722 161.278C189.722 145.91 179.789 133.4 167.581 133.4V133.407Z" fill="#2E353A"/>
<path d="M167.58 189.464C155.195 189.464 145.118 176.817 145.118 161.271C145.118 145.726 155.195 133.078 167.58 133.078C179.966 133.078 190.049 145.733 190.049 161.271C190.049 176.81 179.972 189.464 167.58 189.464ZM167.58 137.012C157.365 137.012 149.052 147.896 149.052 161.271C149.052 174.647 157.365 185.531 167.58 185.531C177.795 185.531 186.116 174.647 186.116 161.271C186.116 147.896 177.802 137.006 167.58 137.006V137.012Z" fill="#407BFF"/>
<path d="M167.58 168.989C170.876 168.989 173.547 165.534 173.547 161.272C173.547 157.01 170.876 153.555 167.58 153.555C164.285 153.555 161.614 157.01 161.614 161.272C161.614 165.534 164.285 168.989 167.58 168.989Z" fill="#407BFF"/>
<path d="M168.236 135.039H166.925V187.497H168.236V135.039Z" fill="#407BFF"/>
<path d="M188.089 160.616H147.085V161.927H188.089V160.616Z" fill="#407BFF"/>
<path d="M153.599 142.327L152.565 143.135L181.559 180.231L182.592 179.424L153.599 142.327Z" fill="#407BFF"/>
<path d="M181.565 142.316L152.565 179.407L153.598 180.215L182.598 143.124L181.565 142.316Z" fill="#407BFF"/>
<path d="M174.948 136.918L158.994 185.244L160.239 185.655L176.194 137.329L174.948 136.918Z" fill="#407BFF"/>
<path d="M149.013 150.487L148.389 151.64L186.156 172.07L186.78 170.916L149.013 150.487Z" fill="#407BFF"/>
<path d="M160.489 136.782L159.239 137.178L174.65 185.791L175.9 185.394L160.489 136.782Z" fill="#407BFF"/>
<path d="M186.269 150.835L148.277 170.562L148.882 171.726L186.873 151.999L186.269 150.835Z" fill="#407BFF"/>
</svg>
