<svg width="54" height="54" viewBox="0 0 54 54" fill="none" xmlns="http://www.w3.org/2000/svg">
<circle cx="27" cy="27" r="26" stroke="#FFFDF8" stroke-width="2"/>
<path d="M24.6 31.5L32.1255 27.15L24.6 22.8V31.5ZM41.362 20.1465C41.5505 20.828 41.681 21.7415 41.768 22.9015C41.8695 24.0615 41.913 25.062 41.913 25.932L42 27.15C42 30.3255 41.768 32.66 41.362 34.1535C40.9995 35.4585 40.1585 36.2995 38.8535 36.662C38.172 36.8505 36.925 36.981 35.011 37.068C33.126 37.1695 31.4005 37.213 29.8055 37.213L27.5 37.3C21.4245 37.3 17.64 37.068 16.1465 36.662C14.8415 36.2995 14.0005 35.4585 13.638 34.1535C13.4495 33.472 13.319 32.5585 13.232 31.3985C13.1305 30.2385 13.087 29.238 13.087 28.368L13 27.15C13 23.9745 13.232 21.64 13.638 20.1465C14.0005 18.8415 14.8415 18.0005 16.1465 17.638C16.828 17.4495 18.075 17.319 19.989 17.232C21.874 17.1305 23.5995 17.087 25.1945 17.087L27.5 17C33.5755 17 37.36 17.232 38.8535 17.638C40.1585 18.0005 40.9995 18.8415 41.362 20.1465Z" fill="#FFFDF8"/>
</svg>
