<svg width="54" height="54" viewBox="0 0 54 54" fill="none" xmlns="http://www.w3.org/2000/svg">
<circle cx="27" cy="27" r="26" stroke="#FFFDF8" stroke-width="2"/>
<path d="M27 22.6729C24.6043 22.6729 22.6729 24.6229 22.6729 27C22.6729 29.3771 24.6229 31.3271 27 31.3271C29.3771 31.3271 31.3271 29.3771 31.3271 27C31.3271 24.6229 29.3771 22.6729 27 22.6729ZM40 27C40 25.1986 40 23.4343 39.9071 21.6329C39.8143 19.5529 39.3314 17.6957 37.8086 16.1914C36.2857 14.6686 34.4471 14.1857 32.3671 14.0929C30.5657 14 28.8014 14 27 14C25.1986 14 23.4343 14 21.6329 14.0929C19.5529 14.1857 17.6957 14.6686 16.1914 16.1914C14.6686 17.7143 14.1857 19.5529 14.0929 21.6329C14 23.4343 14 25.1986 14 27C14 28.8014 14 30.5657 14.0929 32.3671C14.1857 34.4471 14.6686 36.3043 16.1914 37.8086C17.7143 39.3314 19.5529 39.8143 21.6329 39.9071C23.4343 40 25.1986 40 27 40C28.8014 40 30.5657 40 32.3671 39.9071C34.4471 39.8143 36.3043 39.3314 37.8086 37.8086C39.3314 36.2857 39.8143 34.4471 39.9071 32.3671C40.0186 30.5843 40 28.8014 40 27ZM27 33.6671C23.3043 33.6671 20.3329 30.6957 20.3329 27C20.3329 23.3043 23.3043 20.3329 27 20.3329C30.6957 20.3329 33.6671 23.3043 33.6671 27C33.6671 30.6957 30.6957 33.6671 27 33.6671ZM33.9457 21.6143C33.0914 21.6143 32.3857 20.9271 32.3857 20.0543C32.3857 19.1814 33.0729 18.4943 33.9457 18.4943C34.8186 18.4943 35.5057 19.1814 35.5057 20.0543C35.5104 20.2577 35.4733 20.4599 35.3966 20.6484C35.3199 20.8369 35.2054 21.0076 35.06 21.15C34.9176 21.2954 34.7469 21.4099 34.5584 21.4866C34.3699 21.5633 34.1677 21.6004 33.9643 21.5957L33.9457 21.6143Z" fill="#FFFDF8"/>
</svg>
