<svg width="230" height="230" viewBox="0 0 230 230" fill="none" xmlns="http://www.w3.org/2000/svg">
<rect width="230" height="230" rx="32" fill="#FDBE50"/>
<path d="M114.937 218.712C168.037 218.712 211.083 194.879 211.083 165.481C211.083 136.082 168.037 112.249 114.937 112.249C61.8377 112.249 18.792 136.082 18.792 165.481C18.792 194.879 61.8377 218.712 114.937 218.712Z" fill="#EBEBEB"/>
<g opacity="0.1">
<path d="M99.8576 198.7C117.016 198.7 130.926 191.654 130.926 182.962C130.926 174.27 117.016 167.223 99.8576 167.223C82.6988 167.223 68.7888 174.27 68.7888 182.962C68.7888 191.654 82.6988 198.7 99.8576 198.7Z" fill="black"/>
<path d="M147.498 184.395C136.536 189.946 118.763 189.946 107.801 184.395C96.8382 178.844 96.8382 169.84 107.801 164.284C118.763 158.729 136.536 158.734 147.498 164.284C158.461 169.835 158.456 178.84 147.498 184.395Z" fill="black"/>
</g>
<path d="M142.866 172.371H137.302L136.558 162.739L142.866 164.266V172.371Z" fill="#FFA8A7"/>
<path d="M129.856 181.264C129.658 181.447 129.699 182.451 129.918 182.791C130.138 183.132 131.464 184.359 133.87 184.534C136.172 184.7 138.13 184.418 139.479 183.558C140.827 182.697 141.49 181.68 141.616 180.368C141.741 179.055 141.584 177.944 142.207 176.936C142.785 176.004 143.999 174.835 144.142 174.315C144.42 173.419 144.066 171.86 144.066 171.86L129.856 181.264Z" fill="#263238"/>
<path d="M136.155 169.817C136.136 170.314 136.047 170.806 135.89 171.278C135.537 172.292 135.063 173.261 134.479 174.163C134.19 174.632 133.87 175.081 133.52 175.507C132.821 176.336 131.957 177.017 131.222 177.81C130.436 178.559 129.934 179.558 129.802 180.636C129.703 182.428 131.661 183.056 133.171 183.325C134.801 183.614 136.476 183.536 138.072 183.096C138.908 182.877 139.663 182.423 140.248 181.788C140.834 181.153 141.224 180.363 141.374 179.512C141.454 179.01 141.428 178.495 141.486 177.993C141.685 176.841 142.167 175.756 142.888 174.835C143.307 174.301 143.669 173.724 143.968 173.115C144.416 171.999 144.057 170.74 143.757 169.629C143.497 168.666 143.206 167.577 142.861 167.671C142.861 168.169 142.861 168.218 142.507 168.567C142.059 168.993 142.032 169.638 141.557 170.014C141.712 169.598 141.824 169.167 141.893 168.729C141.921 168.552 141.885 168.37 141.79 168.218C141.629 168.079 141.44 167.978 141.235 167.922C140.523 167.683 139.789 167.516 139.044 167.425C138.335 167.309 137.612 167.309 136.903 167.425C136.694 167.466 136.504 167.577 136.365 167.739C136.24 167.921 136.173 168.136 136.172 168.357C136.146 168.594 136.168 169.338 136.155 169.817Z" fill="#299BFE"/>
<path opacity="0.5" d="M136.155 169.817C136.136 170.314 136.047 170.806 135.89 171.278C135.537 172.292 135.063 173.261 134.479 174.163C134.19 174.632 133.87 175.081 133.52 175.507C132.821 176.336 131.957 177.017 131.222 177.81C130.436 178.559 129.934 179.558 129.802 180.636C129.703 182.428 131.661 183.056 133.171 183.325C134.801 183.614 136.476 183.536 138.072 183.096C138.908 182.877 139.663 182.423 140.248 181.788C140.834 181.153 141.224 180.363 141.374 179.512C141.454 179.01 141.428 178.495 141.486 177.993C141.685 176.841 142.167 175.756 142.888 174.835C143.307 174.301 143.669 173.724 143.968 173.115C144.416 171.999 144.057 170.74 143.757 169.629C143.497 168.666 143.206 167.577 142.861 167.671C142.861 168.169 142.861 168.218 142.507 168.567C142.059 168.993 142.032 169.638 141.557 170.014C141.712 169.598 141.824 169.167 141.893 168.729C141.921 168.552 141.885 168.37 141.79 168.218C141.629 168.079 141.44 167.978 141.235 167.922C140.523 167.683 139.789 167.516 139.044 167.425C138.335 167.309 137.612 167.309 136.903 167.425C136.694 167.466 136.504 167.577 136.365 167.739C136.24 167.921 136.173 168.136 136.172 168.357C136.146 168.594 136.168 169.338 136.155 169.817Z" fill="black"/>
<path d="M134.237 174.539C134.909 174.037 136.414 174.028 137.239 174.118C138.075 174.192 138.879 174.476 139.577 174.942C139.681 175.016 139.806 175.05 139.933 175.039C140.059 175.029 140.177 174.974 140.267 174.884C140.32 174.834 140.361 174.772 140.387 174.704C140.414 174.636 140.425 174.563 140.421 174.49C140.416 174.417 140.395 174.346 140.36 174.281C140.325 174.217 140.277 174.162 140.218 174.118C139.447 173.554 138.535 173.216 137.583 173.141C135.554 172.998 134.963 173.348 134.963 173.348C134.963 173.348 134.035 173.943 134.237 174.539Z" fill="#263238"/>
<path d="M132.691 176.376C133.534 175.879 135.191 175.95 136.016 176.036C136.837 176.121 137.622 176.42 138.291 176.905C138.395 176.978 138.52 177.012 138.646 177.002C138.772 176.992 138.891 176.939 138.981 176.851C139.034 176.8 139.075 176.738 139.102 176.67C139.128 176.601 139.14 176.528 139.135 176.454C139.13 176.381 139.11 176.31 139.075 176.245C139.04 176.18 138.991 176.124 138.932 176.08C138.151 175.488 137.22 175.123 136.244 175.028C134.215 174.884 133.69 175.301 133.69 175.301C133.453 175.393 133.24 175.537 133.067 175.723C132.894 175.91 132.765 176.133 132.691 176.376Z" fill="#263238"/>
<path d="M138.39 171.202C137.536 171.053 136.658 171.127 135.841 171.417C135.482 171.618 135.25 172.183 135.478 172.313C136.188 172.026 136.957 171.918 137.718 171.999C138.479 172.074 139.221 172.279 139.913 172.604C140.083 172.68 140.29 172.788 140.469 172.886C140.526 172.919 140.589 172.939 140.654 172.946C140.719 172.953 140.785 172.947 140.847 172.927C140.91 172.908 140.968 172.876 141.017 172.834C141.067 172.791 141.107 172.739 141.136 172.68C141.184 172.579 141.193 172.464 141.161 172.357C141.129 172.25 141.057 172.159 140.962 172.102C140.178 171.623 139.301 171.316 138.39 171.202Z" fill="#263238"/>
<path d="M123.171 162.851L117.271 160.19V151.763L123.879 151.678L123.669 158.214L123.171 162.851Z" fill="#FFA8A7"/>
<path d="M104.481 168.603C104.306 169.131 104.338 169.706 104.57 170.211C104.794 170.682 107.577 171.829 110.887 171.605C113.22 171.506 115.479 170.758 117.41 169.445C118.673 168.612 119.991 168.455 121.63 168.361C123.27 168.267 125.425 167.465 125.783 166.681C126.142 165.897 125.729 164.594 125.729 164.594L104.481 168.603Z" fill="#263238"/>
<path d="M117.845 158.268L117.585 158.21C117.439 158.172 117.286 158.164 117.137 158.187C116.977 158.237 116.835 158.334 116.729 158.465C116.406 158.885 116.122 159.335 115.883 159.809C115.188 160.942 113.732 161.879 112.142 162.734C111.058 163.317 110.001 163.769 108.881 164.271C107.761 164.773 106.228 165.095 105.337 165.7C104.038 166.574 103.867 168.773 105.337 169.643C106.614 170.395 109.974 171.206 113.499 170.207C115.421 169.665 117.554 167.613 120.076 167.416C121.675 167.291 124.708 166.838 125.739 165.624C126.12 165.082 125.613 163.384 125.192 161.892C124.744 160.279 124.193 157.753 123.66 157.896C123.584 158.967 122.2 159.137 121.371 159.123C120.161 159.088 119.032 158.523 117.845 158.268Z" fill="#299BFE"/>
<path opacity="0.5" d="M117.845 158.268L117.585 158.21C117.439 158.172 117.286 158.164 117.137 158.187C116.977 158.237 116.835 158.334 116.729 158.465C116.406 158.885 116.122 159.335 115.883 159.809C115.188 160.942 113.732 161.879 112.142 162.734C111.058 163.317 110.001 163.769 108.881 164.271C107.761 164.773 106.228 165.095 105.337 165.7C104.038 166.574 103.867 168.773 105.337 169.643C106.614 170.395 109.974 171.206 113.499 170.207C115.421 169.665 117.554 167.613 120.076 167.416C121.675 167.291 124.708 166.838 125.739 165.624C126.12 165.082 125.613 163.384 125.192 161.892C124.744 160.279 124.193 157.753 123.66 157.896C123.584 158.967 122.2 159.137 121.371 159.123C120.161 159.088 119.032 158.523 117.845 158.268Z" fill="black"/>
<path d="M113.656 161.847C113.771 161.627 113.939 161.439 114.146 161.3C114.353 161.162 114.591 161.077 114.838 161.054C115.569 160.92 116.854 161.458 117.656 162.116C117.733 162.177 117.792 162.256 117.831 162.346C117.869 162.436 117.885 162.534 117.877 162.632C117.868 162.729 117.836 162.823 117.783 162.905C117.729 162.987 117.657 163.054 117.571 163.102C117.464 163.162 117.34 163.188 117.217 163.175C117.094 163.162 116.979 163.111 116.886 163.03C116.005 162.229 114.846 161.805 113.656 161.847Z" fill="#263238"/>
<path d="M111.385 163.111C111.543 162.887 111.754 162.705 111.998 162.579C112.242 162.454 112.512 162.389 112.787 162.39C112.787 162.39 114.695 162.443 115.873 163.545C115.945 163.606 116.001 163.683 116.037 163.769C116.073 163.856 116.088 163.95 116.08 164.043C116.072 164.137 116.042 164.227 115.992 164.306C115.942 164.386 115.874 164.452 115.793 164.5C115.689 164.556 115.569 164.579 115.452 164.565C115.334 164.552 115.223 164.502 115.134 164.423C114.647 163.938 114.058 163.568 113.409 163.341C112.76 163.114 112.068 163.035 111.385 163.111Z" fill="#263238"/>
<path d="M108.889 164.253C109.071 164.046 109.295 163.88 109.546 163.767C109.797 163.654 110.07 163.597 110.345 163.599C111.43 163.666 112.465 164.075 113.302 164.768C113.374 164.829 113.43 164.905 113.466 164.992C113.502 165.079 113.516 165.173 113.508 165.266C113.5 165.36 113.47 165.45 113.42 165.529C113.37 165.609 113.302 165.675 113.221 165.722C113.117 165.779 112.998 165.803 112.88 165.789C112.762 165.776 112.651 165.726 112.563 165.646C112.101 165.144 111.529 164.756 110.891 164.514C110.253 164.272 109.568 164.183 108.889 164.253Z" fill="#263238"/>
<path d="M142.538 82.6276C142.986 88.6576 143.551 122.8 143.551 122.8C143.681 124.332 144.792 129.13 144.483 135.003C144.062 142.978 142.865 165.521 142.865 165.521C142.865 165.521 140.715 167.371 136.8 165.875C136.8 165.875 131.997 132.624 131.002 124.717C130.106 117.818 128.919 102.38 128.919 102.38L127.392 121.599C127.392 121.599 127.84 127.141 127.392 131.173C126.97 134.815 123.704 157.049 123.704 157.049C121.602 157.705 119.342 157.653 117.271 156.901C117.271 156.901 115.542 125.241 115.273 121.895C114.906 117.262 115.309 82.9994 115.309 82.9994L142.538 82.6276Z" fill="#37474F"/>
<path d="M128.637 99.2438C128.637 99.2438 124.206 97.8237 120.905 94.6339C120.905 94.6339 122.401 97.4339 126.845 100.037L127.544 118.633L128.888 102.38L128.637 99.2438Z" fill="#263238"/>
<path d="M133.619 48.79C134.04 48.8931 137.176 49.3859 139.071 49.7353C141.042 50.1027 144.536 53.5254 144.536 55.5324L142.296 74.2857L143.018 89.9657C139.116 94.2083 120.779 94.8937 112.258 88.68C112.258 88.68 112.07 68.2108 113.082 61.4998C114.426 52.4995 118.633 49.5696 125.286 49.1798L133.619 48.79Z" fill="#299BFE"/>
<path opacity="0.5" d="M133.619 48.79C134.04 48.8931 137.176 49.3859 139.071 49.7353C141.042 50.1027 144.536 53.5254 144.536 55.5324L142.296 74.2857L143.018 89.9657C139.116 94.2083 120.779 94.8937 112.258 88.68C112.258 88.68 112.07 68.2108 113.082 61.4998C114.426 52.4995 118.633 49.5696 125.286 49.1798L133.619 48.79Z" fill="black"/>
<path opacity="0.05" d="M142.328 74.2859L144.295 57.7099L143.672 57.6561L128.92 76.6065C128.92 76.6065 118.584 82.7441 117.814 83.1115C116.739 83.8783 115.711 84.7085 114.736 85.5979C114.736 87.7214 114.776 89.0699 114.776 89.0699C115.736 89.767 116.762 90.3673 117.84 90.8619C121.097 89.2088 133.104 83.8372 135.035 81.978C136.665 80.3215 138.143 78.5223 139.452 76.602C139.452 76.602 139.452 78.8868 139.161 82.5739C138.87 86.2609 134.802 93.7739 125.555 92.9988L125.649 93.066C133.149 93.8052 140.693 92.5419 143.036 89.9928L142.328 74.2859Z" fill="black"/>
<path d="M134.497 26.529C134.94 26.4429 135.396 26.4587 135.831 26.5752C136.267 26.6916 136.67 26.9056 137.01 27.201C138.144 28.1955 138.077 30.2026 137.597 34.817L134.381 35.4397L134.497 26.529Z" fill="#263238"/>
<path d="M115.448 26.6678C114.749 26.7257 114.046 26.6388 113.383 26.4124C112.343 25.9152 112.169 27.0665 112.791 28.0118C113.205 28.6923 113.787 29.2554 114.48 29.6475C115.173 30.0396 115.955 30.2477 116.752 30.2518C116.752 30.1084 117.487 27.6444 117.487 27.6444L115.448 26.6678Z" fill="#263238"/>
<path d="M126.599 33.9327C128.164 30.7873 126.884 26.9684 123.738 25.4029C120.593 23.8374 116.774 25.1182 115.209 28.2635C113.643 31.4089 114.924 35.2278 118.069 36.7933C121.215 38.3588 125.033 37.078 126.599 33.9327Z" fill="#263238"/>
<path d="M133.659 35.5159C134.161 35.7668 134.452 34.7364 135.003 34.0689C135.554 33.4013 137.749 32.4516 138.878 34.4183C140.007 36.385 138.394 39.3105 136.902 39.9063C134.326 40.9367 133.816 39.2881 133.816 39.2881L133.632 48.7991C133.027 50.0556 132.145 51.1586 131.053 52.0254C129.96 52.8921 128.685 53.4999 127.324 53.8033C122.705 54.7978 123.928 51.2138 125.317 49.2068L125.546 46.3172C125.546 46.3172 123.189 46.8637 122.011 46.7652C120.049 46.6129 118.767 46.241 117.836 44.0772C116.465 40.8471 115.811 36.2641 116.044 30.3101C116.312 22.9809 125.254 22.4343 130.03 24.9341C134.806 27.434 133.659 35.5159 133.659 35.5159Z" fill="#F28F8F"/>
<path d="M124.533 35.0321C124.626 35.3408 124.82 35.6094 125.084 35.7941C125.348 35.9788 125.666 36.0688 125.988 36.0497C126.31 36.0305 126.615 35.9031 126.855 35.6883C127.096 35.4735 127.256 35.1839 127.311 34.8663C126.953 35.2286 126.475 35.447 125.967 35.4801C125.45 35.5121 124.94 35.3526 124.533 35.0321Z" fill="#263238"/>
<path d="M117.469 35.7846C117.583 36.0849 117.795 36.338 118.07 36.5034C118.346 36.6687 118.669 36.7367 118.988 36.6964C119.307 36.6561 119.603 36.5099 119.829 36.2811C120.054 36.0524 120.197 35.7545 120.233 35.4352C119.899 35.829 119.431 36.0846 118.92 36.152C118.408 36.2107 117.891 36.08 117.469 35.7846Z" fill="#263238"/>
<path d="M125.591 31.923L127.616 32.6398C127.71 32.3622 127.692 32.0589 127.565 31.7945C127.439 31.5301 127.214 31.3254 126.939 31.2241C126.805 31.1778 126.663 31.1593 126.521 31.1697C126.379 31.18 126.241 31.2191 126.115 31.2844C125.989 31.3498 125.878 31.4401 125.787 31.5499C125.697 31.6596 125.63 31.7866 125.591 31.923Z" fill="#263238"/>
<path d="M125.21 41.2278L123.266 42.1238C123.319 42.2545 123.399 42.373 123.499 42.4724C123.6 42.5718 123.719 42.6499 123.85 42.7022C123.981 42.7544 124.122 42.7797 124.263 42.7766C124.404 42.7734 124.544 42.7419 124.672 42.6838C124.931 42.5558 125.131 42.3336 125.231 42.0628C125.331 41.792 125.323 41.4932 125.21 41.2278Z" fill="#B16668"/>
<path d="M117.24 33.4638L118.848 32.0213C118.759 31.9115 118.649 31.8209 118.524 31.7552C118.399 31.6895 118.261 31.65 118.121 31.6391C117.98 31.6282 117.838 31.6461 117.704 31.6918C117.571 31.7375 117.448 31.81 117.343 31.9048C117.129 32.1018 116.999 32.3735 116.98 32.6637C116.961 32.9539 117.054 33.2404 117.24 33.4638Z" fill="#263238"/>
<path d="M122.473 34.6423L122.585 39.9332L119.762 39.203L122.473 34.6423Z" fill="#B16668"/>
<path d="M133.516 36.8733C133.708 36.7254 134.183 34.705 135.308 33.7776C136.181 33.0653 134.479 26.529 134.479 26.529C134.479 26.529 135.16 23.8678 133.368 22.264C131.576 20.6602 128.44 21.2067 126.092 21.3008C123.664 21.3994 121.057 21.4531 117.643 20.2704C114.229 19.0877 113.965 18.9264 113.665 20.4227C113.365 21.919 113.468 25.2432 115.614 27.3219L117.303 27.7968C117.303 27.7968 118.248 28.5181 121.362 28.657C123.699 28.7202 126.036 28.5295 128.332 28.088C129.228 27.8998 130.219 28.4509 130.738 31.2509C131.128 33.3296 131.459 38.4726 133.516 36.8733Z" fill="#263238"/>
<path d="M134.533 27.0621L137.329 25.2701C137.22 25.0842 137.076 24.9219 136.904 24.7928C136.731 24.6636 136.535 24.5702 136.327 24.518C136.118 24.4658 135.901 24.4559 135.688 24.4889C135.476 24.5219 135.272 24.5971 135.089 24.7101C134.711 24.955 134.442 25.3363 134.339 25.7745C134.235 26.2127 134.305 26.674 134.533 27.0621Z" fill="#263238"/>
<path d="M125.532 46.308C125.532 46.308 128.668 45.2149 130.124 44.2965C130.978 43.7602 131.651 42.9798 132.055 42.0565C131.893 42.9567 131.554 43.8156 131.056 44.5832C130.057 46.084 125.622 47.446 125.622 47.446L125.532 46.308Z" fill="#B16668"/>
<path d="M97.2861 77.4308C94.1232 77.3725 90.7587 76.8887 88.2903 74.9175C85.5619 72.7402 83.8999 69.2279 84.6435 65.8544C85.4096 62.36 87.5018 60.6756 89.4864 58.3997C93.9261 53.3015 93.5722 47.7552 93.5722 42.0656C93.5722 40.5013 93.8803 38.9523 94.4789 37.507C95.0776 36.0617 95.955 34.7485 97.0612 33.6424C99.2952 31.4084 102.325 30.1533 105.484 30.1533H106.488C108.345 30.1521 110.176 30.5854 111.835 31.4185C113.495 32.2517 114.936 33.4615 116.044 34.9514C116.353 39.1088 116.94 42.8004 118.4 45.1076V50.6538C118.426 54.2145 117.883 57.7564 116.792 61.146C115.188 66.074 112.603 70.554 109.373 73.466C106.143 76.378 101.56 77.5159 97.2861 77.4308Z" fill="#263238"/>
<path d="M93.2767 75.3744C93.2767 75.3744 88.9848 81.409 88.1605 83.9581C87.7125 85.3021 87.7125 86.8029 89.5045 87.2777C91.2965 87.7526 98.2674 81.0057 98.2674 81.0057L93.2767 75.3744Z" fill="#FFA8A7"/>
<path d="M99.5395 56.0298C97.3488 55.6445 94.4502 55.6221 92.5955 58.225C90.911 60.5949 90.6736 69.9761 90.6736 69.9761L99.5395 56.0298Z" fill="#FFA8A7"/>
<path d="M95.6598 36.1519C95.5521 36.3496 95.4045 36.5228 95.2262 36.6603C95.0479 36.7979 94.8429 36.8968 94.6243 36.9508C94.4057 37.0048 94.1782 37.0126 93.9564 36.9739C93.7346 36.9351 93.5233 36.8506 93.3359 36.7257C93.1486 36.6008 92.9893 36.4382 92.8682 36.2484C92.7471 36.0585 92.6669 35.8456 92.6326 35.623C92.5984 35.4004 92.6109 35.1732 92.6693 34.9557C92.7277 34.7383 92.8307 34.5353 92.9718 34.3599L95.6598 36.1519Z" fill="#263238"/>
<path d="M95.906 36.2056C95.6896 36.2273 95.471 36.2052 95.2632 36.1407C95.0555 36.0762 94.8628 35.9705 94.6967 35.83C94.5307 35.6895 94.3946 35.517 94.2965 35.3227C94.1985 35.1285 94.1406 34.9166 94.1261 34.6995C94.1117 34.4825 94.1411 34.2647 94.2125 34.0592C94.284 33.8538 94.3961 33.6648 94.5421 33.5035C94.6881 33.3422 94.865 33.212 95.0624 33.1205C95.2598 33.029 95.4736 32.9782 95.691 32.9711L95.906 36.2056Z" fill="#263238"/>
<path d="M90.4273 169.172V168.312C90.0957 169.297 86.4311 172.944 83.1652 174.638C80.8087 175.861 77.8877 177.043 77.5921 178.723C77.2381 180.762 79.1466 181.859 82.8023 181.913C86.9239 182.003 89.2401 179.673 90.9604 178.231C92.0374 177.356 93.199 176.59 94.4279 175.946C95.5165 175.354 96.8382 174.785 97.2234 173.67C97.434 173.061 97.2593 171.605 97.0845 170.471C96.9233 169.414 96.6365 168.388 96.2871 168.487C96.2871 168.612 96.2871 168.988 96.2871 168.988C95.8391 169.459 94.7012 169.884 93.3706 169.947C92.506 169.996 90.4228 169.826 90.4273 169.172Z" fill="#37474F"/>
<path d="M103.67 103.231C102.304 110.749 100.924 118.557 99.562 125.904C100.207 129.824 100.498 131.11 100.709 136.164C101.049 144.147 96.8292 156.44 96.2961 165.019C96.1572 167.259 96.3409 167.483 96.2648 169.32C96.2648 169.32 96.2648 169.441 96.2424 169.459C96.1304 170.355 93.3259 172.25 91.8968 173.513C89.9345 175.247 87.811 176.999 84.7288 177.456C82.4888 177.792 80.8088 177.456 80.6027 176.833C80.4817 176.461 81.3374 175.834 81.6689 175.628C83.2993 174.622 84.8428 173.482 86.2833 172.219C88.38 170.503 89.4641 168.966 89.7105 166.551C90.0913 162.829 88.0888 134.506 88.3396 125.389C88.6801 113.024 89.6836 104.624 91.2024 93.3258C91.3188 92.4298 92.1969 89.6164 92.4836 87.3719C92.5681 86.7936 92.5907 86.2079 92.5508 85.6247C92.4836 84.9706 92.4612 84.0343 92.4523 83.0353V83.5281C92.4523 83.5281 95.5524 86.1578 102.362 86.2385C108.352 86.3281 111.864 84.6481 113.208 83.6401C113.616 84.9409 114.132 86.2056 114.749 87.4212C115.932 89.8449 117.334 92.2327 118.051 94.4682L103.67 103.231Z" fill="#FFA8A7"/>
<path d="M115.77 173.939C116.029 175.656 116.193 177.387 116.263 179.122C116.348 181.179 116.971 183.929 116.998 184.709C117.088 187.213 116.765 190.466 115.175 192.491C113.584 194.516 110.829 194.534 109.597 192.123C108.365 189.713 108.701 185.793 109.01 183.347C109.319 180.901 109.342 180.175 109.494 178.217C109.624 176.493 109.758 175.794 109.942 174.311C111.864 174.338 113.875 173.961 115.77 173.939Z" fill="#37474F"/>
<path d="M102.554 103.8C103.083 110.762 104.942 125.533 105.291 132.149C105.695 139.725 109.005 163.509 109.059 163.85C109.355 166.09 109.848 170.682 109.955 173.988C110.04 176.855 109.749 182.281 110.264 184.875C111.026 188.669 114.561 188.382 115.501 184.745C116.129 182.321 115.609 177.129 115.784 173.939C115.914 171.623 116.303 167.9 116.429 165.982C116.765 163.16 118.158 148.412 117.773 143.385C117.441 139.076 116.823 135.496 116.357 131.504C118.731 119.431 120.004 106.649 118.055 94.4458" fill="#FFA8A7"/>
<path d="M113.535 79.1152C113.983 77.3545 115.121 74.4784 115.273 70.6973C112.455 66.3248 111.842 61.8179 113.961 57.2573C111.721 57.1184 111.398 57.1094 109.145 56.9661C106.891 56.8227 103.236 56.4553 101.394 56.3478L99.5396 56.0387C96.986 58.7805 93.3437 60.8502 91.2112 64.3088C89.2042 67.5613 89.5402 71.2528 92.1431 74.4784C92.2282 76.1539 92.3447 77.7398 92.4432 79.3795L92.5194 79.4109H92.4432C92.4432 80.3741 92.4432 81.7539 92.4432 83.0441V83.5369C92.4432 83.5369 95.5434 86.1667 102.353 86.2473C108.352 86.328 111.864 84.648 113.208 83.64L113.127 83.3533C112.814 82.2109 113.096 80.8803 113.535 79.1152Z" fill="#299BFE"/>
<path opacity="0.8" d="M113.535 79.1152C113.983 77.3545 115.121 74.4784 115.273 70.6973C112.455 66.3248 111.842 61.8179 113.961 57.2573C111.721 57.1184 111.398 57.1094 109.145 56.9661C106.891 56.8227 103.236 56.4553 101.394 56.3478L99.5396 56.0387C96.986 58.7805 93.3437 60.8502 91.2112 64.3088C89.2042 67.5613 89.5402 71.2528 92.1431 74.4784C92.2282 76.1539 92.3447 77.7398 92.4432 79.3795L92.5194 79.4109H92.4432C92.4432 80.3741 92.4432 81.7539 92.4432 83.0441V83.5369C92.4432 83.5369 95.5434 86.1667 102.353 86.2473C108.352 86.328 111.864 84.648 113.208 83.64L113.127 83.3533C112.814 82.2109 113.096 80.8803 113.535 79.1152Z" fill="white"/>
<path opacity="0.05" d="M99.3201 74.7068C99.3201 74.7068 101 77.0902 104.965 76.7721C108.93 76.454 110.601 72.8879 110.601 72.8879C110.601 72.8879 110.086 77.2918 105.637 77.8159C100.301 78.4073 99.3201 74.7068 99.3201 74.7068Z" fill="black"/>
<path d="M91.7847 86.7983C91.0231 91.9235 87.018 115.434 86.6372 121.742C86.2564 128.05 84.7197 156.664 84.7197 156.664C84.7197 156.664 88.2589 164.101 103.5 164.974C118.741 165.848 124.556 159.097 124.556 159.097C124.556 159.097 123.405 127.714 122.513 116.407C121.621 105.099 120.237 95.3865 115.403 87.0134L102.859 88.3126L91.7847 86.7983Z" fill="#299BFE"/>
<path opacity="0.07" d="M109.199 95.7673C109.83 95.5218 110.476 95.3183 111.134 95.158C113.558 94.5318 116.024 94.0826 118.512 93.814C118.105 92.6626 117.652 91.5382 117.168 90.4316L117.128 90.3375C116.9 89.8358 116.658 89.343 116.407 88.8546C116.375 88.7874 116.344 88.7202 116.308 88.653C116.031 88.1065 115.735 87.5689 115.412 87.0358C113.907 87.2374 112.415 87.654 110.932 87.9542C108.24 88.4577 105.504 88.6874 102.765 88.6396C101.376 88.6396 99.9876 88.5814 98.6033 88.5097C98.0045 88.5205 97.4057 88.4891 96.8113 88.4156C96.1169 88.2767 95.4673 87.9273 94.7684 87.8198C93.7217 87.7003 92.6626 87.7517 91.6324 87.9721C91.3502 89.7865 90.8887 92.6089 90.3601 95.8882C91.2841 96.1327 92.253 96.1542 93.187 95.951C93.3019 95.913 93.426 95.913 93.5409 95.951C93.6187 95.9959 93.6859 96.057 93.738 96.1302C94.4622 96.952 95.3889 97.5698 96.426 97.9222C99.7233 99.2169 103.245 98.6569 106.381 97.2098C107.308 96.7394 108.213 96.1839 109.199 95.7673Z" fill="black"/>
<path d="M92.4614 83.537C92.4614 83.537 95.5615 86.1668 102.371 86.225C108.356 86.2922 111.882 84.6256 113.204 83.5952L113.119 83.313C113.499 83.2817 114.409 85.105 115.399 86.9732C115.399 86.9732 110.78 90.2749 102.998 90.2749C95.2166 90.2749 91.7983 86.7805 91.7983 86.7805C91.7983 86.7805 92.0313 84.8765 92.1119 84.0925C92.2419 82.8471 92.4659 82.9994 92.4659 82.9994L92.4614 83.537Z" fill="#299BFE"/>
<path opacity="0.25" d="M115.399 86.9911C115.399 86.9911 115.175 87.1524 114.74 87.3988C113.213 88.2948 109.069 90.2929 103.003 90.2929C97.2144 90.2929 93.832 88.362 92.4791 87.3719C92.2342 87.1959 92.0022 87.0028 91.7847 86.794C91.7847 86.794 92.0176 84.8945 92.0983 84.1329C92.2148 83.0084 92.4119 83.0263 92.4477 83.0353V83.5281C92.4477 83.5281 95.5479 86.1578 102.357 86.2385C108.352 86.3281 111.864 84.6481 113.208 83.6401L113.123 83.3578C113.504 83.2996 114.409 85.1185 115.399 86.9911Z" fill="black"/>
<path opacity="0.15" d="M100.216 99.8845C100.216 99.8845 95.8747 152.641 96.2824 163.904C97.0933 164.105 97.9534 164.285 98.8718 164.441C98.8001 159.876 99.3198 115.757 100.216 99.8845Z" fill="black"/>
<path opacity="0.15" d="M109.942 164.858C109.812 157.502 108.979 113.419 107.335 102.066C107.335 102.066 108.482 126.146 107.071 165.015C108.074 164.997 109.037 164.943 109.942 164.858Z" fill="black"/>
<path opacity="0.15" d="M119.726 162.345C119.601 156.306 118.606 116.165 114.216 96.408C114.216 96.408 118.763 130.245 117.495 163.254C118.254 162.989 118.999 162.686 119.726 162.345Z" fill="black"/>
<path opacity="0.15" d="M90.5884 161.794C90.6914 157.04 91.3724 126.72 92.5237 108.858C92.5237 108.858 88.9756 140.509 88.3752 160.454C89.0818 160.95 89.8212 161.398 90.5884 161.794Z" fill="#299BFE"/>
<path d="M113.168 35.0499C114.476 36.152 116.161 38.5981 116.344 45.9453C116.497 52.168 114.633 53.7987 113.683 54.287C112.733 54.7754 111.031 54.5962 109.203 54.3677V56.76C109.203 56.76 109.203 58.001 107.411 59.336C106.022 60.3574 103.07 61.352 101.435 60.2006C99.9878 59.1747 101.435 56.321 101.435 56.321V50.1654C101.435 50.1654 99.8623 51.2989 97.9628 49.7174C96.3993 48.4227 95.781 46.1334 96.8966 44.8477C98.0121 43.5619 100.185 43.7904 101.099 45.5152C103.565 45.3583 105.95 44.575 108.029 43.2394C109.438 42.3388 110.629 41.1373 111.518 39.7213C112.406 38.3052 112.97 36.7099 113.168 35.0499Z" fill="#FFA8A7"/>
<path d="M109.176 54.3677C107.241 54.193 103.043 53.1984 102.353 51.6035C102.633 52.4082 103.15 53.1094 103.836 53.615C105.068 54.6096 109.176 55.6221 109.176 55.6221V54.3677Z" fill="#F28F8F"/>
<path d="M101.045 44.7896L101.135 47.4193C101.303 47.4196 101.47 47.3854 101.624 47.3188C101.779 47.2522 101.918 47.1546 102.034 47.032C102.149 46.9094 102.238 46.7644 102.296 46.606C102.353 46.4477 102.377 46.2792 102.367 46.1112C102.361 45.7624 102.22 45.4296 101.973 45.183C101.726 44.9364 101.394 44.7953 101.045 44.7896Z" fill="#263238"/>
<path d="M109.127 44.7896C109.083 45.0762 108.944 45.3399 108.732 45.5376C108.521 45.7354 108.248 45.8558 107.959 45.8791C107.67 45.9024 107.382 45.8274 107.141 45.6662C106.9 45.5051 106.72 45.2672 106.631 44.9912C107 45.2676 107.458 45.3997 107.917 45.3626C108.377 45.3254 108.807 45.1217 109.127 44.7896Z" fill="#263238"/>
<path d="M115.605 44.2159C115.543 44.4998 115.388 44.7545 115.163 44.9387C114.939 45.1229 114.659 45.2257 114.369 45.2304C114.078 45.2351 113.795 45.1414 113.565 44.9645C113.334 44.7876 113.171 44.538 113.1 44.2563C113.451 44.5549 113.899 44.7144 114.359 44.7043C114.82 44.6967 115.262 44.5233 115.605 44.2159Z" fill="#263238"/>
<path d="M107.881 41.8193L106.17 42.7153C106.053 42.4802 106.032 42.209 106.11 41.9586C106.188 41.7081 106.361 41.4976 106.591 41.3713C106.705 41.3137 106.829 41.2797 106.956 41.2712C107.083 41.2626 107.211 41.2798 107.331 41.3216C107.451 41.3634 107.562 41.429 107.657 41.5145C107.751 41.6 107.828 41.7036 107.881 41.8193Z" fill="#263238"/>
<path d="M109.4 50.0624L111.246 50.6179C111.215 50.7406 111.16 50.8559 111.084 50.9569C111.008 51.0578 110.912 51.1424 110.803 51.2056C110.693 51.2687 110.572 51.3091 110.446 51.3244C110.321 51.3397 110.193 51.3294 110.072 51.2944C109.822 51.2166 109.612 51.0445 109.486 50.8145C109.361 50.5846 109.33 50.3148 109.4 50.0624Z" fill="#F28F8F"/>
<path d="M115.506 42.1328L113.889 41.0487C113.955 40.9374 114.042 40.8409 114.147 40.7653C114.252 40.6896 114.371 40.6365 114.497 40.6091C114.623 40.5818 114.754 40.5808 114.881 40.6064C115.007 40.6319 115.127 40.6833 115.233 40.7575C115.446 40.9079 115.594 41.1345 115.645 41.3905C115.695 41.6465 115.646 41.9123 115.506 42.1328Z" fill="#263238"/>
<path d="M110.78 43.6067L111.353 48.3376L113.772 47.3296L110.78 43.6067Z" fill="#F28F8F"/>
<path d="M103.262 86.095C103.262 86.1398 102.792 87.094 99.0958 87.6272C94.0827 88.3484 93.7422 89.5894 96.9991 92.6268C99.0555 94.5443 102.044 94.1321 108.387 92.3491C110.547 91.8077 112.668 91.1207 114.735 90.2928C119.941 88.0528 121.76 87.0313 125.304 85.2841C128.847 83.5369 133.901 80.5084 134.851 79.0121C145.925 61.7552 147.843 51.16 139.711 50.0758C137.234 50.6537 136.894 52.9788 134.73 59.3494C134.73 59.3494 129.591 69.4742 126.63 73.7257C122.889 76.7184 114.713 82.5155 110.085 84.0297C108.849 84.4284 107.509 83.8908 106.277 83.6265C105.71 83.4915 105.133 83.3987 104.552 83.3488C103.98 83.3271 103.406 83.348 102.837 83.4115L99.6379 83.6937C99.4678 83.6925 99.3006 83.7374 99.154 83.8236C99.0597 83.8987 98.9898 84.0001 98.9531 84.1149C98.9164 84.2298 98.9146 84.3529 98.9479 84.4688C99.0164 84.7013 99.1539 84.9075 99.3422 85.0601C100.012 85.5583 100.828 85.8213 101.663 85.8083C101.941 85.8217 103.285 85.7993 103.262 86.095Z" fill="#F28F8F"/>
<path opacity="0.5" d="M108.387 92.349C110.547 91.8076 112.668 91.1206 114.735 90.2927C119.758 88.1199 121.63 87.0984 124.941 85.4632L120.21 78.4386C118.839 79.3615 117.419 80.2754 116.03 81.1266L116.353 83.0575C116.353 83.0575 111.532 86.4444 108.065 87.7525C107.575 87.9202 107.059 87.9991 106.542 87.9855C105.535 88.0761 104.534 88.2257 103.544 88.4335C102.26 88.6304 100.953 88.6304 99.6692 88.4335C99.1316 88.2991 99.0689 89.0204 99.6155 89.7506C99.966 90.1138 100.419 90.3609 100.915 90.4584C99.3735 90.9378 96.9319 90.7541 96.9319 90.7541C97.0753 90.1135 96.4839 88.7336 95.9239 88.438C95.8286 88.4803 95.7359 88.5282 95.6462 88.5813L95.6059 88.6037C95.4516 88.6898 95.3112 88.7985 95.1892 88.9263L95.1623 88.9532C95.1163 89.0051 95.0744 89.0605 95.0369 89.1189C94.9993 89.1799 94.9678 89.2444 94.9428 89.3116C94.9428 89.3116 94.9428 89.3116 94.9428 89.3384C94.9251 89.3971 94.9117 89.457 94.9025 89.5176C94.9025 89.5176 94.9025 89.54 94.9025 89.5535C94.8958 89.625 94.8958 89.697 94.9025 89.7685C94.9098 89.8397 94.9233 89.9102 94.9428 89.9791V90.0284C94.9984 90.2013 95.072 90.368 95.1623 90.5256L95.1982 90.5839C95.2441 90.666 95.295 90.7453 95.3505 90.8213L95.3729 90.8616L95.5879 91.1484L95.6417 91.2111C95.7044 91.2917 95.7761 91.3724 95.8478 91.4575L95.9105 91.5292C96.0001 91.6322 96.0986 91.7397 96.2017 91.8472L96.2555 91.901L96.5332 92.1832L96.6273 92.2773L96.9991 92.6312C99.0555 94.5442 102.044 94.132 108.387 92.349Z" fill="#B16668"/>
<path d="M92.4432 82.5737C92.5012 84.0815 92.9757 85.5438 93.8141 86.7983C94.5085 87.7257 98.1732 90.9692 95.2029 91.8338C92.7837 92.5462 91.1082 91.0006 90.1943 89.5938C89.5044 88.5455 89.1549 86.0098 89.9165 83.4697C90.6781 80.9295 92.4477 80.1321 92.4477 80.1321L92.4432 82.5737Z" fill="#F28F8F"/>
<path d="M139.071 49.7354C139.071 49.7354 142.825 49.937 144.281 51.3347C145.737 52.7325 146.969 56.9974 144.832 62.911C143.762 67.0371 137.328 76.593 137.328 76.593C135.487 76.3015 133.732 75.6081 132.189 74.5621C130.646 73.516 129.352 72.143 128.4 70.5405L134.38 58.4893C134.38 58.4893 135.366 52.0784 139.071 49.7354Z" fill="#37474F"/>
<path d="M124.914 82.0809C123.731 77.9504 120.784 64.0624 119.605 60.9712C118.427 57.88 115.412 57.3379 113.961 57.2483C112.554 57.4723 111.299 60.7337 111.833 64.3536C112.149 66.4709 112.804 68.5235 113.772 70.4329L117.468 83.304C117.468 83.304 112.048 86.5206 108.876 87.9408C108.307 88.1737 106.694 88.5814 106.098 88.4336C103.885 87.887 103.191 88.5232 101.667 88.3933C100.48 88.2857 99.6291 87.8736 99.4812 88.1289C99.2931 88.4605 99.3558 89.1907 100.229 89.7865C101.083 90.3164 102.074 90.5829 103.079 90.5526C101.216 91.0422 99.3015 91.3114 97.3756 91.3545C94.2665 91.3545 92.6672 92.2953 95.1356 95.4134C96.6723 97.3667 100.57 97.4339 105.498 95.7136C106.174 95.4806 108.634 94.2486 110.587 93.6035C116.227 92.0534 120.246 90.8438 121.827 90.1808C125.927 88.4649 126.2 86.5833 124.914 82.0809Z" fill="#FFA8A7"/>
<path d="M95.9109 91.5249L95.987 91.4308C93.9845 91.6951 93.1736 92.6762 94.7819 94.9565C95.0096 94.87 95.2287 94.762 95.436 94.634C98.0389 92.9988 95.9109 91.5249 95.9109 91.5249Z" fill="#F28F8F"/>
<path d="M88.214 83.8012C87.4211 85.8038 87.5017 88.9801 88.0796 90.9423C88.6576 92.9046 90.8124 94.71 92.2012 94.71C95.0326 94.71 97.0755 92.2415 95.3372 91.2873C94.28 90.6602 93.3301 89.8677 92.5238 88.9398C92.2152 88.6046 91.9626 88.2219 91.7756 87.8063C92.6716 88.3395 94.3651 89.1772 95.1984 88.2857C95.2437 88.2448 95.2802 88.1951 95.3056 88.1397C95.331 88.0842 95.3448 88.0241 95.3462 87.9631C95.3462 87.7391 95.0819 87.6226 94.8713 87.5151C94.602 87.3993 94.3489 87.2487 94.1187 87.0671C93.8857 86.8879 93.6707 86.6774 93.4467 86.4937C92.9705 86.166 92.4753 85.8668 91.9638 85.5977C91.5471 85.303 91.164 84.9635 90.8214 84.5852C90.5496 84.3555 90.3375 84.0635 90.2032 83.734C90.1245 83.5023 90.0763 83.2613 90.0598 83.0172L88.214 83.8012Z" fill="#FFA8A7"/>
<path d="M85.2393 45.5824C85.0274 45.0048 84.6093 44.526 84.0655 44.2384C83.753 44.075 83.4095 43.9795 83.0575 43.9578C82.7055 43.9362 82.3529 43.9891 82.0227 44.1129C80.831 44.5609 80.3382 46.232 80.6204 47.4416C80.038 46.344 78.5641 45.4076 77.3724 45.8556C77.0421 45.9793 76.7417 46.1713 76.4908 46.4192C76.2399 46.667 76.0442 46.965 75.9164 47.2937C75.6945 47.8704 75.6945 48.509 75.9164 49.0857C76.6108 50.936 78.7119 51.3257 80.6025 51.9932L82.5961 52.6966L83.6355 50.8553C84.6031 49.0992 85.9337 47.4371 85.2393 45.5824Z" fill="#299BFE"/>
<path d="M155.423 42.8182C155.683 42.2729 155.734 41.6514 155.567 41.071C155.468 40.7371 155.301 40.4275 155.075 40.1621C154.85 39.8967 154.572 39.6813 154.258 39.5299C153.125 38.9878 151.593 39.7808 150.93 40.8112C151.311 39.6464 150.966 37.9574 149.832 37.4153C149.518 37.2661 149.175 37.1846 148.827 37.1762C148.479 37.1677 148.133 37.2324 147.812 37.3661C147.254 37.5992 146.803 38.03 146.544 38.5757C145.702 40.3363 146.871 42.0925 147.686 43.9024L148.546 45.8019L150.571 45.2822C152.48 44.7715 154.581 44.5789 155.423 42.8182Z" fill="#299BFE"/>
</svg>
