<svg width="230" height="230" viewBox="0 0 230 230" fill="none" xmlns="http://www.w3.org/2000/svg">
<rect width="230" height="230" rx="32" fill="#FDBE50"/>
<path d="M53.0585 196.473C87.3015 214.749 142.821 214.749 177.064 196.473C211.307 178.197 211.312 148.557 177.064 130.281C142.816 112.005 87.3015 112.001 53.0585 130.281C18.8155 148.562 18.8155 178.192 53.0585 196.473Z" fill="#EBEBEB"/>
<path d="M46.2097 166.61C46.2614 167.314 46.4781 167.996 46.8422 168.6C47.2063 169.205 47.7075 169.715 48.3054 170.09L107.029 203.995C107.679 204.324 108.397 204.496 109.125 204.496C109.853 204.496 110.571 204.324 111.221 203.995L191.565 157.603C192.198 157.269 192.728 156.768 193.098 156.155C193.467 155.542 193.663 154.839 193.663 154.123C193.663 153.407 193.467 152.705 193.098 152.091C192.728 151.478 192.198 150.977 191.565 150.643L132.846 116.763C132.196 116.434 131.478 116.262 130.75 116.262C130.022 116.262 129.304 116.434 128.654 116.763L48.3054 163.14C47.7088 163.514 47.2083 164.023 46.8443 164.626C46.4803 165.228 46.2629 165.908 46.2097 166.61Z" fill="#37474F"/>
<path d="M70.4388 150.353L48.3055 163.14C47.6722 163.474 47.1421 163.975 46.7724 164.588C46.4027 165.201 46.2073 165.904 46.2073 166.62C46.2073 167.336 46.4027 168.039 46.7724 168.652C47.1421 169.265 47.6722 169.766 48.3055 170.1L107.029 204.004C107.675 204.342 108.397 204.508 109.125 204.488V150.353H70.4388Z" fill="#263238"/>
<path d="M44.2399 163.208C43.6566 162.81 43.1749 162.281 42.8336 161.663C42.4923 161.045 42.3009 160.356 42.2749 159.65V89.572C42.3139 88.8447 42.524 88.1368 42.8882 87.5061C43.2523 86.8753 43.7602 86.3394 44.3706 85.942L124.715 39.5506C125.321 39.1702 126.02 38.9622 126.736 38.949C127.451 38.9358 128.157 39.1179 128.777 39.4757C129.397 39.8335 129.908 40.3535 130.255 40.9799C130.602 41.6062 130.771 42.3151 130.745 43.0305V113.114C130.706 113.841 130.495 114.548 130.131 115.179C129.767 115.81 129.259 116.346 128.65 116.744L48.3055 163.14C47.6807 163.47 46.9871 163.647 46.2808 163.659C45.5745 163.671 44.8754 163.516 44.2399 163.208Z" fill="#455A64"/>
<path d="M52.1098 92.8294L42.8896 87.5054C42.5224 88.1335 42.3209 88.8447 42.304 89.5721V159.65C42.33 160.356 42.5213 161.045 42.8626 161.663C43.204 162.281 43.6857 162.81 44.269 163.208C44.9046 163.514 45.6032 163.667 46.3086 163.653C47.014 163.64 47.7063 163.461 48.3298 163.13L57.4967 157.84L52.1098 92.8294Z" fill="#263238"/>
<path d="M46.2097 91.8468V161.92C46.2097 163.256 47.1487 163.798 48.3054 163.13L128.649 116.744C129.259 116.346 129.767 115.81 130.131 115.179C130.495 114.548 130.705 113.841 130.745 113.114V43.0354C130.745 41.6995 129.806 41.1575 128.649 41.8254L48.3054 88.2168C47.6951 88.6142 47.1871 89.1501 46.823 89.7809C46.4588 90.4116 46.2487 91.1195 46.2097 91.8468Z" fill="#37474F"/>
<path d="M48.3055 165.56L107.029 199.44C107.679 199.77 108.397 199.941 109.125 199.941C109.853 199.941 110.571 199.77 111.221 199.44L191.565 153.049C192.726 152.381 192.726 151.297 191.565 150.629L132.846 116.749C132.196 116.419 131.478 116.247 130.75 116.247C130.022 116.247 129.304 116.419 128.654 116.749L48.3055 163.14C47.1439 163.798 47.1439 164.882 48.3055 165.56Z" fill="#455A64"/>
<path d="M49.4332 92.1033L127.527 47.0187C128.219 46.6169 128.785 46.9412 128.785 47.7447V108.404C128.761 108.841 128.634 109.265 128.415 109.643C128.197 110.022 127.892 110.343 127.527 110.582L49.4332 155.667C48.7362 156.069 48.1748 155.744 48.1748 154.941V94.2813C48.1981 93.8447 48.3242 93.4199 48.5429 93.0414C48.7616 92.6629 49.0666 92.3414 49.4332 92.1033Z" fill="white"/>
<path d="M55.1204 163.735L129.7 120.659C130.025 120.495 130.384 120.409 130.748 120.409C131.112 120.409 131.471 120.495 131.796 120.659L135.614 122.862C135.741 122.904 135.851 122.986 135.928 123.094C136.006 123.203 136.048 123.333 136.048 123.467C136.048 123.6 136.006 123.73 135.928 123.839C135.851 123.947 135.741 124.029 135.614 124.072L61.0203 167.143C60.6955 167.307 60.3366 167.393 59.9725 167.393C59.6084 167.393 59.2494 167.307 58.9246 167.143L55.1204 164.945C54.9939 164.902 54.8841 164.821 54.8064 164.713C54.7286 164.604 54.6868 164.474 54.6868 164.34C54.6868 164.207 54.7286 164.077 54.8064 163.968C54.8841 163.86 54.9939 163.778 55.1204 163.735Z" fill="#263238"/>
<path d="M64.9553 169.432L139.53 126.356C139.856 126.191 140.215 126.106 140.58 126.106C140.945 126.106 141.305 126.191 141.631 126.356L165.09 139.908C165.216 139.951 165.326 140.032 165.404 140.141C165.482 140.249 165.524 140.379 165.524 140.513C165.524 140.646 165.482 140.777 165.404 140.885C165.326 140.994 165.216 141.075 165.09 141.118L90.5976 184.107C90.272 184.271 89.9122 184.357 89.5473 184.357C89.1824 184.357 88.8227 184.271 88.497 184.107L64.9553 170.618C64.8349 170.572 64.7313 170.491 64.6582 170.385C64.5851 170.279 64.5459 170.154 64.5459 170.025C64.5459 169.896 64.5851 169.771 64.6582 169.665C64.7313 169.559 64.8349 169.478 64.9553 169.432Z" fill="#263238"/>
<path d="M131.805 145.716L134.143 144.366C134.24 144.308 134.235 144.216 134.143 144.153L131.442 142.594C131.384 142.564 131.321 142.549 131.256 142.549C131.191 142.549 131.127 142.564 131.069 142.594L128.736 143.945C128.635 144.003 128.64 144.095 128.736 144.158L131.437 145.716C131.494 145.745 131.557 145.76 131.621 145.76C131.685 145.76 131.748 145.745 131.805 145.716ZM127.197 140.392L124.864 141.742C124.763 141.796 124.768 141.892 124.864 141.955L127.565 143.514C127.623 143.544 127.687 143.559 127.752 143.559C127.816 143.559 127.88 143.544 127.938 143.514L130.276 142.163C130.372 142.105 130.368 142.009 130.276 141.95L127.57 140.392C127.512 140.362 127.449 140.347 127.384 140.347C127.319 140.347 127.255 140.362 127.197 140.392ZM119.657 144.748L115.702 147.028C115.606 147.086 115.61 147.183 115.702 147.245L118.403 148.804C118.461 148.834 118.525 148.849 118.589 148.849C118.654 148.849 118.718 148.834 118.776 148.804L122.725 146.524C122.827 146.466 122.817 146.369 122.725 146.311L120.024 144.748C119.968 144.718 119.905 144.703 119.841 144.703C119.777 144.703 119.713 144.718 119.657 144.748ZM123.785 142.362L121.452 143.712C121.351 143.77 121.355 143.867 121.452 143.925L124.153 145.484C124.211 145.513 124.275 145.529 124.339 145.529C124.404 145.529 124.468 145.513 124.526 145.484L126.863 144.133C126.96 144.075 126.955 143.983 126.863 143.92L124.158 142.328C124.1 142.298 124.036 142.283 123.971 142.283C123.907 142.283 123.843 142.298 123.785 142.328V142.362ZM114.623 147.652L112.29 148.998C112.189 149.056 112.198 149.152 112.29 149.215L114.991 150.774C115.048 150.802 115.111 150.817 115.175 150.817C115.239 150.817 115.302 150.802 115.359 150.774L117.696 149.423C117.793 149.365 117.788 149.269 117.696 149.21L114.996 147.652C114.938 147.622 114.874 147.607 114.809 147.607C114.745 147.607 114.681 147.622 114.623 147.652ZM111.235 149.622L108.902 150.972C108.801 151.025 108.81 151.122 108.902 151.185L111.603 152.744C111.66 152.773 111.724 152.789 111.789 152.789C111.854 152.789 111.918 152.773 111.976 152.744L114.313 151.393C114.41 151.335 114.405 151.238 114.313 151.18L111.584 149.588C111.526 149.558 111.462 149.543 111.397 149.543C111.332 149.543 111.268 149.558 111.211 149.588L111.235 149.622ZM121.859 155.962L124.192 154.612C124.293 154.554 124.284 154.462 124.192 154.399L121.491 152.84C121.434 152.811 121.371 152.795 121.307 152.795C121.243 152.795 121.18 152.811 121.123 152.84L118.785 154.191C118.689 154.249 118.693 154.341 118.785 154.404L121.486 155.962C121.542 155.984 121.603 155.994 121.663 155.989C121.723 155.985 121.782 155.968 121.835 155.938L121.859 155.962ZM118.442 157.932L120.78 156.582C120.876 156.529 120.871 156.432 120.78 156.369L118.079 154.81C118.021 154.781 117.957 154.765 117.892 154.765C117.828 154.765 117.764 154.781 117.706 154.81L115.373 156.161C115.272 156.219 115.281 156.316 115.373 156.374L118.074 157.932C118.129 157.954 118.189 157.963 118.249 157.959C118.308 157.955 118.366 157.938 118.418 157.908L118.442 157.932ZM115.03 159.902L117.367 158.557C117.464 158.498 117.459 158.402 117.367 158.339L114.667 156.78C114.609 156.752 114.545 156.737 114.48 156.737C114.416 156.737 114.352 156.752 114.294 156.78L111.961 158.131C111.859 158.189 111.869 158.285 111.961 158.344L114.657 159.902C114.713 159.924 114.774 159.933 114.834 159.929C114.894 159.925 114.953 159.908 115.005 159.878L115.03 159.902ZM111.642 161.872L113.979 160.526C114.076 160.468 114.071 160.372 113.979 160.309L111.279 158.75C111.221 158.72 111.157 158.705 111.092 158.705C111.027 158.705 110.964 158.72 110.906 158.75L108.573 160.096C108.471 160.154 108.476 160.251 108.573 160.313L111.274 161.872C111.379 161.906 111.494 161.898 111.593 161.848L111.642 161.872ZM128.441 147.72L130.779 146.369C130.876 146.316 130.871 146.219 130.779 146.156L128.078 144.598C128.02 144.569 127.957 144.554 127.892 144.554C127.827 144.554 127.764 144.569 127.706 144.598L125.373 145.948C125.271 146.006 125.276 146.103 125.373 146.161L128.073 147.72C128.126 147.738 128.181 147.745 128.236 147.74C128.291 147.736 128.344 147.721 128.393 147.696L128.441 147.72ZM125.295 154.012L130.503 151.001C130.6 150.948 130.595 150.851 130.503 150.788L123.945 147.003C123.887 146.974 123.823 146.958 123.759 146.958C123.694 146.958 123.63 146.974 123.572 147.003L120.881 148.562C120.78 148.615 120.789 148.712 120.881 148.775L124.356 150.779C124.463 150.842 124.468 150.938 124.356 150.996L122.164 152.187C122.067 152.24 122.072 152.337 122.164 152.4L124.874 153.944C124.93 153.978 124.993 153.997 125.058 154.001C125.122 154.006 125.187 153.994 125.247 153.968L125.295 154.012ZM107.847 151.592L105.514 152.942C105.413 153 105.417 153.092 105.514 153.155L108.215 154.714C108.273 154.743 108.336 154.759 108.401 154.759C108.466 154.759 108.53 154.743 108.588 154.714L110.925 153.363C111.022 153.305 111.017 153.213 110.925 153.15L108.225 151.592C108.163 151.549 108.09 151.524 108.015 151.519C107.94 151.515 107.865 151.532 107.799 151.568L107.847 151.592ZM104.459 153.562L102.049 154.912C101.952 154.97 101.957 155.067 102.049 155.125L104.749 156.683C104.807 156.713 104.871 156.729 104.936 156.729C105.001 156.729 105.065 156.713 105.122 156.683L107.46 155.333C107.557 155.28 107.552 155.183 107.46 155.12L104.74 153.547C104.685 153.519 104.625 153.504 104.564 153.502C104.503 153.5 104.442 153.512 104.386 153.537L104.459 153.562ZM87.3158 175.632C87.3734 175.662 87.4373 175.677 87.5021 175.677C87.5669 175.677 87.6308 175.662 87.6884 175.632L90.0262 174.282C90.123 174.228 90.1181 174.132 90.0262 174.069L87.3158 172.52C87.2581 172.49 87.1943 172.475 87.1294 172.475C87.0646 172.475 87.0007 172.49 86.9431 172.52L84.6102 173.87C84.5086 173.928 84.5134 174.025 84.6102 174.083L87.3158 175.632ZM77.0695 169.301L74.7318 170.652C74.635 170.71 74.6398 170.802 74.7318 170.865L77.4325 172.423C77.4901 172.453 77.554 172.468 77.6188 172.468C77.6837 172.468 77.7475 172.453 77.8052 172.423L80.1429 171.073C80.2397 171.015 80.2348 170.923 80.1429 170.86L77.4422 169.301C77.3864 169.274 77.3252 169.26 77.2631 169.26C77.201 169.26 77.1397 169.274 77.084 169.301H77.0695ZM82.5629 173.924C82.6205 173.953 82.6844 173.969 82.7492 173.969C82.8141 173.969 82.8779 173.953 82.9356 173.924L85.2684 172.573C85.3701 172.52 85.3604 172.423 85.2684 172.36L82.5726 170.802C82.5149 170.772 82.4511 170.756 82.3862 170.756C82.3214 170.756 82.2575 170.772 82.1999 170.802L79.8622 172.152C79.7654 172.21 79.7702 172.307 79.8622 172.365L82.5629 173.924ZM93.3416 176.828L95.6793 175.477C95.7761 175.419 95.7712 175.327 95.6793 175.264L92.9786 173.706C92.9209 173.676 92.8571 173.66 92.7922 173.66C92.7274 173.66 92.6635 173.676 92.6059 173.706L90.273 175.056C90.1714 175.109 90.181 175.206 90.273 175.269L92.9689 176.828C93.0279 176.86 93.0943 176.878 93.1619 176.879C93.2295 176.88 93.2962 176.864 93.3561 176.832L93.3416 176.828ZM89.5567 178.764C89.6143 178.793 89.6782 178.809 89.743 178.809C89.8079 178.809 89.8717 178.793 89.9294 178.764L92.2671 177.413C92.3639 177.36 92.359 177.263 92.2671 177.2L89.5664 175.642C89.5087 175.612 89.4449 175.596 89.38 175.596C89.3152 175.596 89.2513 175.612 89.1937 175.642L86.8608 176.992C86.7592 177.05 86.764 177.147 86.8608 177.205L89.5567 178.764ZM80.4817 167.302L78.1488 168.653C78.0472 168.706 78.052 168.803 78.1488 168.866L80.8495 170.424C80.9071 170.454 80.971 170.469 81.0359 170.469C81.1007 170.469 81.1646 170.454 81.2222 170.424L83.5599 169.074C83.6567 169.016 83.6519 168.919 83.5599 168.861L80.8592 167.302C80.8006 167.279 80.7373 167.269 80.6743 167.274C80.6113 167.279 80.5503 167.299 80.4962 167.331L80.4817 167.302ZM97.5475 157.453L95.2098 158.799C95.113 158.857 95.1178 158.953 95.2098 159.011L97.9105 160.575C97.9685 160.603 98.0322 160.618 98.0969 160.618C98.1615 160.618 98.2253 160.603 98.2832 160.575L100.616 159.229C100.718 159.171 100.713 159.074 100.616 159.011L97.9154 157.453C97.8581 157.431 97.7966 157.422 97.7354 157.427C97.6742 157.432 97.6149 157.451 97.562 157.482L97.5475 157.453ZM83.9278 165.362L81.5949 166.707C81.4932 166.765 81.4981 166.862 81.5949 166.925L84.2956 168.483C84.3536 168.512 84.4173 168.527 84.4819 168.527C84.5466 168.527 84.6103 168.512 84.6683 168.483L87.006 167.133C87.1028 167.075 87.098 166.978 87.006 166.92L84.3053 165.357C84.2463 165.328 84.1815 165.314 84.1159 165.314C84.0504 165.315 83.986 165.331 83.9278 165.362ZM100.994 155.507L98.6365 156.848C98.5397 156.906 98.5446 157.003 98.6365 157.061L101.337 158.619C101.395 158.649 101.459 158.665 101.524 158.665C101.588 158.665 101.652 158.649 101.71 158.619L104.043 157.274C104.144 157.216 104.14 157.119 104.043 157.056L101.352 155.517C101.294 155.486 101.23 155.469 101.164 155.467C101.099 155.466 101.034 155.479 100.974 155.507H100.994ZM94.1692 159.452L91.8315 160.797C91.7347 160.856 91.7395 160.952 91.8315 161.015L94.5322 162.574C94.5902 162.602 94.6539 162.617 94.7185 162.617C94.7832 162.617 94.8469 162.602 94.9049 162.574L97.2378 161.228C97.3394 161.17 97.3297 161.073 97.2378 161.01L94.5419 159.452C94.4814 159.42 94.4142 159.404 94.3459 159.404C94.2776 159.404 94.2103 159.42 94.1498 159.452H94.1692ZM90.7522 161.422L88.4193 162.767C88.3176 162.825 88.3273 162.922 88.4193 162.985L91.12 164.544C91.178 164.572 91.2417 164.587 91.3063 164.587C91.371 164.587 91.4347 164.572 91.4927 164.544L93.8256 163.198C93.9224 163.14 93.9175 163.043 93.8256 162.98L91.1248 161.422C91.0644 161.39 90.9971 161.373 90.9288 161.373C90.8605 161.373 90.7933 161.39 90.7328 161.422H90.7522ZM87.3158 163.392L84.9829 164.737C84.8812 164.795 84.8909 164.892 84.9829 164.955L87.6788 166.513C87.7364 166.543 87.8003 166.559 87.8651 166.559C87.9299 166.559 87.9938 166.543 88.0514 166.513L90.3892 165.168C90.486 165.11 90.4811 165.013 90.3892 164.95L87.6884 163.392C87.6305 163.363 87.5667 163.348 87.5021 163.348C87.4375 163.348 87.3737 163.363 87.3158 163.392ZM104.764 165.812L107.097 164.466C107.198 164.408 107.194 164.311 107.097 164.248L104.391 162.656C104.333 162.627 104.27 162.613 104.205 162.613C104.14 162.613 104.077 162.627 104.019 162.656L101.681 164.002C101.584 164.06 101.589 164.156 101.681 164.219L104.382 165.778C104.44 165.811 104.506 165.83 104.574 165.832C104.642 165.833 104.709 165.818 104.769 165.787L104.764 165.812ZM134.748 136.036L132.41 137.386C132.313 137.444 132.318 137.536 132.41 137.599L135.111 139.158C135.168 139.188 135.232 139.203 135.297 139.203C135.362 139.203 135.426 139.188 135.483 139.158L137.816 137.807C137.918 137.749 137.913 137.657 137.816 137.594L135.116 136.036C135.059 136.007 134.996 135.992 134.932 135.992C134.868 135.992 134.805 136.007 134.748 136.036ZM130.614 138.422L128.282 139.772C128.18 139.826 128.19 139.923 128.282 139.985L130.977 141.544C131.035 141.573 131.099 141.587 131.164 141.587C131.228 141.587 131.292 141.573 131.35 141.544L133.688 140.194C133.785 140.135 133.78 140.039 133.688 139.981L130.987 138.422C130.931 138.388 130.867 138.368 130.801 138.363C130.736 138.359 130.67 138.371 130.61 138.398L130.614 138.422ZM138.16 134.066L135.827 135.416C135.725 135.47 135.73 135.567 135.827 135.629L138.528 137.188C138.585 137.218 138.649 137.233 138.714 137.233C138.779 137.233 138.843 137.218 138.9 137.188L141.238 135.838C141.335 135.779 141.33 135.683 141.238 135.625L138.537 134.066C138.478 134.028 138.41 134.005 138.34 134.001C138.269 133.997 138.199 134.011 138.136 134.042L138.16 134.066ZM120.494 152.284L122.832 150.934C122.928 150.875 122.924 150.779 122.832 150.721L120.131 149.162C120.073 149.132 120.009 149.117 119.945 149.117C119.88 149.117 119.816 149.132 119.758 149.162L117.425 150.512C117.324 150.566 117.329 150.662 117.425 150.725L120.126 152.284C120.184 152.308 120.247 152.319 120.31 152.315C120.373 152.31 120.435 152.292 120.489 152.26L120.494 152.284ZM141.945 132.106C141.887 132.076 141.823 132.061 141.758 132.061C141.694 132.061 141.63 132.076 141.572 132.106L139.239 133.456C139.138 133.51 139.142 133.606 139.239 133.669L141.94 135.228C141.998 135.256 142.062 135.271 142.126 135.271C142.191 135.271 142.255 135.256 142.313 135.228L144.65 133.877C144.747 133.819 144.742 133.722 144.65 133.664L141.945 132.106ZM108.181 163.818L110.519 162.472C110.616 162.414 110.611 162.317 110.519 162.254L107.803 160.72C107.746 160.69 107.682 160.675 107.617 160.675C107.552 160.675 107.488 160.69 107.431 160.72L105.098 162.066C104.996 162.124 105.001 162.22 105.098 162.283L107.799 163.842C107.86 163.868 107.926 163.88 107.993 163.876C108.059 163.871 108.124 163.852 108.181 163.818ZM150.032 139.656L152.37 138.306C152.467 138.253 152.462 138.156 152.37 138.093L149.655 136.52C149.597 136.49 149.533 136.475 149.469 136.475C149.404 136.475 149.34 136.49 149.282 136.52L146.949 137.87C146.848 137.928 146.853 138.025 146.949 138.083L149.65 139.642C149.708 139.675 149.773 139.694 149.839 139.697C149.906 139.699 149.972 139.685 150.032 139.656ZM142.772 139.4L145.11 138.049C145.207 137.991 145.202 137.899 145.11 137.836L142.409 136.278C142.352 136.248 142.288 136.233 142.223 136.233C142.158 136.233 142.094 136.248 142.037 136.278L139.704 137.628C139.602 137.686 139.607 137.778 139.704 137.841L142.405 139.4C142.459 139.431 142.519 139.449 142.581 139.454C142.643 139.458 142.705 139.448 142.763 139.424L142.772 139.4ZM145.807 134.308C145.75 134.278 145.686 134.263 145.621 134.263C145.556 134.263 145.492 134.278 145.434 134.308L143.102 135.658C143 135.712 143.005 135.809 143.102 135.871L145.802 137.43C145.86 137.46 145.924 137.475 145.989 137.475C146.053 137.475 146.117 137.46 146.175 137.43L148.513 136.08C148.61 136.021 148.605 135.925 148.513 135.867L145.807 134.308ZM146.528 133.892L153.082 137.677C153.139 137.706 153.203 137.722 153.268 137.722C153.333 137.722 153.397 137.706 153.454 137.677L155.792 136.326C155.889 136.268 155.884 136.176 155.792 136.113L149.234 132.329C149.176 132.299 149.112 132.283 149.048 132.283C148.983 132.283 148.919 132.299 148.861 132.329L146.528 133.679C146.402 133.732 146.412 133.829 146.519 133.892H146.528ZM138.61 138.248L136.272 139.598C136.176 139.656 136.18 139.753 136.272 139.811L138.973 141.37C139.031 141.399 139.095 141.415 139.159 141.415C139.224 141.415 139.288 141.399 139.346 141.37L141.679 140.019C141.78 139.966 141.775 139.869 141.679 139.806L138.978 138.248C138.923 138.219 138.862 138.203 138.8 138.201C138.738 138.2 138.676 138.212 138.62 138.238L138.61 138.248ZM112.924 153.078L110.577 154.428C110.48 154.486 110.485 154.583 110.577 154.641L113.278 156.199C113.335 156.229 113.399 156.245 113.464 156.245C113.529 156.245 113.593 156.229 113.65 156.199L115.983 154.849C116.085 154.796 116.08 154.699 115.983 154.636L113.282 153.078C113.226 153.047 113.164 153.03 113.1 153.029C113.036 153.027 112.972 153.041 112.915 153.068L112.924 153.078ZM146.257 141.626C146.315 141.656 146.379 141.671 146.444 141.671C146.508 141.671 146.572 141.656 146.63 141.626L148.968 140.276C149.064 140.223 149.06 140.126 148.968 140.063L146.267 138.504C146.209 138.476 146.145 138.461 146.081 138.461C146.016 138.461 145.952 138.476 145.894 138.504L143.561 139.855C143.46 139.913 143.465 140.01 143.561 140.068L146.257 141.626ZM116.336 151.108L114.004 152.458C113.902 152.516 113.907 152.608 114.004 152.671L116.704 154.23C116.762 154.259 116.826 154.275 116.891 154.275C116.955 154.275 117.019 154.259 117.077 154.23L119.415 152.879C119.511 152.821 119.507 152.729 119.415 152.666L116.714 151.108C116.655 151.074 116.589 151.056 116.522 151.054C116.454 151.052 116.387 151.067 116.327 151.098L116.336 151.108ZM90.7522 173.672C90.8098 173.702 90.8737 173.717 90.9385 173.717C91.0033 173.717 91.0672 173.702 91.1248 173.672L93.4626 172.321C93.5594 172.263 93.5545 172.171 93.4626 172.109L90.7618 170.55C90.7042 170.52 90.6403 170.505 90.5755 170.505C90.5107 170.505 90.4468 170.52 90.3892 170.55L88.0563 171.9C87.9546 171.958 87.9643 172.05 88.0563 172.113L90.7522 173.672ZM85.6218 168.832L83.284 170.182C83.1872 170.24 83.1921 170.332 83.284 170.395L85.9848 171.954C86.0424 171.983 86.1063 171.999 86.1711 171.999C86.2359 171.999 86.2998 171.983 86.3574 171.954L88.6903 170.603C88.792 170.545 88.7871 170.453 88.6903 170.39L85.9896 168.832C85.9314 168.801 85.8666 168.785 85.8008 168.785C85.7351 168.785 85.6703 168.801 85.6121 168.832H85.6218ZM94.5419 171.702L96.8748 170.352C96.9716 170.294 96.9667 170.197 96.8748 170.139L94.174 168.58C94.1164 168.55 94.0525 168.535 93.9877 168.535C93.9229 168.535 93.859 168.55 93.8014 168.58L91.4443 169.916C91.3475 169.969 91.3523 170.066 91.4443 170.129L94.145 171.687C94.2032 171.722 94.2692 171.741 94.3368 171.744C94.4044 171.746 94.4716 171.732 94.5322 171.702H94.5419ZM97.9541 169.732L100.287 168.382C100.389 168.324 100.379 168.227 100.287 168.169L97.5911 166.61C97.5335 166.581 97.4696 166.565 97.4047 166.565C97.3399 166.565 97.276 166.581 97.2184 166.61L94.8807 167.956C94.7839 168.014 94.7887 168.111 94.8807 168.174L97.5814 169.732C97.6406 169.762 97.7061 169.778 97.7726 169.778C97.839 169.778 97.9046 169.762 97.9638 169.732H97.9541ZM101.342 167.757L103.675 166.412C103.777 166.354 103.772 166.257 103.675 166.199L100.974 164.636C100.916 164.607 100.853 164.592 100.788 164.592C100.723 164.592 100.66 164.607 100.602 164.636L98.2638 165.981C98.167 166.039 98.1719 166.136 98.2638 166.199L100.965 167.757C101.024 167.79 101.091 167.806 101.158 167.806C101.226 167.806 101.292 167.79 101.352 167.757H101.342ZM89.0098 166.862L86.672 168.212C86.5752 168.266 86.5801 168.362 86.672 168.425L89.3728 169.984C89.4304 170.013 89.4943 170.029 89.5591 170.029C89.6239 170.029 89.6878 170.013 89.7454 169.984L92.0832 168.633C92.18 168.575 92.1751 168.479 92.0832 168.42L89.3824 166.862C89.3267 166.835 89.2654 166.82 89.2034 166.82C89.1413 166.82 89.08 166.835 89.0243 166.862H89.0098ZM92.422 164.892L90.0891 166.238C89.9874 166.296 89.9923 166.392 90.0891 166.455L92.7898 168.014C92.8478 168.042 92.9115 168.057 92.9761 168.057C93.0408 168.057 93.1045 168.042 93.1625 168.014L95.5438 166.673C95.6406 166.615 95.6357 166.518 95.5438 166.46L92.843 164.902C92.7821 164.865 92.7124 164.844 92.6411 164.842C92.5697 164.841 92.4991 164.858 92.4365 164.892H92.422ZM106.076 157.013L103.772 158.358C103.675 158.416 103.68 158.513 103.772 158.576L106.472 160.134C106.53 160.163 106.594 160.178 106.659 160.178C106.723 160.178 106.787 160.163 106.845 160.134L109.178 158.789C109.28 158.731 109.27 158.634 109.178 158.571L106.482 157.013C106.422 156.979 106.355 156.962 106.286 156.962C106.218 156.962 106.15 156.979 106.09 157.013H106.076ZM102.659 158.982L100.326 160.328C100.229 160.386 100.234 160.483 100.326 160.546L103.026 162.104C103.084 162.133 103.148 162.148 103.213 162.148C103.277 162.148 103.341 162.133 103.399 162.104L105.732 160.759C105.834 160.701 105.824 160.604 105.732 160.541L103.031 158.982C102.975 158.956 102.914 158.942 102.852 158.942C102.79 158.942 102.729 158.956 102.673 158.982H102.659ZM109.488 155.038L107.16 156.388C107.063 156.446 107.068 156.543 107.16 156.601L109.86 158.164C109.918 158.193 109.982 158.208 110.047 158.208C110.111 158.208 110.175 158.193 110.233 158.164L112.566 156.814C112.668 156.761 112.663 156.664 112.566 156.601L109.865 155.043C109.809 155.015 109.747 155 109.684 154.999C109.622 154.998 109.559 155.012 109.502 155.038H109.488ZM95.8342 162.922L93.5013 164.268C93.3996 164.326 93.4045 164.423 93.5013 164.486L96.202 166.044C96.26 166.073 96.3237 166.087 96.3883 166.087C96.453 166.087 96.5167 166.073 96.5747 166.044L98.9124 164.694C99.0092 164.636 99.0044 164.539 98.9124 164.481L96.2117 162.917C96.1547 162.891 96.0924 162.878 96.0296 162.879C95.9668 162.879 95.905 162.894 95.8487 162.922H95.8342ZM99.2464 160.952L96.9135 162.298C96.8118 162.356 96.8215 162.453 96.9135 162.516L99.6142 164.074C99.671 164.104 99.7341 164.119 99.7981 164.119C99.8622 164.119 99.9253 164.104 99.982 164.074L102.32 162.729C102.417 162.671 102.412 162.574 102.32 162.511L99.619 160.952C99.563 160.926 99.5019 160.912 99.44 160.912C99.3781 160.912 99.3169 160.926 99.2609 160.952H99.2464ZM96.7586 174.862L99.0915 173.512C99.1883 173.454 99.1834 173.357 99.0915 173.299L96.3908 171.741C96.3331 171.711 96.2693 171.695 96.2044 171.695C96.1396 171.695 96.0757 171.711 96.0181 171.741L93.6852 173.091C93.5836 173.144 93.5932 173.241 93.6852 173.304L96.3859 174.862C96.4454 174.895 96.5119 174.912 96.5795 174.912C96.6471 174.912 96.7137 174.895 96.7731 174.862H96.7586ZM76.7452 172.82L74.0445 171.262C73.9869 171.232 73.923 171.216 73.8581 171.216C73.7933 171.216 73.7294 171.232 73.6718 171.262L71.3438 172.622C71.247 172.68 71.2518 172.772 71.3438 172.835L74.0445 174.393C74.1021 174.423 74.166 174.438 74.2308 174.438C74.2957 174.438 74.3595 174.423 74.4172 174.393L76.75 173.043C76.8565 172.999 76.8517 172.902 76.7452 172.82ZM81.8562 174.32L79.1555 172.762C79.0984 172.733 79.0354 172.718 78.9716 172.718C78.9078 172.718 78.8448 172.733 78.7877 172.762L75.2158 174.848C75.119 174.906 75.1238 175.003 75.2158 175.061L77.9165 176.619C77.9741 176.649 78.038 176.665 78.1028 176.665C78.1677 176.665 78.2315 176.649 78.2892 176.619L81.8804 174.548C81.9918 174.499 81.9627 174.403 81.8562 174.34V174.32ZM72.6022 169.805L69.8918 168.266C69.8341 168.236 69.7703 168.22 69.7054 168.22C69.6406 168.22 69.5767 168.236 69.5191 168.266L66.6538 169.916C66.557 169.974 66.5618 170.071 66.6538 170.134L69.3545 171.692C69.4121 171.722 69.476 171.737 69.5409 171.737C69.6057 171.737 69.6696 171.722 69.7272 171.692L72.5973 170.037C72.7135 169.984 72.7086 169.887 72.6022 169.824V169.805ZM74.8044 168.532C74.862 168.561 74.9259 168.577 74.9907 168.577C75.0555 168.577 75.1194 168.561 75.177 168.532L77.5099 167.181C77.6116 167.128 77.6067 167.031 77.5099 166.968L74.8092 165.41C74.7516 165.38 74.6877 165.365 74.6229 165.365C74.558 165.365 74.4941 165.38 74.4365 165.41L72.0988 166.76C72.002 166.818 72.0068 166.915 72.0988 166.973L74.8044 168.532ZM86.614 176.029L83.9278 174.49C83.8698 174.461 83.8061 174.446 83.7414 174.446C83.6768 174.446 83.613 174.461 83.5551 174.49L79.0636 177.084C78.9668 177.142 78.9716 177.239 79.0636 177.297L81.7643 178.86C81.8222 178.889 81.886 178.904 81.9506 178.904C82.0152 178.904 82.079 178.889 82.137 178.86L86.6285 176.266C86.7253 176.208 86.7204 176.111 86.614 176.048V176.029ZM88.8549 179.189L86.1542 177.66C86.0965 177.63 86.0327 177.615 85.9678 177.615C85.903 177.615 85.8391 177.63 85.7815 177.66L82.9065 179.32C82.8097 179.378 82.8146 179.475 82.9065 179.538L85.6072 181.096C85.6652 181.125 85.729 181.14 85.7936 181.14C85.8582 181.14 85.922 181.125 85.9799 181.096L88.8549 179.436C88.9662 179.369 88.9614 179.272 88.8549 179.209V179.189ZM100.18 153.881C100.238 153.911 100.302 153.926 100.367 153.926C100.432 153.926 100.496 153.911 100.553 153.881L102.886 152.536C102.988 152.477 102.978 152.381 102.886 152.318L100.185 150.759C100.127 150.731 100.064 150.716 99.999 150.716C99.9344 150.716 99.8706 150.731 99.8126 150.759L97.4798 152.129C97.383 152.187 97.3878 152.284 97.4798 152.342L100.18 153.881ZM93.3512 157.826C93.4092 157.854 93.473 157.869 93.5376 157.869C93.6022 157.869 93.666 157.854 93.7239 157.826L96.0616 156.48C96.1584 156.422 96.1536 156.325 96.0616 156.262L93.3609 154.704C93.303 154.675 93.2392 154.66 93.1746 154.66C93.11 154.66 93.0462 154.675 92.9882 154.704L90.6554 156.049C90.5537 156.107 90.5634 156.204 90.6554 156.267L93.3512 157.826ZM78.2166 166.581C78.2742 166.611 78.3381 166.626 78.4029 166.626C78.4677 166.626 78.5316 166.611 78.5892 166.581L80.9221 165.231C81.0238 165.173 81.0189 165.081 80.9221 165.018L78.2214 163.459C78.1638 163.43 78.0999 163.414 78.0351 163.414C77.9702 163.414 77.9063 163.43 77.8487 163.459L75.511 164.81C75.4142 164.868 75.419 164.96 75.511 165.023L78.2166 166.581ZM96.7683 155.88C96.8254 155.909 96.8884 155.923 96.9522 155.923C97.0161 155.923 97.079 155.909 97.1361 155.88L99.4738 154.534C99.5706 154.476 99.5658 154.38 99.4738 154.317L96.7731 152.758C96.7155 152.728 96.6516 152.713 96.5868 152.713C96.522 152.713 96.4581 152.728 96.4004 152.758L94.0676 154.104C93.9659 154.162 93.9756 154.259 94.0676 154.322L96.7683 155.88ZM89.939 159.82C89.9967 159.849 90.0606 159.865 90.1254 159.865C90.1902 159.865 90.2541 159.849 90.3117 159.82L92.6494 158.474C92.7462 158.416 92.7414 158.319 92.6494 158.256L89.9487 156.698C89.8908 156.669 89.827 156.654 89.7624 156.654C89.6978 156.654 89.634 156.669 89.576 156.698L87.2432 158.043C87.1415 158.102 87.1464 158.198 87.2432 158.261L89.939 159.82ZM90.728 179.465C90.67 179.437 90.6062 179.422 90.5416 179.422C90.477 179.422 90.4132 179.437 90.3553 179.465L86.764 181.532C86.6672 181.59 86.672 181.687 86.764 181.75L89.4647 183.308C89.5223 183.338 89.5862 183.353 89.6511 183.353C89.7159 183.353 89.7798 183.338 89.8374 183.308L93.4287 181.237C93.5303 181.179 93.5206 181.082 93.4287 181.019L90.728 179.465ZM85.041 162.656C85.0989 162.685 85.1627 162.699 85.2273 162.699C85.2919 162.699 85.3557 162.685 85.4136 162.656L87.7514 161.306C87.8482 161.248 87.8433 161.151 87.7514 161.093L85.0506 159.534C84.993 159.504 84.9291 159.489 84.8643 159.489C84.7995 159.489 84.7356 159.504 84.678 159.534L82.3451 160.885C82.2434 160.938 82.2483 161.035 82.3451 161.098L85.041 162.656ZM81.6288 164.592C81.6864 164.622 81.7503 164.637 81.8151 164.637C81.8799 164.637 81.9438 164.622 82.0014 164.592L84.3392 163.242C84.436 163.184 84.4311 163.087 84.3392 163.029L81.6384 161.47C81.5808 161.44 81.5169 161.425 81.4521 161.425C81.3873 161.425 81.3234 161.44 81.2658 161.47L78.9329 162.821C78.8312 162.874 78.8361 162.971 78.9329 163.034L81.6288 164.592ZM153.958 142.957C153.9 142.927 153.836 142.912 153.771 142.912C153.707 142.912 153.643 142.927 153.585 142.957L147.816 146.268C147.719 146.326 147.724 146.423 147.816 146.486L150.516 148.044C150.574 148.073 150.638 148.087 150.703 148.087C150.767 148.087 150.831 148.073 150.889 148.044L156.668 144.748C156.77 144.69 156.765 144.593 156.668 144.53L153.958 142.957ZM146.412 147.313C146.355 147.283 146.291 147.268 146.226 147.268C146.161 147.268 146.097 147.283 146.039 147.313L143.707 148.659C143.605 148.717 143.61 148.814 143.707 148.877L146.407 150.435C146.465 150.464 146.529 150.478 146.594 150.478C146.658 150.478 146.722 150.464 146.78 150.435L149.118 149.089C149.215 149.031 149.21 148.935 149.118 148.872L146.412 147.313ZM100.185 172.893L102.518 171.542C102.62 171.484 102.61 171.387 102.518 171.329L99.8223 169.766C99.7644 169.737 99.7006 169.722 99.636 169.722C99.5714 169.722 99.5076 169.737 99.4496 169.766L97.1119 171.111C97.0151 171.17 97.02 171.266 97.1119 171.329L99.8126 172.888C99.8702 172.917 99.9338 172.933 99.9984 172.934C100.063 172.934 100.127 172.92 100.185 172.893ZM139.588 151.253C139.53 151.224 139.466 151.209 139.401 151.209C139.337 151.209 139.273 151.224 139.215 151.253L136.877 152.598C136.781 152.657 136.785 152.753 136.877 152.816L139.578 154.375C139.636 154.404 139.7 154.42 139.764 154.42C139.829 154.42 139.893 154.404 139.951 154.375L142.284 153.029C142.385 152.971 142.38 152.874 142.284 152.811L139.588 151.253ZM157.37 140.987C157.312 140.959 157.248 140.944 157.184 140.944C157.119 140.944 157.055 140.959 156.997 140.987L154.664 142.328C154.563 142.386 154.568 142.483 154.664 142.541L157.365 144.104C157.423 144.133 157.487 144.148 157.551 144.148C157.616 144.148 157.68 144.133 157.738 144.104L160.075 142.759C160.172 142.701 160.167 142.604 160.075 142.541L157.37 140.987ZM163.483 140.576L156.925 136.791C156.867 136.761 156.803 136.746 156.738 136.746C156.673 136.746 156.61 136.761 156.552 136.791L154.219 138.141C154.117 138.199 154.122 138.296 154.219 138.354L160.777 142.139C160.835 142.169 160.899 142.184 160.964 142.184C161.028 142.184 161.092 142.169 161.15 142.139L163.488 140.789C163.594 140.736 163.589 140.639 163.483 140.576ZM126.834 158.619C126.777 158.59 126.713 158.574 126.648 158.574C126.583 158.574 126.519 158.59 126.462 158.619L123.587 160.28C123.49 160.338 123.495 160.434 123.587 160.493L126.287 162.051C126.345 162.081 126.409 162.096 126.474 162.096C126.539 162.096 126.603 162.081 126.66 162.051L129.535 160.391C129.632 160.333 129.627 160.236 129.535 160.178L126.834 158.619ZM135.454 153.639C135.397 153.609 135.333 153.594 135.268 153.594C135.203 153.594 135.139 153.609 135.082 153.639L131.49 155.711C131.394 155.769 131.398 155.865 131.49 155.924L134.191 157.487C134.249 157.515 134.313 157.53 134.377 157.53C134.442 157.53 134.506 157.515 134.564 157.487L138.155 155.415C138.252 155.357 138.247 155.26 138.155 155.198L135.454 153.639ZM118.931 163.179C118.873 163.15 118.809 163.135 118.744 163.135C118.68 163.135 118.616 163.15 118.558 163.179L99.3383 174.272C99.2415 174.33 99.2464 174.427 99.3383 174.49L102.039 176.048C102.097 176.077 102.161 176.092 102.225 176.092C102.29 176.092 102.354 176.077 102.412 176.048L121.631 164.95C121.728 164.892 121.723 164.795 121.631 164.732L118.931 163.179ZM98.6317 174.901C98.5741 174.871 98.5102 174.856 98.4453 174.856C98.3805 174.856 98.3166 174.871 98.259 174.901L95.3889 176.561C95.2872 176.619 95.2921 176.716 95.3889 176.774L98.0896 178.333C98.1472 178.362 98.2111 178.378 98.2759 178.378C98.3408 178.378 98.4047 178.362 98.4623 178.333L101.352 176.692C101.449 176.634 101.444 176.537 101.352 176.479L98.6317 174.901ZM122.88 160.899C122.822 160.87 122.758 160.856 122.694 160.856C122.629 160.856 122.565 160.87 122.507 160.899L119.637 162.559C119.536 162.617 119.54 162.714 119.637 162.777L122.338 164.335C122.396 164.364 122.46 164.379 122.524 164.379C122.589 164.379 122.653 164.364 122.711 164.335L125.586 162.675C125.687 162.622 125.678 162.525 125.586 162.462L122.88 160.899ZM94.6822 177.176C94.6243 177.147 94.5605 177.133 94.4959 177.133C94.4313 177.133 94.3675 177.147 94.3096 177.176L91.4346 178.836C91.3378 178.894 91.3426 178.991 91.4346 179.054L94.1353 180.612C94.1933 180.641 94.257 180.656 94.3217 180.656C94.3863 180.656 94.4501 180.641 94.508 180.612L97.3781 178.957C97.4798 178.899 97.4749 178.802 97.3781 178.739L94.6822 177.176ZM130.784 156.33C130.726 156.302 130.662 156.287 130.597 156.287C130.533 156.287 130.469 156.302 130.411 156.33L127.541 157.985C127.439 158.043 127.444 158.14 127.541 158.203L130.242 159.762C130.3 159.79 130.363 159.805 130.428 159.805C130.493 159.805 130.556 159.79 130.614 159.762L133.489 158.102C133.591 158.043 133.581 157.947 133.489 157.884L130.784 156.33ZM143 149.278C142.942 149.249 142.878 149.233 142.814 149.233C142.749 149.233 142.685 149.249 142.627 149.278L140.294 150.624C140.193 150.682 140.198 150.779 140.294 150.842L142.995 152.4C143.053 152.429 143.117 152.443 143.181 152.443C143.246 152.443 143.31 152.429 143.368 152.4L145.706 151.055C145.802 150.996 145.797 150.9 145.706 150.837L143 149.278ZM150.478 143.848L152.811 142.502C152.912 142.444 152.907 142.347 152.811 142.284L150.11 140.726C150.052 140.697 149.988 140.682 149.924 140.682C149.859 140.682 149.795 140.697 149.737 140.726L147.4 142.076C147.303 142.134 147.308 142.231 147.4 142.289L150.1 143.853C150.159 143.882 150.223 143.897 150.289 143.897C150.355 143.897 150.419 143.882 150.478 143.853V143.848ZM135.232 143.78L137.569 142.43C137.666 142.372 137.661 142.275 137.569 142.217L134.869 140.658C134.811 140.628 134.747 140.613 134.682 140.613C134.618 140.613 134.554 140.628 134.496 140.658L132.163 142.009C132.062 142.067 132.071 142.159 132.163 142.222L134.859 143.78C134.917 143.81 134.981 143.825 135.045 143.825C135.11 143.825 135.174 143.81 135.232 143.78ZM127.488 157.153L134.312 153.213C134.409 153.155 134.404 153.058 134.312 152.995L131.611 151.437C131.553 151.408 131.49 151.393 131.425 151.393C131.36 151.393 131.297 151.408 131.239 151.437L124.414 155.381C124.318 155.435 124.322 155.532 124.414 155.594L127.115 157.153C127.175 157.179 127.24 157.19 127.304 157.186C127.369 157.182 127.432 157.162 127.488 157.129V157.153ZM146.693 145.842C146.751 145.87 146.815 145.885 146.879 145.885C146.944 145.885 147.008 145.87 147.066 145.842L149.398 144.496C149.5 144.438 149.495 144.341 149.398 144.279L146.698 142.72C146.64 142.69 146.576 142.675 146.511 142.675C146.447 142.675 146.383 142.69 146.325 142.72L143.987 144.066C143.891 144.124 143.895 144.22 143.987 144.283L146.693 145.842ZM143.208 143.62L145.541 142.275C145.643 142.217 145.638 142.12 145.541 142.057L142.84 140.498C142.782 140.47 142.719 140.455 142.654 140.455C142.589 140.455 142.526 140.47 142.468 140.498L140.13 141.849C140.033 141.907 140.038 142.004 140.13 142.062L142.831 143.625C142.891 143.65 142.957 143.66 143.023 143.655C143.088 143.65 143.152 143.63 143.208 143.596V143.62ZM124.076 159.108L126.408 157.758C126.51 157.7 126.5 157.608 126.408 157.545L123.708 155.986C123.65 155.957 123.586 155.941 123.521 155.941C123.457 155.941 123.393 155.957 123.335 155.986L120.988 157.332C120.886 157.39 120.896 157.482 120.988 157.545L123.688 159.103C123.751 159.139 123.822 159.158 123.895 159.157C123.967 159.156 124.038 159.136 124.1 159.099L124.076 159.108ZM139.147 150.183C139.205 150.212 139.269 150.227 139.334 150.227C139.398 150.227 139.462 150.212 139.52 150.183L141.858 148.838C141.955 148.78 141.95 148.683 141.858 148.62L139.157 147.062C139.099 147.033 139.035 147.018 138.971 147.018C138.906 147.018 138.842 147.033 138.784 147.062L136.451 148.412C136.35 148.47 136.355 148.567 136.451 148.625L139.147 150.183ZM107.01 168.948L109.343 167.602C109.444 167.544 109.439 167.448 109.343 167.385L106.642 165.826C106.584 165.798 106.52 165.783 106.456 165.783C106.391 165.783 106.327 165.798 106.269 165.826L103.931 167.172C103.835 167.23 103.84 167.327 103.931 167.39L106.632 168.948C106.691 168.977 106.755 168.993 106.821 168.993C106.887 168.993 106.951 168.977 107.01 168.948ZM110.422 166.978L112.76 165.633C112.856 165.575 112.852 165.478 112.76 165.415L110.064 163.856C110.006 163.827 109.942 163.811 109.877 163.811C109.813 163.811 109.749 163.827 109.691 163.856L107.353 165.202C107.257 165.26 107.261 165.357 107.353 165.42L110.054 166.978C110.111 167.006 110.174 167.02 110.238 167.02C110.302 167.02 110.365 167.006 110.422 166.978ZM103.598 170.918L105.93 169.572C106.032 169.514 106.027 169.417 105.93 169.355L103.235 167.796C103.177 167.767 103.113 167.753 103.048 167.753C102.984 167.753 102.92 167.767 102.862 167.796L100.524 169.142C100.427 169.2 100.432 169.296 100.524 169.359L103.225 170.918C103.282 170.948 103.346 170.963 103.411 170.963C103.476 170.963 103.54 170.948 103.598 170.918ZM117.246 163.038L119.584 161.693C119.681 161.635 119.676 161.538 119.584 161.475L116.883 159.917C116.825 159.888 116.762 159.873 116.697 159.873C116.632 159.873 116.569 159.888 116.511 159.917L114.178 161.267C114.076 161.325 114.081 161.422 114.178 161.48L116.878 163.038C116.935 163.067 116.998 163.082 117.062 163.082C117.126 163.082 117.189 163.067 117.246 163.038ZM113.858 165.008L116.196 163.663C116.293 163.605 116.288 163.508 116.196 163.445L113.452 161.886C113.394 161.857 113.33 161.841 113.265 161.841C113.201 161.841 113.137 161.857 113.079 161.886L110.746 163.232C110.645 163.29 110.649 163.387 110.746 163.445L113.447 165.008C113.507 165.039 113.573 165.055 113.641 165.055C113.708 165.055 113.774 165.039 113.834 165.008H113.858ZM120.683 161.068L123.02 159.718C123.117 159.665 123.112 159.568 123.02 159.505L120.32 157.947C120.262 157.917 120.198 157.901 120.133 157.901C120.069 157.901 120.005 157.917 119.947 157.947L117.575 159.268C117.474 159.326 117.483 159.423 117.575 159.481L120.271 161.039C120.328 161.076 120.394 161.098 120.461 161.103C120.529 161.108 120.597 161.096 120.659 161.068H120.683ZM136.297 131.917C136.354 131.947 136.418 131.962 136.483 131.962C136.548 131.962 136.612 131.947 136.669 131.917L139.007 130.567C139.104 130.514 139.099 130.417 139.007 130.354L138.291 129.938C138.233 129.909 138.169 129.894 138.104 129.894C138.04 129.894 137.976 129.909 137.918 129.938L135.58 131.283C135.483 131.341 135.488 131.438 135.58 131.501L136.297 131.917ZM119.507 142.759C119.564 142.788 119.628 142.804 119.693 142.804C119.758 142.804 119.822 142.788 119.879 142.759L122.212 141.413C122.314 141.355 122.309 141.258 122.212 141.195L119.511 139.637C119.453 139.608 119.39 139.593 119.325 139.593C119.26 139.593 119.197 139.608 119.139 139.637L116.801 140.982C116.704 141.041 116.709 141.137 116.801 141.2L119.507 142.759ZM126.331 138.819C126.389 138.848 126.453 138.862 126.517 138.862C126.582 138.862 126.646 138.848 126.704 138.819L129.041 137.473C129.138 137.415 129.133 137.319 129.041 137.256L126.341 135.697C126.283 135.667 126.219 135.652 126.154 135.652C126.09 135.652 126.026 135.667 125.968 135.697L123.616 137.043C123.514 137.101 123.519 137.198 123.616 137.261L126.331 138.819ZM115.339 145.164C115.397 145.193 115.461 145.208 115.526 145.208C115.59 145.208 115.654 145.193 115.712 145.164L118.045 143.814C118.147 143.756 118.142 143.659 118.045 143.601L115.344 142.038C115.286 142.009 115.222 141.994 115.158 141.994C115.093 141.994 115.029 142.009 114.972 142.038L112.634 143.383C112.537 143.441 112.542 143.538 112.634 143.601L115.339 145.164ZM122.919 140.808C122.977 140.837 123.041 140.852 123.105 140.852C123.17 140.852 123.234 140.837 123.291 140.808L125.629 139.463C125.726 139.405 125.721 139.308 125.629 139.245L122.928 137.686C122.871 137.658 122.807 137.643 122.742 137.643C122.678 137.643 122.614 137.658 122.556 137.686L120.223 139.032C120.121 139.09 120.126 139.187 120.223 139.25L122.919 140.808ZM108.491 149.104C108.548 149.134 108.612 149.149 108.677 149.149C108.742 149.149 108.806 149.134 108.863 149.104L111.196 147.754C111.298 147.696 111.288 147.599 111.196 147.541L108.5 145.982C108.443 145.952 108.379 145.937 108.314 145.937C108.249 145.937 108.185 145.952 108.128 145.982L105.79 147.333C105.693 147.386 105.698 147.483 105.79 147.546L108.491 149.104ZM111.903 147.134C111.961 147.163 112.025 147.178 112.089 147.178C112.154 147.178 112.218 147.163 112.276 147.134L114.609 145.784C114.71 145.726 114.705 145.629 114.609 145.571L111.913 144.012C111.855 143.983 111.791 143.967 111.726 143.967C111.661 143.967 111.598 143.983 111.54 144.012L109.202 145.363C109.105 145.416 109.11 145.513 109.202 145.576L111.903 147.134ZM129.448 135.862C129.506 135.89 129.57 135.905 129.634 135.905C129.699 135.905 129.763 135.89 129.821 135.862L132.158 134.516C132.255 134.458 132.25 134.361 132.158 134.298L131.437 133.882C131.379 133.854 131.315 133.839 131.251 133.839C131.186 133.839 131.122 133.854 131.065 133.882L128.732 135.228C128.63 135.286 128.64 135.383 128.732 135.446L129.448 135.862ZM139.689 129.947C139.746 129.977 139.809 129.992 139.873 129.992C139.937 129.992 140 129.977 140.057 129.947L142.395 128.597C142.492 128.539 142.487 128.447 142.395 128.384L141.679 127.968C141.621 127.938 141.557 127.922 141.492 127.922C141.427 127.922 141.364 127.938 141.306 127.968L138.968 129.313C138.871 129.371 138.876 129.468 138.968 129.531L139.689 129.947ZM145.357 133.224C145.415 133.253 145.479 133.267 145.543 133.267C145.608 133.267 145.672 133.253 145.73 133.224L148.067 131.874C148.164 131.816 148.159 131.719 148.067 131.661L145.367 130.097C145.309 130.069 145.245 130.054 145.18 130.054C145.116 130.054 145.052 130.069 144.994 130.097L142.661 131.443C142.56 131.501 142.569 131.598 142.661 131.661L145.357 133.224ZM153.89 141.883L156.228 140.532C156.324 140.479 156.32 140.382 156.228 140.319L153.527 138.761C153.469 138.732 153.405 138.717 153.341 138.717C153.276 138.717 153.212 138.732 153.154 138.761L150.821 140.111C150.72 140.169 150.725 140.266 150.821 140.324L153.522 141.883C153.579 141.912 153.642 141.927 153.706 141.927C153.77 141.927 153.833 141.912 153.89 141.883ZM132.86 133.892C132.918 133.92 132.982 133.935 133.046 133.935C133.111 133.935 133.175 133.92 133.233 133.892L135.571 132.546C135.667 132.488 135.663 132.391 135.571 132.329L134.849 131.912C134.791 131.884 134.728 131.869 134.663 131.869C134.598 131.869 134.535 131.884 134.477 131.912L132.144 133.258C132.047 133.316 132.052 133.413 132.144 133.476L132.86 133.892ZM105.079 151.074C105.136 151.104 105.2 151.119 105.265 151.119C105.33 151.119 105.394 151.104 105.451 151.074L107.784 149.724C107.881 149.665 107.876 149.573 107.784 149.511L105.083 147.952C105.026 147.922 104.962 147.907 104.897 147.907C104.832 147.907 104.768 147.922 104.711 147.952L102.378 149.302C102.281 149.361 102.286 149.452 102.378 149.515L105.079 151.074Z" fill="#455A64"/>
<path d="M118.955 172.288L144.51 157.53L160.24 166.61L134.68 181.367L118.955 172.288Z" fill="#263238"/>
<path d="M62.1479 97.9258L138.31 53.9544C139.796 53.0928 141.016 53.7995 141.016 55.5177V114.503C140.991 114.939 140.865 115.363 140.646 115.742C140.428 116.12 140.123 116.442 139.757 116.681L61.6639 161.77C60.9718 162.167 60.4055 161.843 60.4055 161.044V100.941C60.4403 100.337 60.616 99.7501 60.9186 99.2265C61.2212 98.7029 61.6422 98.2574 62.1479 97.9258Z" fill="#F5F5F5"/>
<path d="M141.04 56.931V55.5178C141.04 53.7996 139.82 53.0978 138.334 53.9544L62.1479 97.9258C61.6422 98.2575 61.2212 98.7029 60.9186 99.2265C60.616 99.7502 60.4403 100.337 60.4055 100.941V103.472L141.04 56.931Z" fill="#289AFC"/>
<path d="M129.676 60.1496C129.404 60.3266 129.177 60.5652 129.015 60.8461C128.853 61.127 128.759 61.4422 128.741 61.7662C128.741 62.3615 129.158 62.6035 129.676 62.3034C129.946 62.127 130.172 61.889 130.333 61.6089C130.495 61.3288 130.588 61.0145 130.605 60.6917C130.605 60.0964 130.189 59.8544 129.676 60.1496Z" fill="white"/>
<path d="M133.373 58.0151C133.102 58.1926 132.877 58.4315 132.716 58.7124C132.554 58.9932 132.461 59.3082 132.444 59.6317C132.444 60.227 132.86 60.4642 133.373 60.1689C133.645 59.992 133.872 59.7533 134.034 59.4725C134.196 59.1916 134.29 58.8763 134.307 58.5524C134.307 57.9571 133.891 57.7151 133.373 58.0151Z" fill="white"/>
<path d="M137.076 55.8759C136.805 56.0537 136.579 56.2926 136.417 56.5733C136.255 56.854 136.161 57.1688 136.142 57.4925C136.142 58.0878 136.563 58.3298 137.076 58.0297C137.347 57.8535 137.574 57.6157 137.736 57.3357C137.898 57.0556 137.992 56.7412 138.01 56.418C138.01 55.8227 137.589 55.5807 137.076 55.8759Z" fill="white"/>
<path d="M79.2125 132.351L76.249 130.64L68.9914 143.211L71.9549 144.922L79.2125 132.351Z" fill="#37474F"/>
<path d="M79.2184 132.347L77.7388 131.493L70.4812 144.064L71.9608 144.918L79.2184 132.347Z" fill="#263238"/>
<path d="M61.0348 167.757C59.6844 170.105 53.2908 166.378 54.6363 164.064L71.3101 138.059C71.355 137.989 71.4254 137.938 71.5066 137.918C71.5877 137.899 71.6734 137.911 71.7457 137.953L75.095 139.889C75.1671 139.929 75.2206 139.997 75.2441 140.076C75.2675 140.156 75.2592 140.241 75.2208 140.315L61.0348 167.757Z" fill="#289AFC"/>
<path opacity="0.1" d="M61.0347 167.757L75.2159 140.314C75.2542 140.241 75.2625 140.156 75.2391 140.076C75.2156 139.997 75.1621 139.929 75.09 139.889L73.5654 139.008L57.3079 167.907C58.7889 168.638 60.4248 168.817 61.0347 167.757Z" fill="black"/>
<path d="M110.064 106.536C110.064 106.338 110.064 106.144 110.035 105.951C110.006 105.757 110.035 105.568 109.991 105.379C109.948 105.191 109.991 105.128 109.953 105.002C109.919 104.673 109.87 104.348 109.817 104.034C109.793 103.894 109.769 103.748 109.74 103.608C109.711 103.468 109.686 103.342 109.657 103.211C109.575 102.853 109.488 102.504 109.386 102.17C109.333 102.011 109.285 101.851 109.231 101.686C109.221 101.663 109.213 101.639 109.207 101.614C109.149 101.459 109.096 101.309 109.038 101.164C108.98 101.019 108.902 100.825 108.825 100.68C108.747 100.535 108.718 100.443 108.656 100.326C108.62 100.239 108.578 100.155 108.53 100.075C108.481 99.9731 108.428 99.8715 108.37 99.7747C108.312 99.6779 108.346 99.7263 108.331 99.7069C108.317 99.6875 108.23 99.5327 108.176 99.4455C108.123 99.3584 108.104 99.3342 108.07 99.281C107.822 98.8903 107.544 98.5197 107.237 98.1726L107.083 97.9984L106.952 97.8629C106.899 97.8048 106.841 97.7515 106.782 97.6935C106.63 97.5337 106.469 97.3834 106.298 97.2433C106.216 97.1707 106.129 97.103 106.042 97.0401L105.776 96.8465C105.637 96.7451 105.494 96.6513 105.345 96.5657L105.229 96.4931H105.205L98.3463 92.534L98.3076 92.5098C96.9918 91.776 95.5065 91.4005 94 91.4208C91.7543 91.4208 89.2181 92.1565 86.5319 93.7053C77.3069 99.0293 69.8242 111.991 69.8242 122.649C69.8242 127.973 71.6828 131.699 74.6884 133.451H74.7175L81.5806 137.406H81.6096L81.6919 137.449C81.8206 137.525 81.9531 137.595 82.0888 137.657C82.2533 137.74 82.4227 137.812 82.5728 137.88C82.7228 137.948 82.8777 138.001 83.0326 138.049L83.2794 138.122C83.3659 138.155 83.4549 138.181 83.5456 138.199C83.6348 138.227 83.7252 138.249 83.8167 138.267C83.8817 138.286 83.948 138.301 84.0151 138.311C84.1313 138.335 84.2571 138.359 84.3781 138.374C84.4053 138.378 84.4331 138.378 84.4604 138.374C84.6056 138.399 84.7508 138.419 84.896 138.432C87.3837 138.693 90.2781 137.991 93.3757 136.205C102.606 130.881 110.088 117.915 110.088 107.262C110.064 107.04 110.064 106.788 110.064 106.536ZM98.8691 99.0003C99.2316 100.325 99.4091 101.693 99.3966 103.066C99.3966 112.465 92.519 124.362 84.3926 129.076C83.2047 129.782 81.9221 130.315 80.5835 130.659C80.2231 129.332 80.0456 127.963 80.056 126.588C80.056 117.189 86.9336 105.292 95.06 100.578C96.2435 99.8746 97.5211 99.3433 98.8545 99.0003H98.8691Z" fill="#289AFC"/>
<path opacity="0.1" d="M81.2999 137.27L74.6352 133.427C71.6296 131.67 69.771 127.934 69.771 122.629C69.771 117.876 71.2617 112.668 73.7253 107.886L80.5884 111.836C78.12 116.618 76.6341 121.826 76.6341 126.579C76.6341 131.786 78.4056 135.47 81.2999 137.27Z" fill="black"/>
<path opacity="0.4" d="M110.064 106.536C110.064 106.338 110.064 106.144 110.035 105.951C110.006 105.757 110.035 105.568 109.991 105.379C109.948 105.191 109.991 105.128 109.953 105.002C109.919 104.673 109.87 104.348 109.817 104.034C109.793 103.894 109.769 103.748 109.74 103.608C109.711 103.468 109.686 103.342 109.657 103.211C109.575 102.853 109.488 102.504 109.386 102.17C109.333 102.011 109.285 101.851 109.232 101.686C109.221 101.663 109.213 101.639 109.207 101.614C109.149 101.459 109.096 101.309 109.038 101.164C108.98 101.019 108.902 100.825 108.825 100.68C108.748 100.535 108.718 100.443 108.656 100.326C108.62 100.239 108.578 100.155 108.53 100.075C108.481 99.9731 108.428 99.8715 108.37 99.7747C108.312 99.6779 108.346 99.7263 108.331 99.7069C108.317 99.6876 108.23 99.5327 108.176 99.4456C108.123 99.3584 108.104 99.3342 108.07 99.281C107.822 98.8903 107.544 98.5197 107.237 98.1727L107.083 97.9984L106.952 97.8629C106.899 97.8048 106.841 97.7516 106.782 97.6935C106.63 97.5337 106.469 97.3834 106.298 97.2434C106.216 97.1708 106.129 97.103 106.042 97.0401L105.776 96.8465C105.637 96.7451 105.494 96.6514 105.345 96.5658C102.31 94.7217 98.085 94.9395 93.3854 97.6451C84.1555 102.969 76.6729 115.931 76.6729 126.588C76.6729 131.985 78.6089 135.755 81.6823 137.469C81.811 137.545 81.9434 137.614 82.0791 137.677C82.2437 137.759 82.4131 137.832 82.5631 137.899C82.7132 137.967 82.8681 138.02 83.0229 138.069L83.2698 138.141C83.3562 138.174 83.4453 138.2 83.536 138.219C83.6251 138.246 83.7156 138.269 83.807 138.287C83.8721 138.306 83.9384 138.32 84.0055 138.33C84.1216 138.354 84.2475 138.379 84.3685 138.393C84.3957 138.398 84.4235 138.398 84.4507 138.393C84.5959 138.419 84.7411 138.438 84.8863 138.451C87.3741 138.712 90.2684 138.011 93.366 136.225C102.596 130.901 110.079 117.934 110.079 107.282C110.064 107.04 110.064 106.788 110.064 106.536ZM91.672 133.306C89.6005 134.502 87.6064 135.131 85.9027 135.131C82.7035 135.131 81.2321 132.948 80.5787 130.659C80.2183 129.332 80.0408 127.963 80.0512 126.588C80.0512 117.189 86.9288 105.292 95.0552 100.578C96.2432 99.8733 97.5258 99.342 98.8643 99.0003C99.4978 98.8433 100.148 98.7605 100.8 98.7535C106.09 98.7535 106.657 104.726 106.657 107.296C106.676 116.676 99.7984 128.607 91.672 133.306Z" fill="white"/>
<path opacity="0.1" d="M106.676 107.296C106.676 116.695 99.8031 128.592 91.6719 133.306C89.6004 134.502 87.6063 135.131 85.9026 135.131C82.7034 135.131 81.232 132.948 80.5786 130.659C81.9172 130.315 83.1998 129.782 84.3877 129.076C92.5286 124.376 99.3917 112.465 99.3917 103.066C99.4042 101.693 99.2266 100.325 98.8641 99.0003C99.4977 98.8433 100.147 98.7604 100.8 98.7534C106.105 98.7679 106.676 104.726 106.676 107.296Z" fill="black"/>
<path opacity="0.7" d="M103.772 105.655C103.772 115.055 96.8991 126.951 88.7679 131.665C86.6964 132.861 84.7023 133.49 82.9986 133.49C82.6597 133.491 82.3214 133.463 81.9871 133.408C81.333 132.6 80.8564 131.663 80.5883 130.659C80.2279 129.332 80.0504 127.963 80.0607 126.588C80.0607 117.189 86.9384 105.292 95.0647 100.578C96.2527 99.8733 97.5354 99.342 98.8738 99.0003C99.5074 98.8433 100.157 98.7605 100.81 98.7534C101.15 98.7526 101.49 98.7801 101.826 98.8357C103.501 100.806 103.772 103.966 103.772 105.655Z" fill="white"/>
<path d="M115.47 95.864V106.58C115.47 107.383 116.036 107.707 116.729 107.306L186.957 66.7611C187.323 66.5221 187.627 66.2004 187.846 65.8221C188.064 65.4438 188.191 65.0194 188.215 64.5831V53.8528C188.215 53.0494 187.649 52.7251 186.957 53.1268L116.729 93.6715C116.361 93.9122 116.056 94.2363 115.837 94.6172C115.618 94.9982 115.493 95.4253 115.47 95.864Z" fill="#E6E6E6"/>
<path d="M116.729 93.6715L129.235 86.4551V100.075L116.729 107.291C116.036 107.693 115.47 107.369 115.47 106.565V95.864C115.493 95.4254 115.618 94.9982 115.837 94.6172C116.056 94.2363 116.361 93.9123 116.729 93.6715Z" fill="#289AFC"/>
<path d="M125.097 92.3986C124.308 91.9436 123.311 92.0162 122.29 92.6067C121.319 93.2284 120.512 94.0736 119.935 95.0715C119.358 96.0693 119.029 97.1908 118.975 98.3421C118.94 99.0882 119.176 99.8218 119.638 100.409L118.292 102.713C118.204 102.877 118.183 103.07 118.233 103.25C118.282 103.43 118.399 103.584 118.558 103.681C118.669 103.743 118.794 103.776 118.921 103.777C119.049 103.777 119.174 103.744 119.285 103.68C119.395 103.617 119.487 103.525 119.551 103.414L120.882 101.111C121.025 101.138 121.171 101.152 121.317 101.154C121.911 101.143 122.492 100.976 123.001 100.67C123.97 100.047 124.776 99.2013 125.352 98.2037C125.928 97.2061 126.257 96.0853 126.312 94.9347C126.327 93.7586 125.891 92.8584 125.097 92.3986ZM122.29 99.4166C122.12 99.5995 121.893 99.7193 121.646 99.7565C121.399 99.7936 121.147 99.746 120.93 99.6212C120.714 99.4965 120.547 99.3021 120.455 99.0697C120.363 98.8374 120.353 98.5808 120.427 98.3421C120.483 97.4465 120.746 96.5762 121.195 95.7995C121.645 95.0227 122.268 94.3606 123.016 93.8651C123.306 93.6802 123.64 93.5751 123.984 93.5602C124.126 93.5548 124.266 93.5883 124.391 93.657C124.573 93.8127 124.713 94.0119 124.797 94.2361C124.882 94.4604 124.908 94.7023 124.875 94.9396C124.819 95.8347 124.556 96.7047 124.108 97.4815C123.659 98.2582 123.037 98.9205 122.29 99.4166Z" fill="white"/>
</svg>
